font.ufo
<glyph name="exclam" format="2">
	<unicode hex="0021"/>
	<advance width="337"/>
	<outline>
		<contour>
			<point x="117" y="230" type="line"/>
			<point x="211" y="230" type="line"/>
			<point x="294" y="539" type="line"/>
			<point x="323" y="670" type="line"/>
			<point x="179" y="670" type="line"/>
		</contour>
		<contour>
			<point x="119" y="-12" type="curve" smooth="yes"/>
			<point x="180" y="-12"/>
			<point x="221" y="40"/>
			<point x="221" y="92" type="curve" smooth="yes"/>
			<point x="221" y="136"/>
			<point x="192" y="170"/>
			<point x="147" y="170" type="curve" smooth="yes"/>
			<point x="87" y="170"/>
			<point x="46" y="116"/>
			<point x="46" y="66" type="curve" smooth="yes"/>
			<point x="46" y="20"/>
			<point x="75" y="-12"/>
		</contour>
	</outline>
</glyph>
<glyph name="numbersign" format="2">
	<unicode hex="0023"/>
	<advance width="506"/>
	<outline>
		<contour>
			<point x="33" y="0" type="line"/>
			<point x="116" y="0" type="line"/>
			<point x="176" y="187" type="line"/>
			<point x="273" y="187" type="line"/>
			<point x="213" y="0" type="line"/>
			<point x="296" y="0" type="line"/>
			<point x="356" y="187" type="line"/>
			<point x="438" y="187" type="line"/>
			<point x="459" y="279" type="line"/>
			<point x="384" y="279" type="line"/>
			<point x="420" y="391" type="line"/>
			<point x="501" y="391" type="line"/>
			<point x="523" y="483" type="line"/>
			<point x="448" y="483" type="line"/>
			<point x="501" y="650" type="line"/>
			<point x="418" y="650" type="line"/>
			<point x="364" y="483" type="line"/>
			<point x="267" y="483" type="line"/>
			<point x="322" y="650" type="line"/>
			<point x="238" y="650" type="line"/>
			<point x="184" y="483" type="line"/>
			<point x="102" y="483" type="line"/>
			<point x="81" y="391" type="line"/>
			<point x="157" y="391" type="line"/>
			<point x="120" y="279" type="line"/>
			<point x="39" y="279" type="line"/>
			<point x="18" y="187" type="line"/>
			<point x="93" y="187" type="line"/>
		</contour>
		<contour>
			<point x="203" y="279" type="line"/>
			<point x="240" y="391" type="line"/>
			<point x="337" y="391" type="line"/>
			<point x="300" y="279" type="line"/>
		</contour>
	</outline>
</glyph>
<glyph name="dollar" format="2">
	<unicode hex="0024"/>
	<advance width="509"/>
	<outline>
		<contour>
			<point x="220" y="-12" type="curve" smooth="yes"/>
			<point x="357" y="-12"/>
			<point x="446" y="73"/>
			<point x="446" y="191" type="curve" smooth="yes"/>
			<point x="446" y="349"/>
			<point x="243" y="375"/>
			<point x="243" y="468" type="curve" smooth="yes"/>
			<point x="243" y="508"/>
			<point x="272" y="537"/>
			<point x="319" y="537" type="curve" smooth="yes"/>
			<point x="356" y="537"/>
			<point x="393" y="513"/>
			<point x="421" y="479" type="curve"/>
			<point x="501" y="555" type="line"/>
			<point x="451" y="614"/>
			<point x="397" y="647"/>
			<point x="322" y="647" type="curve" smooth="yes"/>
			<point x="195" y="647"/>
			<point x="108" y="566"/>
			<point x="108" y="452" type="curve" smooth="yes"/>
			<point x="108" y="306"/>
			<point x="310" y="281"/>
			<point x="310" y="174" type="curve" smooth="yes"/>
			<point x="310" y="127"/>
			<point x="279" y="98"/>
			<point x="224" y="98" type="curve" smooth="yes"/>
			<point x="176" y="98"/>
			<point x="130" y="129"/>
			<point x="99" y="164" type="curve"/>
			<point x="21" y="88" type="line"/>
			<point x="71" y="28"/>
			<point x="145" y="-12"/>
		</contour>
		<contour>
			<point x="143" y="-110" type="line"/>
			<point x="234" y="-110" type="line"/>
			<point x="265" y="43" type="line"/>
			<point x="173" y="43" type="line"/>
		</contour>
		<contour>
			<point x="287" y="611" type="line"/>
			<point x="378" y="611" type="line"/>
			<point x="405" y="753" type="line"/>
			<point x="314" y="753" type="line"/>
		</contour>
	</outline>
</glyph>
<glyph name="ampersand" format="2">
	<unicode hex="0026"/>
	<advance width="639"/>
	<outline>
		<contour>
			<point x="203" y="-12" type="curve" smooth="yes"/>
			<point x="303" y="-12"/>
			<point x="388" y="29"/>
			<point x="458" y="96" type="curve" smooth="yes"/>
			<point x="541" y="177"/>
			<point x="599" y="270"/>
			<point x="645" y="368" type="curve"/>
			<point x="515" y="368" type="line"/>
			<point x="481" y="287"/>
			<point x="437" y="220"/>
			<point x="373" y="160" type="curve" smooth="yes"/>
			<point x="326" y="117"/>
			<point x="274" y="97"/>
			<point x="228" y="97" type="curve" smooth="yes"/>
			<point x="181" y="97"/>
			<point x="153" y="126"/>
			<point x="153" y="166" type="curve" smooth="yes"/>
			<point x="153" y="303"/>
			<point x="483" y="336"/>
			<point x="483" y="529" type="curve" smooth="yes"/>
			<point x="483" y="611"/>
			<point x="434" y="663"/>
			<point x="346" y="663" type="curve" smooth="yes"/>
			<point x="232" y="663"/>
			<point x="144" y="575"/>
			<point x="144" y="468" type="curve" smooth="yes"/>
			<point x="144" y="341"/>
			<point x="240" y="180"/>
			<point x="361" y="79" type="curve" smooth="yes"/>
			<point x="416" y="32"/>
			<point x="478" y="0"/>
			<point x="538" y="-12" type="curve"/>
			<point x="594" y="102" type="line"/>
			<point x="558" y="111"/>
			<point x="506" y="131"/>
			<point x="461" y="165" type="curve" smooth="yes"/>
			<point x="360" y="240"/>
			<point x="264" y="364"/>
			<point x="264" y="472" type="curve" smooth="yes"/>
			<point x="264" y="532"/>
			<point x="299" y="569"/>
			<point x="337" y="569" type="curve" smooth="yes"/>
			<point x="359" y="569"/>
			<point x="371" y="555"/>
			<point x="371" y="531" type="curve" smooth="yes"/>
			<point x="371" y="382"/>
			<point x="14" y="391"/>
			<point x="14" y="152" type="curve" smooth="yes"/>
			<point x="14" y="55"/>
			<point x="83" y="-12"/>
		</contour>
	</outline>
</glyph>
<glyph name="quotesingle" format="2">
	<unicode hex="0027"/>
	<advance width="297"/>
	<outline>
		<contour>
			<point x="120" y="355" type="line"/>
			<point x="214" y="355" type="line"/>
			<point x="272" y="539" type="line"/>
			<point x="302" y="670" type="line"/>
			<point x="159" y="670" type="line"/>
			<point x="140" y="539" type="line"/>
		</contour>
	</outline>
</glyph>
<glyph name="parenleft" format="2">
	<unicode hex="0028"/>
	<advance width="329"/>
	<outline>
		<contour>
			<point x="120" y="-182" type="curve"/>
			<point x="206" y="-147" type="line"/>
			<point x="180" y="-75"/>
			<point x="166" y="20"/>
			<point x="166" y="125" type="curve" smooth="yes"/>
			<point x="166" y="325"/>
			<point x="229" y="540"/>
			<point x="370" y="686" type="curve"/>
			<point x="291" y="733" type="line"/>
			<point x="139" y="582"/>
			<point x="56" y="373"/>
			<point x="56" y="122" type="curve" smooth="yes"/>
			<point x="56" y="4"/>
			<point x="84" y="-99"/>
		</contour>
	</outline>
</glyph>
<glyph name="parenright" format="2">
	<unicode hex="0029"/>
	<advance width="336"/>
	<outline>
		<contour>
			<point x="52" y="-183" type="line"/>
			<point x="205" y="-31"/>
			<point x="287" y="178"/>
			<point x="287" y="429" type="curve" smooth="yes"/>
			<point x="287" y="548"/>
			<point x="258" y="650"/>
			<point x="223" y="734" type="curve"/>
			<point x="132" y="696" type="line"/>
			<point x="157" y="625"/>
			<point x="172" y="532"/>
			<point x="172" y="426" type="curve" smooth="yes"/>
			<point x="172" y="228"/>
			<point x="109" y="14"/>
			<point x="-31" y="-134" type="curve"/>
		</contour>
	</outline>
</glyph>
<glyph name="asterisk" format="2">
	<unicode hex="002A"/>
	<advance width="443"/>
	<outline>
		<contour>
			<point x="173" y="358" type="line"/>
			<point x="261" y="440" type="line"/>
			<point x="323" y="346" type="line"/>
			<point x="390" y="384" type="line"/>
			<point x="352" y="492" type="line"/>
			<point x="464" y="530" type="line"/>
			<point x="453" y="603" type="line"/>
			<point x="338" y="589" type="line"/>
			<point x="346" y="708" type="line"/>
			<point x="271" y="714" type="line"/>
			<point x="239" y="598" type="line"/>
			<point x="131" y="632" type="line"/>
			<point x="98" y="564" type="line"/>
			<point x="194" y="508" type="line"/>
			<point x="118" y="409" type="line"/>
		</contour>
	</outline>
</glyph>
<glyph name="plus" format="2">
	<unicode hex="002B"/>
	<advance width="512"/>
	<outline>
		<contour>
			<point x="214" y="94" type="line"/>
			<point x="319" y="94" type="line"/>
			<point x="319" y="279" type="line"/>
			<point x="489" y="279" type="line"/>
			<point x="489" y="381" type="line"/>
			<point x="321" y="381" type="line"/>
			<point x="321" y="565" type="line"/>
			<point x="216" y="565" type="line"/>
			<point x="216" y="381" type="line"/>
			<point x="48" y="381" type="line"/>
			<point x="48" y="279" type="line"/>
			<point x="214" y="279" type="line"/>
		</contour>
	</outline>
</glyph>
<glyph name="comma" format="2">
	<unicode hex="002C"/>
	<advance width="297"/>
	<outline>
		<contour>
			<point x="-12" y="-190" type="line"/>
			<point x="125" y="-162"/>
			<point x="209" y="-61"/>
			<point x="209" y="70" type="curve" smooth="yes"/>
			<point x="209" y="132"/>
			<point x="178" y="170"/>
			<point x="122" y="170" type="curve" smooth="yes"/>
			<point x="63" y="170"/>
			<point x="26" y="125"/>
			<point x="26" y="75" type="curve" smooth="yes"/>
			<point x="26" y="29"/>
			<point x="61" y="1"/>
			<point x="109" y="1" type="curve" smooth="yes"/>
			<point x="124" y="1"/>
			<point x="140" y="10"/>
			<point x="153" y="18" type="curve"/>
			<point x="123" y="105" type="line"/>
			<point x="106" y="3" type="line"/>
			<point x="93" y="-45"/>
			<point x="51" y="-89"/>
			<point x="-27" y="-111" type="curve"/>
		</contour>
	</outline>
</glyph>
<glyph name="hyphen" format="1">
	<unicode hex="002D"/>
	<advance width="320"/>
	<outline>
		<contour>
			<point x="33" y="205" type="line"/>
			<point x="267" y="205" type="line"/>
			<point x="288" y="302" type="line"/>
			<point x="54" y="302" type="line"/>
		</contour>
	</outline>
</glyph>
<glyph name="period" format="2">
	<unicode hex="002E"/>
	<advance width="297"/>
	<outline>
		<contour>
			<point x="98" y="-12" type="curve" smooth="yes"/>
			<point x="158" y="-12"/>
			<point x="199" y="40"/>
			<point x="199" y="92" type="curve" smooth="yes"/>
			<point x="199" y="136"/>
			<point x="170" y="170"/>
			<point x="126" y="170" type="curve" smooth="yes"/>
			<point x="65" y="170"/>
			<point x="24" y="116"/>
			<point x="24" y="66" type="curve" smooth="yes"/>
			<point x="24" y="20"/>
			<point x="53" y="-12"/>
		</contour>
	</outline>
</glyph>
<glyph name="slash" format="2">
	<unicode hex="002F"/>
	<advance width="327"/>
	<outline>
		<contour>
			<point x="-69" y="-160" type="line"/>
			<point x="24" y="-160" type="line"/>
			<point x="390" y="710" type="line"/>
			<point x="296" y="710" type="line"/>
		</contour>
	</outline>
</glyph>
<glyph name="zero" format="2">
	<unicode hex="0030"/>
	<advance width="512"/>
	<outline>
		<contour>
			<point x="219" y="-12" type="curve" smooth="yes"/>
			<point x="355" y="-12"/>
			<point x="499" y="129"/>
			<point x="499" y="416" type="curve" smooth="yes"/>
			<point x="499" y="570"/>
			<point x="422" y="647"/>
			<point x="319" y="647" type="curve" smooth="yes"/>
			<point x="183" y="647"/>
			<point x="37" y="504"/>
			<point x="37" y="217" type="curve" smooth="yes"/>
			<point x="37" y="64"/>
			<point x="116" y="-12"/>
		</contour>
		<contour>
			<point x="228" y="98" type="curve" smooth="yes"/>
			<point x="192" y="98"/>
			<point x="171" y="125"/>
			<point x="171" y="202" type="curve" smooth="yes"/>
			<point x="171" y="390"/>
			<point x="242" y="536"/>
			<point x="310" y="536" type="curve" smooth="yes"/>
			<point x="346" y="536"/>
			<point x="368" y="508"/>
			<point x="368" y="431" type="curve" smooth="yes"/>
			<point x="368" y="242"/>
			<point x="296" y="98"/>
		</contour>
	</outline>
</glyph>
<glyph name="one" format="2">
	<unicode hex="0031"/>
	<advance width="512"/>
	<outline>
		<contour>
			<point x="18" y="0" type="line"/>
			<point x="408" y="0" type="line"/>
			<point x="431" y="116" type="line"/>
			<point x="316" y="116" type="line"/>
			<point x="420" y="635" type="line"/>
			<point x="314" y="635" type="line"/>
			<point x="266" y="606"/>
			<point x="220" y="589"/>
			<point x="149" y="577" type="curve"/>
			<point x="131" y="487" type="line"/>
			<point x="246" y="487" type="line"/>
			<point x="171" y="116" type="line"/>
			<point x="42" y="116" type="line"/>
		</contour>
	</outline>
</glyph>
<glyph name="two" format="2">
	<unicode hex="0032"/>
	<advance width="512"/>
	<outline>
		<contour>
			<point x="-13" y="0" type="line"/>
			<point x="417" y="0" type="line"/>
			<point x="440" y="121" type="line"/>
			<point x="232" y="121" type="line"/>
			<point x="381" y="256"/>
			<point x="483" y="347"/>
			<point x="483" y="474" type="curve" smooth="yes"/>
			<point x="483" y="577"/>
			<point x="408" y="647"/>
			<point x="287" y="647" type="curve" smooth="yes"/>
			<point x="223" y="647"/>
			<point x="160" y="618"/>
			<point x="99" y="567" type="curve"/>
			<point x="168" y="483" type="line"/>
			<point x="204" y="512"/>
			<point x="233" y="533"/>
			<point x="269" y="533" type="curve" smooth="yes"/>
			<point x="316" y="533"/>
			<point x="342" y="503"/>
			<point x="342" y="460" type="curve" smooth="yes"/>
			<point x="342" y="350"/>
			<point x="204" y="246"/>
			<point x="3" y="82" type="curve"/>
		</contour>
	</outline>
</glyph>
<glyph name="three" format="2">
	<unicode hex="0033"/>
	<advance width="512"/>
	<outline>
		<contour>
			<point x="204" y="-12" type="curve" smooth="yes"/>
			<point x="344" y="-12"/>
			<point x="452" y="58"/>
			<point x="452" y="186" type="curve" smooth="yes"/>
			<point x="452" y="242"/>
			<point x="422" y="292"/>
			<point x="353" y="319" type="curve"/>
			<point x="353" y="323" type="line"/>
			<point x="453" y="357"/>
			<point x="489" y="412"/>
			<point x="489" y="493" type="curve" smooth="yes"/>
			<point x="489" y="585"/>
			<point x="409" y="647"/>
			<point x="293" y="647" type="curve" smooth="yes"/>
			<point x="226" y="647"/>
			<point x="165" y="631"/>
			<point x="99" y="586" type="curve"/>
			<point x="168" y="494" type="line"/>
			<point x="208" y="519"/>
			<point x="236" y="533"/>
			<point x="267" y="533" type="curve" smooth="yes"/>
			<point x="314" y="533"/>
			<point x="341" y="507"/>
			<point x="341" y="469" type="curve" smooth="yes"/>
			<point x="341" y="417"/>
			<point x="305" y="374"/>
			<point x="175" y="374" type="curve"/>
			<point x="155" y="273" type="line"/>
			<point x="276" y="273"/>
			<point x="308" y="241"/>
			<point x="308" y="187" type="curve" smooth="yes"/>
			<point x="308" y="136"/>
			<point x="267" y="104"/>
			<point x="201" y="104" type="curve" smooth="yes"/>
			<point x="158" y="104"/>
			<point x="108" y="131"/>
			<point x="74" y="177" type="curve"/>
			<point x="-16" y="103" type="line"/>
			<point x="42" y="22"/>
			<point x="126" y="-12"/>
		</contour>
	</outline>
</glyph>
<glyph name="four" format="2">
	<unicode hex="0034"/>
	<advance width="512"/>
	<outline>
		<contour>
			<point x="379" y="0" type="line"/>
			<point x="409" y="152" type="line"/>
			<point x="481" y="152" type="line"/>
			<point x="502" y="262" type="line"/>
			<point x="431" y="262" type="line"/>
			<point x="505" y="635" type="line"/>
			<point x="332" y="635" type="line"/>
			<point x="27" y="252" type="line"/>
			<point x="8" y="152" type="line"/>
			<point x="277" y="152" type="line"/>
			<point x="247" y="0" type="line"/>
		</contour>
		<contour>
			<point x="170" y="262" type="line"/>
			<point x="271" y="393" type="line" smooth="yes"/>
			<point x="299" y="432"/>
			<point x="325" y="471"/>
			<point x="349" y="510" type="curve"/>
			<point x="353" y="510" type="line"/>
			<point x="343" y="463"/>
			<point x="329" y="414"/>
			<point x="320" y="368" type="curve" smooth="yes"/>
			<point x="299" y="262" type="line"/>
		</contour>
	</outline>
</glyph>
<glyph name="five" format="1">
	<unicode hex="0035"/>
	<advance width="509"/>
	<outline>
		<contour>
			<point x="205" y="-12" type="curve" smooth="yes"/>
			<point x="336" y="-12"/>
			<point x="461" y="84"/>
			<point x="461" y="240" type="curve" smooth="yes"/>
			<point x="461" y="351"/>
			<point x="388" y="408"/>
			<point x="292" y="408" type="curve" smooth="yes"/>
			<point x="270" y="408"/>
			<point x="251" y="404"/>
			<point x="231" y="395" type="curve"/>
			<point x="266" y="520" type="line"/>
			<point x="489" y="520" type="line"/>
			<point x="512" y="635" type="line"/>
			<point x="170" y="635" type="line"/>
			<point x="92" y="319" type="line"/>
			<point x="143" y="277" type="line"/>
			<point x="186" y="301"/>
			<point x="203" y="306"/>
			<point x="236" y="306" type="curve" smooth="yes"/>
			<point x="290" y="306"/>
			<point x="323" y="277"/>
			<point x="323" y="218" type="curve" smooth="yes"/>
			<point x="323" y="143"/>
			<point x="269" y="98"/>
			<point x="208" y="98" type="curve" smooth="yes"/>
			<point x="156" y="98"/>
			<point x="116" y="127"/>
			<point x="83" y="172" type="curve"/>
			<point x="-3" y="102" type="line"/>
			<point x="53" y="23"/>
			<point x="126" y="-12"/>
		</contour>
	</outline>
</glyph>
<glyph name="six" format="2">
	<unicode hex="0036"/>
	<advance width="512"/>
	<outline>
		<contour>
			<point x="251" y="-12" type="curve" smooth="yes"/>
			<point x="383" y="-12"/>
			<point x="477" y="108"/>
			<point x="477" y="231" type="curve" smooth="yes"/>
			<point x="477" y="346"/>
			<point x="408" y="397"/>
			<point x="319" y="397" type="curve" smooth="yes"/>
			<point x="284" y="397"/>
			<point x="228" y="375"/>
			<point x="192" y="334" type="curve"/>
			<point x="178" y="231" type="line"/>
			<point x="217" y="282"/>
			<point x="253" y="299"/>
			<point x="280" y="299" type="curve" smooth="yes"/>
			<point x="322" y="299"/>
			<point x="345" y="269"/>
			<point x="345" y="219" type="curve" smooth="yes"/>
			<point x="345" y="165"/>
			<point x="316" y="95"/>
			<point x="258" y="95" type="curve" smooth="yes"/>
			<point x="214" y="95"/>
			<point x="184" y="133"/>
			<point x="184" y="201" type="curve" smooth="yes"/>
			<point x="184" y="423"/>
			<point x="266" y="531"/>
			<point x="362" y="531" type="curve" smooth="yes"/>
			<point x="398" y="531"/>
			<point x="421" y="511"/>
			<point x="440" y="483" type="curve"/>
			<point x="531" y="558" type="line"/>
			<point x="503" y="597"/>
			<point x="452" y="647"/>
			<point x="371" y="647" type="curve" smooth="yes"/>
			<point x="185" y="647"/>
			<point x="50" y="475"/>
			<point x="50" y="215" type="curve" smooth="yes"/>
			<point x="50" y="80"/>
			<point x="128" y="-12"/>
		</contour>
	</outline>
</glyph>
<glyph name="seven" format="2">
	<unicode hex="0037"/>
	<advance width="509"/>
	<outline>
		<contour>
			<point x="100" y="0" type="curve"/>
			<point x="241" y="0" type="line"/>
			<point x="281" y="175"/>
			<point x="336" y="361"/>
			<point x="531" y="549" type="curve"/>
			<point x="548" y="635" type="line"/>
			<point x="117" y="635" type="line"/>
			<point x="94" y="520" type="line"/>
			<point x="373" y="520" type="line"/>
			<point x="235" y="373"/>
			<point x="159" y="209"/>
		</contour>
	</outline>
</glyph>
<glyph name="eight" format="2">
	<unicode hex="0038"/>
	<advance width="512"/>
	<outline>
		<contour>
			<point x="225" y="-12" type="curve" smooth="yes"/>
			<point x="356" y="-12"/>
			<point x="471" y="61"/>
			<point x="471" y="176" type="curve" smooth="yes"/>
			<point x="471" y="241"/>
			<point x="436" y="290"/>
			<point x="386" y="323" type="curve"/>
			<point x="386" y="327" type="line"/>
			<point x="459" y="366"/>
			<point x="506" y="421"/>
			<point x="506" y="498" type="curve" smooth="yes"/>
			<point x="506" y="603"/>
			<point x="417" y="647"/>
			<point x="331" y="647" type="curve" smooth="yes"/>
			<point x="214" y="647"/>
			<point x="113" y="578"/>
			<point x="113" y="464" type="curve" smooth="yes"/>
			<point x="113" y="413"/>
			<point x="137" y="375"/>
			<point x="175" y="334" type="curve"/>
			<point x="175" y="330" type="line"/>
			<point x="96" y="299"/>
			<point x="32" y="240"/>
			<point x="32" y="152" type="curve" smooth="yes"/>
			<point x="32" y="36"/>
			<point x="137" y="-12"/>
		</contour>
		<contour>
			<point x="322" y="369" type="curve"/>
			<point x="267" y="399"/>
			<point x="240" y="426"/>
			<point x="240" y="473" type="curve" smooth="yes"/>
			<point x="240" y="518"/>
			<point x="276" y="545"/>
			<point x="320" y="545" type="curve" smooth="yes"/>
			<point x="359" y="545"/>
			<point x="383" y="515"/>
			<point x="383" y="474" type="curve" smooth="yes"/>
			<point x="383" y="426"/>
			<point x="354" y="395"/>
		</contour>
		<contour>
			<point x="241" y="88" type="curve" smooth="yes"/>
			<point x="194" y="88"/>
			<point x="161" y="120"/>
			<point x="161" y="172" type="curve" smooth="yes"/>
			<point x="161" y="222"/>
			<point x="194" y="258"/>
			<point x="234" y="286" type="curve"/>
			<point x="298" y="248"/>
			<point x="339" y="219"/>
			<point x="339" y="172" type="curve" smooth="yes"/>
			<point x="339" y="115"/>
			<point x="292" y="88"/>
		</contour>
	</outline>
</glyph>
<glyph name="nine" format="2">
	<unicode hex="0039"/>
	<advance width="512"/>
	<outline>
		<contour>
			<point x="169" y="-12" type="curve" smooth="yes"/>
			<point x="356" y="-12"/>
			<point x="490" y="159"/>
			<point x="490" y="419" type="curve" smooth="yes"/>
			<point x="490" y="554"/>
			<point x="412" y="647"/>
			<point x="289" y="647" type="curve" smooth="yes"/>
			<point x="157" y="647"/>
			<point x="63" y="527"/>
			<point x="63" y="403" type="curve" smooth="yes"/>
			<point x="63" y="289"/>
			<point x="132" y="237"/>
			<point x="221" y="237" type="curve" smooth="yes"/>
			<point x="256" y="237"/>
			<point x="312" y="260"/>
			<point x="348" y="301" type="curve"/>
			<point x="362" y="404" type="line"/>
			<point x="323" y="352"/>
			<point x="287" y="336"/>
			<point x="260" y="336" type="curve" smooth="yes"/>
			<point x="218" y="336"/>
			<point x="195" y="366"/>
			<point x="195" y="416" type="curve" smooth="yes"/>
			<point x="195" y="469"/>
			<point x="224" y="540"/>
			<point x="282" y="540" type="curve" smooth="yes"/>
			<point x="326" y="540"/>
			<point x="356" y="502"/>
			<point x="356" y="434" type="curve" smooth="yes"/>
			<point x="356" y="211"/>
			<point x="274" y="104"/>
			<point x="178" y="104" type="curve" smooth="yes"/>
			<point x="142" y="104"/>
			<point x="119" y="124"/>
			<point x="100" y="152" type="curve"/>
			<point x="9" y="76" type="line"/>
			<point x="37" y="37"/>
			<point x="88" y="-12"/>
		</contour>
	</outline>
</glyph>
<glyph name="less" format="2">
	<unicode hex="003C"/>
	<advance width="512"/>
	<outline>
		<contour>
			<point x="489" y="105" type="line"/>
			<point x="489" y="224" type="line"/>
			<point x="322" y="283" type="line"/>
			<point x="193" y="330" type="line"/>
			<point x="193" y="334" type="line"/>
			<point x="322" y="380" type="line"/>
			<point x="489" y="439" type="line"/>
			<point x="489" y="557" type="line"/>
			<point x="46" y="381" type="line"/>
			<point x="46" y="281" type="line"/>
		</contour>
	</outline>
</glyph>
<glyph name="greater" format="2">
	<unicode hex="003E"/>
	<advance width="512"/>
	<outline>
		<contour>
			<point x="48" y="105" type="line"/>
			<point x="491" y="281" type="line"/>
			<point x="491" y="381" type="line"/>
			<point x="48" y="557" type="line"/>
			<point x="48" y="439" type="line"/>
			<point x="215" y="380" type="line"/>
			<point x="344" y="334" type="line"/>
			<point x="344" y="330" type="line"/>
			<point x="215" y="283" type="line"/>
			<point x="48" y="224" type="line"/>
		</contour>
	</outline>
</glyph>
<glyph name="question" format="2">
	<unicode hex="003F"/>
	<advance width="449"/>
	<outline>
		<contour>
			<point x="146" y="236" type="curve"/>
			<point x="269" y="225" type="line"/>
			<point x="289" y="359"/>
			<point x="462" y="374"/>
			<point x="462" y="529" type="curve" smooth="yes"/>
			<point x="462" y="625"/>
			<point x="387" y="682"/>
			<point x="277" y="682" type="curve" smooth="yes"/>
			<point x="217" y="682"/>
			<point x="161" y="657"/>
			<point x="114" y="610" type="curve"/>
			<point x="186" y="529" type="line"/>
			<point x="211" y="554"/>
			<point x="234" y="566"/>
			<point x="260" y="566" type="curve" smooth="yes"/>
			<point x="297" y="566"/>
			<point x="321" y="544"/>
			<point x="321" y="508" type="curve" smooth="yes"/>
			<point x="321" y="416"/>
			<point x="162" y="394"/>
		</contour>
		<contour>
			<point x="163" y="-12" type="curve" smooth="yes"/>
			<point x="224" y="-12"/>
			<point x="265" y="40"/>
			<point x="265" y="92" type="curve" smooth="yes"/>
			<point x="265" y="136"/>
			<point x="235" y="170"/>
			<point x="191" y="170" type="curve" smooth="yes"/>
			<point x="130" y="170"/>
			<point x="89" y="116"/>
			<point x="89" y="66" type="curve" smooth="yes"/>
			<point x="89" y="20"/>
			<point x="119" y="-12"/>
		</contour>
	</outline>
</glyph>
<glyph name="at" format="2">
	<unicode hex="0040"/>
	<advance width="866"/>
	<outline>
		<contour>
			<point x="380" y="-171" type="curve" smooth="yes"/>
			<point x="440" y="-171"/>
			<point x="493" y="-155"/>
			<point x="548" y="-126" type="curve"/>
			<point x="513" y="-54" type="line"/>
			<point x="477" y="-75"/>
			<point x="431" y="-84"/>
			<point x="392" y="-84" type="curve" smooth="yes"/>
			<point x="266" y="-84"/>
			<point x="140" y="2"/>
			<point x="140" y="178" type="curve" smooth="yes"/>
			<point x="140" y="407"/>
			<point x="324" y="581"/>
			<point x="490" y="581" type="curve" smooth="yes"/>
			<point x="675" y="581"/>
			<point x="739" y="467"/>
			<point x="739" y="344" type="curve" smooth="yes"/>
			<point x="739" y="200"/>
			<point x="670" y="127"/>
			<point x="617" y="127" type="curve" smooth="yes"/>
			<point x="575" y="127"/>
			<point x="565" y="155"/>
			<point x="577" y="209" type="curve" smooth="yes"/>
			<point x="629" y="434" type="line"/>
			<point x="540" y="434" type="line"/>
			<point x="526" y="395" type="line"/>
			<point x="524" y="395" type="line"/>
			<point x="511" y="428"/>
			<point x="486" y="443"/>
			<point x="455" y="443" type="curve" smooth="yes"/>
			<point x="343" y="443"/>
			<point x="249" y="320"/>
			<point x="249" y="193" type="curve" smooth="yes"/>
			<point x="249" y="102"/>
			<point x="304" y="47"/>
			<point x="376" y="47" type="curve" smooth="yes"/>
			<point x="417" y="47"/>
			<point x="463" y="72"/>
			<point x="488" y="112" type="curve"/>
			<point x="492" y="112" type="line"/>
			<point x="504" y="62"/>
			<point x="545" y="38"/>
			<point x="591" y="38" type="curve" smooth="yes"/>
			<point x="721" y="38"/>
			<point x="833" y="145"/>
			<point x="833" y="358" type="curve" smooth="yes"/>
			<point x="833" y="530"/>
			<point x="713" y="666"/>
			<point x="502" y="666" type="curve" smooth="yes"/>
			<point x="259" y="666"/>
			<point x="40" y="447"/>
			<point x="40" y="162" type="curve" smooth="yes"/>
			<point x="40" y="-59"/>
			<point x="199" y="-171"/>
		</contour>
		<contour>
			<point x="405" y="137" type="curve" smooth="yes"/>
			<point x="374" y="137"/>
			<point x="357" y="160"/>
			<point x="357" y="201" type="curve" smooth="yes"/>
			<point x="357" y="264"/>
			<point x="401" y="351"/>
			<point x="458" y="351" type="curve" smooth="yes"/>
			<point x="477" y="351"/>
			<point x="490" y="342"/>
			<point x="499" y="322" type="curve"/>
			<point x="468" y="184" type="line"/>
			<point x="444" y="151"/>
			<point x="425" y="137"/>
		</contour>
	</outline>
</glyph>
<glyph name="A" format="2">
	<unicode hex="0041"/>
	<advance width="552"/>
	<outline>
		<contour>
			<point x="-63" y="0" type="line"/>
			<point x="95" y="0" type="line"/>
			<point x="259" y="350" type="line" smooth="yes"/>
			<point x="288" y="414"/>
			<point x="312" y="475"/>
			<point x="340" y="542" type="curve"/>
			<point x="344" y="542" type="line"/>
			<point x="345" y="474"/>
			<point x="348" y="414"/>
			<point x="351" y="350" type="curve" smooth="yes"/>
			<point x="365" y="0" type="line"/>
			<point x="517" y="0" type="line"/>
			<point x="452" y="651" type="line"/>
			<point x="280" y="651" type="line"/>
		</contour>
		<contour>
			<point x="109" y="159" type="line"/>
			<point x="409" y="159" type="line"/>
			<point x="434" y="268" type="line"/>
			<point x="135" y="268" type="line"/>
		</contour>
	</outline>
	<anchor name="aboveUC" x="365" y="673"/>
	<anchor name="belowLC" x="228" y="-22"/>
	<anchor name="ogonekUC" x="429" y="0"/>
</glyph>
<glyph name="B" format="2">
	<unicode hex="0042"/>
	<advance width="596"/>
	<outline>
		<contour>
			<point x="28" y="0" type="line"/>
			<point x="267" y="0" type="line" smooth="yes"/>
			<point x="420" y="0"/>
			<point x="550" y="61"/>
			<point x="550" y="215" type="curve" smooth="yes"/>
			<point x="550" y="278"/>
			<point x="511" y="318"/>
			<point x="438" y="336" type="curve"/>
			<point x="440" y="340" type="line"/>
			<point x="527" y="366"/>
			<point x="581" y="429"/>
			<point x="581" y="502" type="curve" smooth="yes"/>
			<point x="581" y="606"/>
			<point x="490" y="651"/>
			<point x="360" y="651" type="curve" smooth="yes"/>
			<point x="158" y="651" type="line"/>
		</contour>
		<contour>
			<point x="249" y="387" type="line"/>
			<point x="280" y="541" type="line"/>
			<point x="335" y="541" type="line" smooth="yes"/>
			<point x="402" y="541"/>
			<point x="433" y="518"/>
			<point x="433" y="477" type="curve" smooth="yes"/>
			<point x="433" y="423"/>
			<point x="398" y="387"/>
			<point x="311" y="387" type="curve" smooth="yes"/>
		</contour>
		<contour>
			<point x="194" y="110" type="line"/>
			<point x="229" y="289" type="line"/>
			<point x="311" y="289" type="line" smooth="yes"/>
			<point x="378" y="289"/>
			<point x="411" y="261"/>
			<point x="411" y="209" type="curve" smooth="yes"/>
			<point x="411" y="146"/>
			<point x="364" y="110"/>
			<point x="275" y="110" type="curve" smooth="yes"/>
		</contour>
	</outline>
	<anchor name="aboveUC" x="376" y="673"/>
	<anchor name="belowLC" x="268" y="-22"/>
</glyph>
<glyph name="C" format="2">
	<unicode hex="0043"/>
	<advance width="569"/>
	<outline>
		<contour>
			<point x="303" y="-12" type="curve" smooth="yes"/>
			<point x="397" y="-12"/>
			<point x="459" y="26"/>
			<point x="504" y="69" type="curve"/>
			<point x="444" y="161" type="line"/>
			<point x="412" y="133"/>
			<point x="374" y="113"/>
			<point x="329" y="113" type="curve" smooth="yes"/>
			<point x="243" y="113"/>
			<point x="204" y="173"/>
			<point x="204" y="271" type="curve" smooth="yes"/>
			<point x="204" y="415"/>
			<point x="291" y="539"/>
			<point x="392" y="539" type="curve" smooth="yes"/>
			<point x="432" y="539"/>
			<point x="466" y="523"/>
			<point x="494" y="483" type="curve"/>
			<point x="574" y="569" type="line"/>
			<point x="537" y="630"/>
			<point x="476" y="663"/>
			<point x="401" y="663" type="curve" smooth="yes"/>
			<point x="210" y="663"/>
			<point x="56" y="489"/>
			<point x="56" y="262" type="curve" smooth="yes"/>
			<point x="56" y="89"/>
			<point x="155" y="-12"/>
		</contour>
	</outline>
	<anchor name="aboveUC" x="406" y="673"/>
	<anchor name="baseLC" x="278" y="0"/>
	<anchor name="belowLC" x="269" y="-22"/>
</glyph>
<glyph name="D" format="2">
	<unicode hex="0044"/>
	<advance width="621"/>
	<outline>
		<contour>
			<point x="28" y="0" type="line"/>
			<point x="237" y="0" type="line" smooth="yes"/>
			<point x="438" y="0"/>
			<point x="595" y="142"/>
			<point x="595" y="389" type="curve" smooth="yes"/>
			<point x="595" y="568"/>
			<point x="481" y="652"/>
			<point x="307" y="652" type="curve" smooth="yes"/>
			<point x="159" y="652" type="line"/>
		</contour>
		<contour>
			<point x="188" y="110" type="line"/>
			<point x="273" y="542" type="line"/>
			<point x="304" y="542" type="line" smooth="yes"/>
			<point x="387" y="542"/>
			<point x="455" y="495"/>
			<point x="455" y="381" type="curve" smooth="yes"/>
			<point x="455" y="200"/>
			<point x="351" y="110"/>
			<point x="234" y="110" type="curve" smooth="yes"/>
		</contour>
	</outline>
	<anchor name="aboveUC" x="383" y="674"/>
	<anchor name="belowLC" x="265" y="-22"/>
</glyph>
<glyph name="E" format="2">
	<unicode hex="0045"/>
	<advance width="528"/>
	<outline>
		<contour>
			<point x="28" y="0" type="line"/>
			<point x="427" y="0" type="line"/>
			<point x="451" y="121" type="line"/>
			<point x="195" y="121" type="line"/>
			<point x="228" y="276" type="line"/>
			<point x="437" y="276" type="line"/>
			<point x="461" y="397" type="line"/>
			<point x="251" y="397" type="line"/>
			<point x="277" y="530" type="line"/>
			<point x="524" y="530" type="line"/>
			<point x="547" y="651" type="line"/>
			<point x="158" y="651" type="line"/>
		</contour>
	</outline>
	<anchor name="aboveUC" x="359" y="673"/>
	<anchor name="belowLC" x="246" y="-22"/>
	<anchor name="ogonekUC" x="346" y="0"/>
</glyph>
<glyph name="F" format="2">
	<unicode hex="0046"/>
	<advance width="504"/>
	<outline>
		<contour>
			<point x="28" y="0" type="line"/>
			<point x="166" y="0" type="line"/>
			<point x="218" y="262" type="line"/>
			<point x="431" y="262" type="line"/>
			<point x="453" y="377" type="line"/>
			<point x="241" y="377" type="line"/>
			<point x="272" y="537" type="line"/>
			<point x="523" y="537" type="line"/>
			<point x="545" y="652" type="line"/>
			<point x="159" y="652" type="line"/>
		</contour>
	</outline>
	<anchor name="aboveUC" x="358" y="674"/>
	<anchor name="belowLC" x="102" y="-22"/>
</glyph>
<glyph name="G" format="2">
	<unicode hex="0047"/>
	<advance width="611"/>
	<outline>
		<contour>
			<point x="314" y="-12" type="curve" smooth="yes"/>
			<point x="396" y="-12"/>
			<point x="468" y="17"/>
			<point x="518" y="56" type="curve"/>
			<point x="578" y="367" type="line"/>
			<point x="351" y="367" type="line"/>
			<point x="330" y="255" type="line"/>
			<point x="437" y="255" type="line"/>
			<point x="409" y="127" type="line"/>
			<point x="391" y="114"/>
			<point x="365" y="105"/>
			<point x="338" y="105" type="curve" smooth="yes"/>
			<point x="236" y="105"/>
			<point x="197" y="170"/>
			<point x="197" y="270" type="curve" smooth="yes"/>
			<point x="197" y="415"/>
			<point x="285" y="545"/>
			<point x="402" y="545" type="curve" smooth="yes"/>
			<point x="447" y="545"/>
			<point x="486" y="528"/>
			<point x="514" y="488" type="curve"/>
			<point x="590" y="570" type="line"/>
			<point x="554" y="630"/>
			<point x="489" y="664"/>
			<point x="409" y="664" type="curve" smooth="yes"/>
			<point x="208" y="664"/>
			<point x="56" y="486"/>
			<point x="56" y="261" type="curve" smooth="yes"/>
			<point x="56" y="89"/>
			<point x="153" y="-12"/>
		</contour>
	</outline>
	<anchor name="aboveUC" x="406" y="674"/>
	<anchor name="belowLC" x="295" y="-22"/>
</glyph>
<glyph name="H" format="2">
	<unicode hex="0048"/>
	<advance width="656"/>
	<outline>
		<contour>
			<point x="28" y="0" type="line"/>
			<point x="172" y="0" type="line"/>
			<point x="226" y="275" type="line"/>
			<point x="439" y="275" type="line"/>
			<point x="384" y="0" type="line"/>
			<point x="528" y="0" type="line"/>
			<point x="658" y="651" type="line"/>
			<point x="514" y="651" type="line"/>
			<point x="465" y="401" type="line"/>
			<point x="251" y="401" type="line"/>
			<point x="302" y="651" type="line"/>
			<point x="158" y="651" type="line"/>
		</contour>
	</outline>
	<anchor name="aboveUC" x="405" y="673"/>
	<anchor name="belowLC" x="286" y="-22"/>
</glyph>
<glyph name="I" format="2">
	<unicode hex="0049"/>
	<advance width="300"/>
	<outline>
		<contour>
			<point x="28" y="0" type="line"/>
			<point x="172" y="0" type="line"/>
			<point x="302" y="651" type="line"/>
			<point x="158" y="651" type="line"/>
		</contour>
	</outline>
	<anchor name="aboveUC" x="234" y="673"/>
	<anchor name="belowLC" x="103" y="-22"/>
	<anchor name="ogonekUC" x="96" y="0"/>
</glyph>
<glyph name="J" format="2">
	<unicode hex="004A"/>
	<advance width="491"/>
	<outline>
		<contour>
			<point x="176" y="-12" type="curve" smooth="yes"/>
			<point x="314" y="-12"/>
			<point x="385" y="86"/>
			<point x="408" y="204" type="curve" smooth="yes"/>
			<point x="498" y="652" type="line"/>
			<point x="361" y="652" type="line"/>
			<point x="276" y="228" type="line" smooth="yes"/>
			<point x="260" y="146"/>
			<point x="228" y="106"/>
			<point x="176" y="106" type="curve" smooth="yes"/>
			<point x="130" y="106"/>
			<point x="95" y="131"/>
			<point x="76" y="166" type="curve"/>
			<point x="-6" y="93" type="line"/>
			<point x="33" y="24"/>
			<point x="101" y="-12"/>
		</contour>
	</outline>
	<anchor name="aboveUC" x="435" y="674"/>
	<anchor name="belowLC" x="179" y="-22"/>
</glyph>
<glyph name="K" format="2">
	<unicode hex="004B"/>
	<advance width="601"/>
	<outline>
		<contour>
			<point x="28" y="0" type="line"/>
			<point x="172" y="0" type="line"/>
			<point x="210" y="188" type="line"/>
			<point x="304" y="291" type="line"/>
			<point x="406" y="0" type="line"/>
			<point x="555" y="0" type="line"/>
			<point x="411" y="382" type="line"/>
			<point x="647" y="651" type="line"/>
			<point x="489" y="651" type="line"/>
			<point x="254" y="390" type="line"/>
			<point x="250" y="390" type="line"/>
			<point x="302" y="651" type="line"/>
			<point x="158" y="651" type="line"/>
		</contour>
	</outline>
	<anchor name="aboveUC" x="395" y="673"/>
	<anchor name="belowLC" x="295" y="-22"/>
</glyph>
<glyph name="L" format="2">
	<unicode hex="004C"/>
	<advance width="504"/>
	<outline>
		<contour>
			<point x="28" y="0" type="line"/>
			<point x="416" y="0" type="line"/>
			<point x="439" y="121" type="line"/>
			<point x="196" y="121" type="line"/>
			<point x="302" y="651" type="line"/>
			<point x="158" y="651" type="line"/>
		</contour>
	</outline>
	<anchor name="aboveUC" x="253" y="673"/>
	<anchor name="belowLC" x="220" y="-22"/>
</glyph>
<glyph name="M" format="2">
	<unicode hex="004D"/>
	<advance width="740"/>
	<outline>
		<contour>
			<point x="28" y="0" type="line"/>
			<point x="156" y="0" type="line"/>
			<point x="208" y="259" type="line" smooth="yes"/>
			<point x="221" y="324"/>
			<point x="230" y="416"/>
			<point x="233" y="482" type="curve"/>
			<point x="237" y="482" type="line"/>
			<point x="258" y="327" type="line"/>
			<point x="305" y="60" type="line"/>
			<point x="361" y="60" type="line"/>
			<point x="512" y="327" type="line"/>
			<point x="594" y="482" type="line"/>
			<point x="598" y="482" type="line"/>
			<point x="576" y="417"/>
			<point x="550" y="324"/>
			<point x="537" y="259" type="curve" smooth="yes"/>
			<point x="483" y="0" type="line"/>
			<point x="611" y="0" type="line"/>
			<point x="742" y="652" type="line"/>
			<point x="595" y="652" type="line"/>
			<point x="431" y="351" type="line" smooth="yes"/>
			<point x="409" y="311"/>
			<point x="392" y="276"/>
			<point x="372" y="234" type="curve"/>
			<point x="368" y="234" type="line"/>
			<point x="362" y="276"/>
			<point x="357" y="311"/>
			<point x="351" y="351" type="curve" smooth="yes"/>
			<point x="304" y="652" type="line"/>
			<point x="159" y="652" type="line"/>
		</contour>
	</outline>
	<anchor name="aboveUC" x="445" y="674"/>
	<anchor name="belowLC" x="316" y="-29"/>
</glyph>
<glyph name="N" format="2">
	<unicode hex="004E"/>
	<advance width="643"/>
	<outline>
		<contour>
			<point x="29" y="0" type="line"/>
			<point x="159" y="0" type="line"/>
			<point x="209" y="250" type="line" smooth="yes"/>
			<point x="224" y="325"/>
			<point x="233" y="412"/>
			<point x="237" y="484" type="curve"/>
			<point x="241" y="484" type="line"/>
			<point x="251" y="429"/>
			<point x="264" y="376"/>
			<point x="274" y="341" type="curve" smooth="yes"/>
			<point x="377" y="0" type="line"/>
			<point x="514" y="0" type="line"/>
			<point x="645" y="652" type="line"/>
			<point x="514" y="652" type="line"/>
			<point x="464" y="403" type="line"/>
			<point x="449" y="328"/>
			<point x="441" y="241"/>
			<point x="436" y="169" type="curve"/>
			<point x="432" y="169" type="line"/>
			<point x="423" y="219"/>
			<point x="410" y="275"/>
			<point x="400" y="310" type="curve" smooth="yes"/>
			<point x="296" y="652" type="line"/>
			<point x="159" y="652" type="line"/>
		</contour>
	</outline>
	<anchor name="aboveUC" x="408" y="674"/>
	<anchor name="belowLC" x="276" y="-22"/>
</glyph>
<glyph name="O" format="2">
	<unicode hex="004F"/>
	<advance width="663"/>
	<outline>
		<contour>
			<point x="304" y="-12" type="curve" smooth="yes"/>
			<point x="479" y="-12"/>
			<point x="637" y="153"/>
			<point x="637" y="387" type="curve" smooth="yes"/>
			<point x="637" y="562"/>
			<point x="539" y="663"/>
			<point x="390" y="663" type="curve" smooth="yes"/>
			<point x="214" y="663"/>
			<point x="57" y="498"/>
			<point x="57" y="264" type="curve" smooth="yes"/>
			<point x="57" y="90"/>
			<point x="155" y="-12"/>
		</contour>
		<contour>
			<point x="311" y="113" type="curve" smooth="yes"/>
			<point x="243" y="113"/>
			<point x="205" y="173"/>
			<point x="205" y="273" type="curve" smooth="yes"/>
			<point x="205" y="424"/>
			<point x="296" y="539"/>
			<point x="382" y="539" type="curve" smooth="yes"/>
			<point x="451" y="539"/>
			<point x="489" y="479"/>
			<point x="489" y="378" type="curve" smooth="yes"/>
			<point x="489" y="227"/>
			<point x="398" y="113"/>
		</contour>
	</outline>
	<anchor name="aboveUC" x="408" y="673"/>
	<anchor name="belowLC" x="286" y="-22"/>
	<anchor name="hornLC" x="530" y="645"/>
	<anchor name="ogonekUC" x="290" y="0"/>
</glyph>
<glyph name="P" format="2">
	<unicode hex="0050"/>
	<advance width="583"/>
	<outline>
		<contour>
			<point x="28" y="0" type="line"/>
			<point x="166" y="0" type="line"/>
			<point x="210" y="226" type="line"/>
			<point x="287" y="226" type="line" smooth="yes"/>
			<point x="452" y="226"/>
			<point x="588" y="297"/>
			<point x="588" y="479" type="curve" smooth="yes"/>
			<point x="588" y="604"/>
			<point x="492" y="652"/>
			<point x="365" y="652" type="curve" smooth="yes"/>
			<point x="159" y="652" type="line"/>
		</contour>
		<contour>
			<point x="233" y="335" type="line"/>
			<point x="273" y="543" type="line"/>
			<point x="343" y="543" type="line" smooth="yes"/>
			<point x="413" y="543"/>
			<point x="453" y="517"/>
			<point x="453" y="459" type="curve" smooth="yes"/>
			<point x="453" y="377"/>
			<point x="399" y="335"/>
			<point x="302" y="335" type="curve" smooth="yes"/>
		</contour>
	</outline>
	<anchor name="aboveUC" x="383" y="674"/>
	<anchor name="belowLC" x="101" y="-29"/>
</glyph>
<glyph name="Q" format="2">
	<unicode hex="0051"/>
	<advance width="663"/>
	<outline>
		<contour>
			<point x="304" y="-12" type="curve" smooth="yes"/>
			<point x="479" y="-12"/>
			<point x="637" y="153"/>
			<point x="637" y="387" type="curve" smooth="yes"/>
			<point x="637" y="562"/>
			<point x="539" y="663"/>
			<point x="390" y="663" type="curve" smooth="yes"/>
			<point x="214" y="663"/>
			<point x="57" y="498"/>
			<point x="57" y="264" type="curve" smooth="yes"/>
			<point x="57" y="90"/>
			<point x="155" y="-12"/>
		</contour>
		<contour>
			<point x="311" y="107" type="curve" smooth="yes"/>
			<point x="243" y="107"/>
			<point x="205" y="166"/>
			<point x="205" y="273" type="curve" smooth="yes"/>
			<point x="205" y="424"/>
			<point x="296" y="539"/>
			<point x="382" y="539" type="curve" smooth="yes"/>
			<point x="451" y="539"/>
			<point x="489" y="479"/>
			<point x="489" y="378" type="curve" smooth="yes"/>
			<point x="489" y="220"/>
			<point x="398" y="107"/>
		</contour>
		<contour>
			<point x="479" y="-178" type="curve" smooth="yes"/>
			<point x="516" y="-178"/>
			<point x="553" y="-171"/>
			<point x="576" y="-160" type="curve"/>
			<point x="553" y="-53" type="line"/>
			<point x="534" y="-58"/>
			<point x="518" y="-62"/>
			<point x="495" y="-62" type="curve" smooth="yes"/>
			<point x="428" y="-62"/>
			<point x="362" y="-34"/>
			<point x="346" y="28" type="curve"/>
			<point x="200" y="29" type="line"/>
			<point x="244" y="-111"/>
			<point x="340" y="-178"/>
		</contour>
	</outline>
	<anchor name="aboveUC" x="408" y="673"/>
</glyph>
<glyph name="R" format="2">
	<unicode hex="0052"/>
	<advance width="601"/>
	<outline>
		<contour>
			<point x="28" y="0" type="line"/>
			<point x="172" y="0" type="line"/>
			<point x="218" y="234" type="line"/>
			<point x="297" y="234" type="line" smooth="yes"/>
			<point x="449" y="234"/>
			<point x="591" y="309"/>
			<point x="591" y="483" type="curve" smooth="yes"/>
			<point x="591" y="606"/>
			<point x="494" y="651"/>
			<point x="365" y="651" type="curve" smooth="yes"/>
			<point x="158" y="651" type="line"/>
		</contour>
		<contour>
			<point x="242" y="348" type="line"/>
			<point x="279" y="537" type="line"/>
			<point x="344" y="537" type="line" smooth="yes"/>
			<point x="411" y="537"/>
			<point x="448" y="514"/>
			<point x="448" y="461" type="curve" smooth="yes"/>
			<point x="448" y="393"/>
			<point x="401" y="348"/>
			<point x="308" y="348" type="curve" smooth="yes"/>
		</contour>
		<contour>
			<point x="375" y="0" type="line"/>
			<point x="527" y="0" type="line"/>
			<point x="386" y="361" type="line"/>
			<point x="283" y="268" type="line"/>
		</contour>
	</outline>
	<anchor name="aboveUC" x="384" y="673"/>
	<anchor name="belowLC" x="285" y="-29"/>
</glyph>
<glyph name="S" format="2">
	<unicode hex="0053"/>
	<advance width="532"/>
	<outline>
		<contour>
			<point x="238" y="-12" type="curve" smooth="yes"/>
			<point x="390" y="-12"/>
			<point x="487" y="83"/>
			<point x="487" y="201" type="curve" smooth="yes"/>
			<point x="487" y="277"/>
			<point x="459" y="316"/>
			<point x="396" y="355" type="curve" smooth="yes"/>
			<point x="334" y="393" type="line" smooth="yes"/>
			<point x="281" y="426"/>
			<point x="253" y="441"/>
			<point x="253" y="475" type="curve" smooth="yes"/>
			<point x="253" y="509"/>
			<point x="280" y="539"/>
			<point x="331" y="539" type="curve" smooth="yes"/>
			<point x="376" y="539"/>
			<point x="415" y="515"/>
			<point x="449" y="480" type="curve"/>
			<point x="530" y="563" type="line"/>
			<point x="482" y="625"/>
			<point x="410" y="663"/>
			<point x="333" y="663" type="curve" smooth="yes"/>
			<point x="209" y="663"/>
			<point x="105" y="571"/>
			<point x="105" y="458" type="curve" smooth="yes"/>
			<point x="105" y="380"/>
			<point x="145" y="332"/>
			<point x="206" y="295" type="curve" smooth="yes"/>
			<point x="262" y="260" type="line" smooth="yes"/>
			<point x="311" y="230"/>
			<point x="338" y="213"/>
			<point x="338" y="176" type="curve" smooth="yes"/>
			<point x="338" y="136"/>
			<point x="302" y="113"/>
			<point x="253" y="113" type="curve" smooth="yes"/>
			<point x="192" y="113"/>
			<point x="133" y="143"/>
			<point x="97" y="191" type="curve"/>
			<point x="11" y="110" type="line"/>
			<point x="73" y="24"/>
			<point x="158" y="-12"/>
		</contour>
	</outline>
	<anchor name="aboveUC" x="357" y="689"/>
	<anchor name="baseLC" x="236" y="0"/>
	<anchor name="belowLC" x="228" y="-29"/>
</glyph>
<glyph name="T" format="2">
	<unicode hex="0054"/>
	<advance width="534"/>
	<outline>
		<contour>
			<point x="147" y="0" type="line"/>
			<point x="291" y="0" type="line"/>
			<point x="396" y="530" type="line"/>
			<point x="565" y="530" type="line"/>
			<point x="588" y="651" type="line"/>
			<point x="106" y="651" type="line"/>
			<point x="82" y="530" type="line"/>
			<point x="251" y="530" type="line"/>
		</contour>
	</outline>
	<anchor name="aboveUC" x="348" y="673"/>
	<anchor name="baseLC" x="222" y="0"/>
	<anchor name="belowLC" x="216" y="-22"/>
</glyph>
<glyph name="U" format="2">
	<unicode hex="0055"/>
	<advance width="647"/>
	<outline>
		<contour>
			<point x="310" y="-12" type="curve" smooth="yes"/>
			<point x="452" y="-12"/>
			<point x="538" y="78"/>
			<point x="577" y="279" type="curve" smooth="yes"/>
			<point x="653" y="651" type="line"/>
			<point x="512" y="651" type="line"/>
			<point x="437" y="277" type="line" smooth="yes"/>
			<point x="414" y="159"/>
			<point x="376" y="113"/>
			<point x="314" y="113" type="curve" smooth="yes"/>
			<point x="243" y="113"/>
			<point x="219" y="150"/>
			<point x="219" y="221" type="curve" smooth="yes"/>
			<point x="219" y="245"/>
			<point x="223" y="270"/>
			<point x="228" y="296" type="curve" smooth="yes"/>
			<point x="299" y="651" type="line"/>
			<point x="154" y="651" type="line"/>
			<point x="88" y="324" type="line" smooth="yes"/>
			<point x="82" y="290"/>
			<point x="75" y="246"/>
			<point x="75" y="217" type="curve" smooth="yes"/>
			<point x="75" y="62"/>
			<point x="154" y="-12"/>
		</contour>
	</outline>
	<anchor name="aboveUC" x="415" y="673"/>
	<anchor name="belowLC" x="284" y="-22"/>
	<anchor name="hornLC" x="614" y="661"/>
	<anchor name="ogonekUC" x="284" y="0"/>
</glyph>
<glyph name="V" format="2">
	<unicode hex="0056"/>
	<advance width="561"/>
	<outline>
		<contour>
			<point x="134" y="0" type="line"/>
			<point x="308" y="0" type="line"/>
			<point x="644" y="651" type="line"/>
			<point x="486" y="651" type="line"/>
			<point x="344" y="336" type="line" smooth="yes"/>
			<point x="314" y="267"/>
			<point x="285" y="197"/>
			<point x="255" y="128" type="curve"/>
			<point x="251" y="128" type="line"/>
			<point x="250" y="197"/>
			<point x="247" y="267"/>
			<point x="245" y="336" type="curve" smooth="yes"/>
			<point x="230" y="651" type="line"/>
			<point x="79" y="651" type="line"/>
		</contour>
	</outline>
	<anchor name="aboveUC" x="362" y="673"/>
	<anchor name="belowLC" x="213" y="-29"/>
</glyph>
<glyph name="W" format="2">
	<unicode hex="0057"/>
	<advance width="794"/>
	<outline>
		<contour>
			<point x="80" y="0" type="line"/>
			<point x="250" y="0" type="line"/>
			<point x="380" y="312" type="line" smooth="yes"/>
			<point x="399" y="360"/>
			<point x="421" y="419"/>
			<point x="439" y="473" type="curve"/>
			<point x="443" y="473" type="line"/>
			<point x="438" y="417"/>
			<point x="435" y="360"/>
			<point x="434" y="312" type="curve" smooth="yes"/>
			<point x="430" y="0" type="line"/>
			<point x="600" y="0" type="line"/>
			<point x="851" y="652" type="line"/>
			<point x="720" y="652" type="line"/>
			<point x="610" y="339" type="line" smooth="yes"/>
			<point x="588" y="271"/>
			<point x="561" y="200"/>
			<point x="537" y="129" type="curve"/>
			<point x="533" y="129" type="line"/>
			<point x="536" y="200"/>
			<point x="539" y="272"/>
			<point x="540" y="339" type="curve" smooth="yes"/>
			<point x="538" y="652" type="line"/>
			<point x="422" y="652" type="line"/>
			<point x="288" y="339" type="line" smooth="yes"/>
			<point x="262" y="271"/>
			<point x="230" y="199"/>
			<point x="203" y="129" type="curve"/>
			<point x="199" y="129" type="line"/>
			<point x="207" y="199"/>
			<point x="213" y="270"/>
			<point x="219" y="339" type="curve" smooth="yes"/>
			<point x="240" y="652" type="line"/>
			<point x="100" y="652" type="line"/>
		</contour>
	</outline>
	<anchor name="aboveUC" x="483" y="674"/>
	<anchor name="belowLC" x="335" y="-29"/>
</glyph>
<glyph name="X" format="2">
	<unicode hex="0058"/>
	<advance width="552"/>
	<outline>
		<contour>
			<point x="-36" y="0" type="line"/>
			<point x="118" y="0" type="line"/>
			<point x="204" y="136" type="line" smooth="yes"/>
			<point x="224" y="170"/>
			<point x="245" y="203"/>
			<point x="267" y="242" type="curve"/>
			<point x="271" y="242" type="line"/>
			<point x="280" y="204"/>
			<point x="288" y="171"/>
			<point x="297" y="137" type="curve" smooth="yes"/>
			<point x="330" y="0" type="line"/>
			<point x="491" y="0" type="line"/>
			<point x="383" y="329" type="line"/>
			<point x="611" y="651" type="line"/>
			<point x="457" y="651" type="line"/>
			<point x="383" y="526" type="line" smooth="yes"/>
			<point x="365" y="496"/>
			<point x="344" y="462"/>
			<point x="322" y="422" type="curve"/>
			<point x="318" y="422" type="line"/>
			<point x="309" y="462"/>
			<point x="301" y="496"/>
			<point x="295" y="526" type="curve" smooth="yes"/>
			<point x="265" y="651" type="line"/>
			<point x="105" y="651" type="line"/>
			<point x="205" y="335" type="line"/>
		</contour>
	</outline>
	<anchor name="aboveUC" x="362" y="673"/>
	<anchor name="belowLC" x="233" y="-29"/>
</glyph>
<glyph name="Y" format="2">
	<unicode hex="0059"/>
	<advance width="515"/>
	<outline>
		<contour>
			<point x="137" y="0" type="line"/>
			<point x="281" y="0" type="line"/>
			<point x="328" y="233" type="line"/>
			<point x="604" y="651" type="line"/>
			<point x="448" y="651" type="line"/>
			<point x="362" y="500" type="line" smooth="yes"/>
			<point x="333" y="451"/>
			<point x="310" y="406"/>
			<point x="283" y="355" type="curve"/>
			<point x="279" y="355" type="line"/>
			<point x="270" y="406"/>
			<point x="264" y="449"/>
			<point x="255" y="499" type="curve" smooth="yes"/>
			<point x="229" y="651" type="line"/>
			<point x="80" y="651" type="line"/>
			<point x="184" y="233" type="line"/>
		</contour>
	</outline>
	<anchor name="aboveUC" x="343" y="673"/>
	<anchor name="belowLC" x="212" y="-29"/>
</glyph>
<glyph name="Z" format="1">
	<unicode hex="005A"/>
	<advance width="525"/>
	<outline>
		<contour>
			<point x="-5" y="0" type="line"/>
			<point x="445" y="0" type="line"/>
			<point x="469" y="115" type="line"/>
			<point x="186" y="115" type="line"/>
			<point x="539" y="569" type="line"/>
			<point x="556" y="652" type="line"/>
			<point x="135" y="652" type="line"/>
			<point x="112" y="537" type="line"/>
			<point x="369" y="537" type="line"/>
			<point x="13" y="82" type="line"/>
		</contour>
		<contour>
			<point name="aboveUC" x="348" y="682" type="move"/>
		</contour>
		<contour>
			<point name="belowLC" x="228" y="-29" type="move"/>
		</contour>
	</outline>
</glyph>
<glyph name="bracketleft" format="2">
	<unicode hex="005B"/>
	<advance width="334"/>
	<outline>
		<contour>
			<point x="-5" y="-152" type="line"/>
			<point x="199" y="-152" type="line"/>
			<point x="216" y="-75" type="line"/>
			<point x="118" y="-75" type="line"/>
			<point x="259" y="631" type="line"/>
			<point x="357" y="631" type="line"/>
			<point x="371" y="708" type="line"/>
			<point x="167" y="708" type="line"/>
		</contour>
	</outline>
</glyph>
<glyph name="backslash" format="2">
	<unicode hex="005C"/>
	<advance width="327"/>
	<outline>
		<contour>
			<point x="155" y="-160" type="line"/>
			<point x="250" y="-160" type="line"/>
			<point x="177" y="710" type="line"/>
			<point x="85" y="710" type="line"/>
		</contour>
	</outline>
</glyph>
<glyph name="bracketright" format="1">
	<unicode hex="005D"/>
	<advance width="330"/>
	<outline>
		<contour>
			<point x="-29" y="-152" type="line"/>
			<point x="171" y="-152" type="line"/>
			<point x="343" y="708" type="line"/>
			<point x="143" y="708" type="line"/>
			<point x="129" y="635" type="line"/>
			<point x="226" y="635" type="line"/>
			<point x="83" y="-79" type="line"/>
			<point x="-14" y="-79" type="line"/>
		</contour>
	</outline>
</glyph>
<glyph name="asciicircum" format="2">
	<unicode hex="005E"/>
	<advance width="509"/>
	<outline>
		<contour>
			<point x="71" y="274" type="line"/>
			<point x="189" y="274" type="line"/>
			<point x="232" y="403" type="line"/>
			<point x="276" y="539" type="line"/>
			<point x="280" y="539" type="line"/>
			<point x="323" y="403" type="line"/>
			<point x="366" y="274" type="line"/>
			<point x="483" y="274" type="line"/>
			<point x="334" y="670" type="line"/>
			<point x="220" y="670" type="line"/>
		</contour>
	</outline>
</glyph>
<glyph name="underscore" format="2">
	<unicode hex="005F"/>
	<advance width="481"/>
	<outline>
		<contour>
			<point x="-47" y="-138" type="line"/>
			<point x="409" y="-138" type="line"/>
			<point x="425" y="-61" type="line"/>
			<point x="-32" y="-61" type="line"/>
		</contour>
	</outline>
</glyph>
<glyph name="a" format="2">
	<unicode hex="0061"/>
	<advance width="554"/>
	<outline>
		<contour>
			<point x="170" y="-12" type="curve" smooth="yes"/>
			<point x="221" y="-12"/>
			<point x="279" y="17"/>
			<point x="324" y="64" type="curve"/>
			<point x="326" y="64" type="line"/>
			<point x="325" y="0" type="line"/>
			<point x="442" y="0" type="line"/>
			<point x="541" y="497" type="line"/>
			<point x="426" y="497" type="line"/>
			<point x="404" y="445" type="line"/>
			<point x="402" y="445" type="line"/>
			<point x="383" y="484"/>
			<point x="339" y="509"/>
			<point x="295" y="509" type="curve" smooth="yes"/>
			<point x="158" y="509"/>
			<point x="30" y="360"/>
			<point x="30" y="171" type="curve" smooth="yes"/>
			<point x="30" y="53"/>
			<point x="83" y="-12"/>
		</contour>
		<contour>
			<point x="234" y="105" type="curve" smooth="yes"/>
			<point x="201" y="105"/>
			<point x="180" y="131"/>
			<point x="180" y="189" type="curve" smooth="yes"/>
			<point x="180" y="305"/>
			<point x="240" y="392"/>
			<point x="306" y="392" type="curve" smooth="yes"/>
			<point x="327" y="392"/>
			<point x="353" y="378"/>
			<point x="368" y="347" type="curve"/>
			<point x="334" y="177" type="line"/>
			<point x="304" y="121"/>
			<point x="265" y="105"/>
		</contour>
	</outline>
	<anchor name="aboveLC" x="319" y="520"/>
	<anchor name="belowLC" x="236" y="-22"/>
	<anchor name="ogonekLC" x="354" y="0"/>
</glyph>
<glyph name="b" format="2">
	<unicode hex="0062"/>
	<advance width="555"/>
	<outline>
		<contour>
			<point x="258" y="-12" type="curve" smooth="yes"/>
			<point x="396" y="-12"/>
			<point x="524" y="138"/>
			<point x="524" y="327" type="curve" smooth="yes"/>
			<point x="524" y="444"/>
			<point x="471" y="509"/>
			<point x="384" y="509" type="curve" smooth="yes"/>
			<point x="335" y="509"/>
			<point x="285" y="487"/>
			<point x="242" y="452" type="curve"/>
			<point x="240" y="452" type="line"/>
			<point x="265" y="545" type="line"/>
			<point x="297" y="699" type="line"/>
			<point x="153" y="699" type="line"/>
			<point x="12" y="0" type="line"/>
			<point x="131" y="0" type="line"/>
			<point x="153" y="52" type="line"/>
			<point x="155" y="52" type="line"/>
			<point x="174" y="13"/>
			<point x="214" y="-12"/>
		</contour>
		<contour>
			<point x="248" y="105" type="curve" smooth="yes"/>
			<point x="225" y="105"/>
			<point x="200" y="119"/>
			<point x="187" y="150" type="curve"/>
			<point x="223" y="332" type="line"/>
			<point x="252" y="376"/>
			<point x="290" y="392"/>
			<point x="320" y="392" type="curve" smooth="yes"/>
			<point x="353" y="392"/>
			<point x="374" y="366"/>
			<point x="374" y="308" type="curve" smooth="yes"/>
			<point x="374" y="192"/>
			<point x="313" y="105"/>
		</contour>
	</outline>
	<anchor name="aboveUC" x="398" y="721"/>
	<anchor name="belowLC" x="229" y="-22"/>
</glyph>
<glyph name="c" format="2">
	<unicode hex="0063"/>
	<advance width="443"/>
	<outline>
		<contour>
			<point x="223" y="-12" type="curve" smooth="yes"/>
			<point x="298" y="-12"/>
			<point x="349" y="15"/>
			<point x="389" y="53" type="curve"/>
			<point x="332" y="130" type="line"/>
			<point x="312" y="114"/>
			<point x="286" y="98"/>
			<point x="253" y="98" type="curve" smooth="yes"/>
			<point x="199" y="98"/>
			<point x="169" y="135"/>
			<point x="169" y="195" type="curve" smooth="yes"/>
			<point x="169" y="304"/>
			<point x="235" y="398"/>
			<point x="312" y="398" type="curve" smooth="yes"/>
			<point x="342" y="398"/>
			<point x="361" y="387"/>
			<point x="380" y="369" type="curve"/>
			<point x="454" y="447" type="line"/>
			<point x="430" y="478"/>
			<point x="384" y="508"/>
			<point x="319" y="508" type="curve" smooth="yes"/>
			<point x="158" y="508"/>
			<point x="29" y="364"/>
			<point x="29" y="192" type="curve" smooth="yes"/>
			<point x="29" y="63"/>
			<point x="113" y="-12"/>
		</contour>
	</outline>
	<anchor name="aboveLC" x="300" y="518"/>
	<anchor name="aboverightLC" x="440" y="518"/>
	<anchor name="baseLC" x="208" y="0"/>
	<anchor name="belowLC" x="200" y="-22"/>
</glyph>
<glyph name="d" format="2">
	<unicode hex="0064"/>
	<advance width="547"/>
	<outline>
		<contour>
			<point x="170" y="-12" type="curve" smooth="yes"/>
			<point x="221" y="-12"/>
			<point x="279" y="17"/>
			<point x="324" y="64" type="curve"/>
			<point x="326" y="64" type="line"/>
			<point x="325" y="0" type="line"/>
			<point x="442" y="0" type="line"/>
			<point x="583" y="699" type="line"/>
			<point x="438" y="699" type="line"/>
			<point x="408" y="545" type="line"/>
			<point x="397" y="450" type="line"/>
			<point x="395" y="450" type="line"/>
			<point x="376" y="486"/>
			<point x="339" y="509"/>
			<point x="295" y="509" type="curve" smooth="yes"/>
			<point x="158" y="509"/>
			<point x="30" y="360"/>
			<point x="30" y="171" type="curve" smooth="yes"/>
			<point x="30" y="53"/>
			<point x="83" y="-12"/>
		</contour>
		<contour>
			<point x="234" y="105" type="curve" smooth="yes"/>
			<point x="201" y="105"/>
			<point x="180" y="131"/>
			<point x="180" y="189" type="curve" smooth="yes"/>
			<point x="180" y="305"/>
			<point x="240" y="392"/>
			<point x="306" y="392" type="curve" smooth="yes"/>
			<point x="327" y="392"/>
			<point x="353" y="378"/>
			<point x="368" y="347" type="curve"/>
			<point x="334" y="177" type="line"/>
			<point x="302" y="121"/>
			<point x="265" y="105"/>
		</contour>
	</outline>
	<anchor name="aboveUC" x="341" y="721"/>
	<anchor name="belowLC" x="228" y="-22"/>
</glyph>
<glyph name="e" format="1">
	<unicode hex="0065"/>
	<advance width="496"/>
	<outline>
		<contour>
			<point x="232" y="-12" type="curve" smooth="yes"/>
			<point x="309" y="-12"/>
			<point x="370" y="12"/>
			<point x="410" y="40" type="curve"/>
			<point x="362" y="126" type="line"/>
			<point x="337" y="109"/>
			<point x="301" y="91"/>
			<point x="270" y="91" type="curve" smooth="yes"/>
			<point x="205" y="91"/>
			<point x="154" y="126"/>
			<point x="159" y="212" type="curve"/>
			<point x="443" y="212" type="line"/>
			<point x="451" y="227"/>
			<point x="467" y="277"/>
			<point x="467" y="322" type="curve" smooth="yes"/>
			<point x="467" y="425"/>
			<point x="423" y="508"/>
			<point x="305" y="508" type="curve" smooth="yes"/>
			<point x="173" y="508"/>
			<point x="29" y="384"/>
			<point x="29" y="200" type="curve" smooth="yes"/>
			<point x="29" y="68"/>
			<point x="112" y="-12"/>
		</contour>
		<contour>
			<point x="170" y="296" type="line"/>
			<point x="192" y="367"/>
			<point x="241" y="403"/>
			<point x="288" y="403" type="curve" smooth="yes"/>
			<point x="338" y="403"/>
			<point x="355" y="370"/>
			<point x="355" y="330" type="curve" smooth="yes"/>
			<point x="355" y="318"/>
			<point x="353" y="305"/>
			<point x="350" y="296" type="curve"/>
		</contour>
		<contour>
			<point name="ogonekLC" x="288" y="0" type="move"/>
		</contour>
		<contour>
			<point name="aboveLC" x="316" y="518" type="move"/>
		</contour>
		<contour>
			<point name="baseLC" x="235" y="0" type="move"/>
		</contour>
		<contour>
			<point name="belowLC" x="218" y="-22" type="move"/>
		</contour>
	</outline>
</glyph>
<glyph name="f" format="2">
	<unicode hex="0066"/>
	<advance width="327"/>
	<outline>
		<contour>
			<point x="36" y="0" type="line"/>
			<point x="173" y="0" type="line"/>
			<point x="250" y="389" type="line"/>
			<point x="338" y="389" type="line"/>
			<point x="359" y="496" type="line"/>
			<point x="273" y="496" type="line"/>
			<point x="280" y="534" type="line" smooth="yes"/>
			<point x="290" y="588"/>
			<point x="313" y="604"/>
			<point x="348" y="604" type="curve" smooth="yes"/>
			<point x="366" y="604"/>
			<point x="387" y="598"/>
			<point x="398" y="591" type="curve"/>
			<point x="441" y="686" type="line"/>
			<point x="410" y="703"/>
			<point x="373" y="713"/>
			<point x="335" y="713" type="curve" smooth="yes"/>
			<point x="221" y="713"/>
			<point x="163" y="631"/>
			<point x="143" y="529" type="curve" smooth="yes"/>
			<point x="137" y="496" type="line"/>
			<point x="68" y="490" type="line"/>
			<point x="47" y="389" type="line"/>
			<point x="115" y="389" type="line"/>
		</contour>
	</outline>
	<anchor name="aboveUC" x="321" y="724"/>
	<anchor name="belowLC" x="109" y="-22"/>
	<anchor name="center" x="153" y="224"/>
</glyph>
<glyph name="g" format="2">
	<unicode hex="0067"/>
	<advance width="546"/>
	<outline>
		<contour>
			<point x="178" y="-203" type="curve" smooth="yes"/>
			<point x="314" y="-203"/>
			<point x="405" y="-136"/>
			<point x="434" y="8" type="curve" smooth="yes"/>
			<point x="531" y="496" type="line"/>
			<point x="420" y="496" type="line"/>
			<point x="399" y="443" type="line"/>
			<point x="396" y="443" type="line"/>
			<point x="377" y="483"/>
			<point x="335" y="508"/>
			<point x="290" y="508" type="curve" smooth="yes"/>
			<point x="154" y="508"/>
			<point x="31" y="367"/>
			<point x="31" y="189" type="curve" smooth="yes"/>
			<point x="31" y="72"/>
			<point x="92" y="16"/>
			<point x="176" y="16" type="curve" smooth="yes"/>
			<point x="231" y="16"/>
			<point x="284" y="42"/>
			<point x="328" y="88" type="curve"/>
			<point x="302" y="0" type="line" smooth="yes"/>
			<point x="285" y="-60"/>
			<point x="243" y="-94"/>
			<point x="181" y="-94" type="curve" smooth="yes"/>
			<point x="135" y="-94"/>
			<point x="91" y="-75"/>
			<point x="54" y="-48" type="curve"/>
			<point x="-4" y="-133" type="line"/>
			<point x="52" y="-185"/>
			<point x="120" y="-203"/>
		</contour>
		<contour>
			<point x="229" y="127" type="curve" smooth="yes"/>
			<point x="195" y="127"/>
			<point x="173" y="153"/>
			<point x="173" y="207" type="curve" smooth="yes"/>
			<point x="173" y="314"/>
			<point x="232" y="396"/>
			<point x="300" y="396" type="curve" smooth="yes"/>
			<point x="323" y="396"/>
			<point x="348" y="382"/>
			<point x="365" y="349" type="curve"/>
			<point x="334" y="192" type="line"/>
			<point x="302" y="143"/>
			<point x="262" y="127"/>
		</contour>
	</outline>
	<anchor name="aboveLC" x="310" y="518"/>
	<anchor name="belowLC" x="195" y="-189"/>
</glyph>
<glyph name="h" format="2">
	<unicode hex="0068"/>
	<advance width="550"/>
	<outline>
		<contour>
			<point x="12" y="0" type="line"/>
			<point x="156" y="0" type="line"/>
			<point x="220" y="325" type="line"/>
			<point x="260" y="367"/>
			<point x="289" y="387"/>
			<point x="319" y="387" type="curve" smooth="yes"/>
			<point x="349" y="387"/>
			<point x="366" y="370"/>
			<point x="366" y="338" type="curve" smooth="yes"/>
			<point x="366" y="325"/>
			<point x="363" y="311"/>
			<point x="358" y="292" type="curve" smooth="yes"/>
			<point x="300" y="0" type="line"/>
			<point x="444" y="0" type="line"/>
			<point x="506" y="310" type="line" smooth="yes"/>
			<point x="512" y="334"/>
			<point x="514" y="359"/>
			<point x="514" y="381" type="curve" smooth="yes"/>
			<point x="514" y="465"/>
			<point x="479" y="509"/>
			<point x="397" y="509" type="curve" smooth="yes"/>
			<point x="337" y="509"/>
			<point x="285" y="478"/>
			<point x="242" y="440" type="curve"/>
			<point x="238" y="440" type="line"/>
			<point x="260" y="523" type="line"/>
			<point x="297" y="699" type="line"/>
			<point x="153" y="699" type="line"/>
		</contour>
	</outline>
	<anchor name="aboveUC" x="396" y="721"/>
	<anchor name="belowLC" x="229" y="-22"/>
</glyph>
<glyph name="i" format="1">
	<unicode hex="0069"/>
	<advance width="265"/>
	<outline>
		<component base="dotlessi"/>
		<component base="dotaccentcmb" xOffset="80"/>
		<contour>
			<point name="ogonekLC" x="80" y="0" type="move"/>
		</contour>
		<contour>
			<point name="aboveLC" x="233" y="722" type="move"/>
		</contour>
		<contour>
			<point name="belowLC" x="89" y="-22" type="move"/>
		</contour>
	</outline>
</glyph>
<glyph name="k" format="2">
	<unicode hex="006B"/>
	<advance width="531"/>
	<outline>
		<contour>
			<point x="12" y="0" type="line"/>
			<point x="156" y="0" type="line"/>
			<point x="181" y="119" type="line"/>
			<point x="257" y="196" type="line"/>
			<point x="330" y="0" type="line"/>
			<point x="474" y="0" type="line"/>
			<point x="357" y="279" type="line"/>
			<point x="560" y="497" type="line"/>
			<point x="401" y="497" type="line"/>
			<point x="221" y="303" type="line"/>
			<point x="217" y="303" type="line"/>
			<point x="297" y="699" type="line"/>
			<point x="153" y="699" type="line"/>
		</contour>
	</outline>
	<anchor name="aboveUC" x="376" y="721"/>
	<anchor name="belowLC" x="236" y="-22"/>
</glyph>
<glyph name="l" format="2">
	<unicode hex="006C"/>
	<advance width="275"/>
	<outline>
		<contour>
			<point x="145" y="-11" type="curve" smooth="yes"/>
			<point x="172" y="-11"/>
			<point x="196" y="-4"/>
			<point x="216" y="3" type="curve"/>
			<point x="210" y="101" type="line"/>
			<point x="202" y="99"/>
			<point x="199" y="99"/>
			<point x="195" y="99" type="curve" smooth="yes"/>
			<point x="185" y="99"/>
			<point x="177" y="105"/>
			<point x="177" y="118" type="curve" smooth="yes"/>
			<point x="177" y="125"/>
			<point x="177" y="129"/>
			<point x="179" y="141" type="curve" smooth="yes"/>
			<point x="292" y="701" type="line"/>
			<point x="155" y="701" type="line"/>
			<point x="44" y="146" type="line" smooth="yes"/>
			<point x="39" y="121"/>
			<point x="37" y="103"/>
			<point x="37" y="86" type="curve" smooth="yes"/>
			<point x="37" y="25"/>
			<point x="66" y="-11"/>
		</contour>
	</outline>
	<anchor name="aboveUC" x="225" y="724"/>
	<anchor name="belowLC" x="113" y="-22"/>
	<anchor name="center" x="156" y="367"/>
</glyph>
<glyph name="m" format="2">
	<unicode hex="006D"/>
	<advance width="831"/>
	<outline>
		<contour>
			<point x="12" y="0" type="line"/>
			<point x="156" y="0" type="line"/>
			<point x="220" y="325" type="line"/>
			<point x="260" y="367"/>
			<point x="291" y="387"/>
			<point x="314" y="387" type="curve" smooth="yes"/>
			<point x="342" y="387"/>
			<point x="360" y="370"/>
			<point x="360" y="338" type="curve" smooth="yes"/>
			<point x="360" y="325"/>
			<point x="356" y="311"/>
			<point x="352" y="292" type="curve" smooth="yes"/>
			<point x="293" y="0" type="line"/>
			<point x="437" y="0" type="line"/>
			<point x="502" y="325" type="line"/>
			<point x="542" y="367"/>
			<point x="573" y="387"/>
			<point x="594" y="387" type="curve" smooth="yes"/>
			<point x="625" y="387"/>
			<point x="642" y="370"/>
			<point x="642" y="338" type="curve" smooth="yes"/>
			<point x="642" y="325"/>
			<point x="638" y="311"/>
			<point x="634" y="292" type="curve" smooth="yes"/>
			<point x="576" y="0" type="line"/>
			<point x="720" y="0" type="line"/>
			<point x="782" y="310" type="line" smooth="yes"/>
			<point x="787" y="334"/>
			<point x="790" y="359"/>
			<point x="790" y="381" type="curve" smooth="yes"/>
			<point x="790" y="465"/>
			<point x="754" y="509"/>
			<point x="672" y="509" type="curve" smooth="yes"/>
			<point x="616" y="509"/>
			<point x="559" y="473"/>
			<point x="505" y="423" type="curve"/>
			<point x="491" y="475"/>
			<point x="463" y="509"/>
			<point x="390" y="509" type="curve" smooth="yes"/>
			<point x="333" y="509"/>
			<point x="279" y="473"/>
			<point x="232" y="432" type="curve"/>
			<point x="228" y="432" type="line"/>
			<point x="229" y="497" type="line"/>
			<point x="112" y="497" type="line"/>
		</contour>
	</outline>
	<anchor name="aboveLC" x="486" y="520"/>
	<anchor name="belowLC" x="368" y="-22"/>
</glyph>
<glyph name="n" format="2">
	<unicode hex="006E"/>
	<advance width="555"/>
	<outline>
		<contour>
			<point x="12" y="0" type="line"/>
			<point x="156" y="0" type="line"/>
			<point x="220" y="325" type="line"/>
			<point x="260" y="367"/>
			<point x="289" y="387"/>
			<point x="319" y="387" type="curve" smooth="yes"/>
			<point x="349" y="387"/>
			<point x="366" y="370"/>
			<point x="366" y="338" type="curve" smooth="yes"/>
			<point x="366" y="325"/>
			<point x="363" y="311"/>
			<point x="358" y="292" type="curve" smooth="yes"/>
			<point x="300" y="0" type="line"/>
			<point x="444" y="0" type="line"/>
			<point x="506" y="310" type="line" smooth="yes"/>
			<point x="511" y="334"/>
			<point x="514" y="359"/>
			<point x="514" y="381" type="curve" smooth="yes"/>
			<point x="514" y="465"/>
			<point x="479" y="509"/>
			<point x="397" y="509" type="curve" smooth="yes"/>
			<point x="333" y="509"/>
			<point x="279" y="473"/>
			<point x="232" y="432" type="curve"/>
			<point x="228" y="432" type="line"/>
			<point x="229" y="497" type="line"/>
			<point x="112" y="497" type="line"/>
		</contour>
	</outline>
	<anchor name="aboveLC" x="355" y="520"/>
	<anchor name="belowLC" x="229" y="-22"/>
</glyph>
<glyph name="o" format="2">
	<unicode hex="006F"/>
	<advance width="533"/>
	<outline>
		<contour>
			<point x="223" y="-12" type="curve" smooth="yes"/>
			<point x="360" y="-12"/>
			<point x="503" y="112"/>
			<point x="503" y="304" type="curve" smooth="yes"/>
			<point x="503" y="427"/>
			<point x="425" y="509"/>
			<point x="308" y="509" type="curve" smooth="yes"/>
			<point x="171" y="509"/>
			<point x="28" y="386"/>
			<point x="28" y="194" type="curve" smooth="yes"/>
			<point x="28" y="70"/>
			<point x="106" y="-12"/>
		</contour>
		<contour>
			<point x="239" y="104" type="curve" smooth="yes"/>
			<point x="196" y="104"/>
			<point x="174" y="139"/>
			<point x="174" y="196" type="curve" smooth="yes"/>
			<point x="174" y="309"/>
			<point x="228" y="394"/>
			<point x="292" y="394" type="curve" smooth="yes"/>
			<point x="336" y="394"/>
			<point x="357" y="358"/>
			<point x="357" y="301" type="curve" smooth="yes"/>
			<point x="357" y="188"/>
			<point x="303" y="104"/>
		</contour>
	</outline>
	<anchor name="aboveLC" x="320" y="520"/>
	<anchor name="belowLC" x="199" y="-22"/>
	<anchor name="hornLC" x="416" y="497"/>
	<anchor name="ogonekLC" x="208" y="0"/>
</glyph>
<glyph name="p" format="2">
	<unicode hex="0070"/>
	<advance width="555"/>
	<outline>
		<contour>
			<point x="-25" y="-182" type="line"/>
			<point x="119" y="-182" type="line"/>
			<point x="145" y="-51" type="line"/>
			<point x="158" y="45" type="line"/>
			<point x="160" y="45" type="line"/>
			<point x="181" y="10"/>
			<point x="218" y="-12"/>
			<point x="258" y="-12" type="curve" smooth="yes"/>
			<point x="396" y="-12"/>
			<point x="524" y="138"/>
			<point x="524" y="327" type="curve" smooth="yes"/>
			<point x="524" y="444"/>
			<point x="471" y="509"/>
			<point x="384" y="509" type="curve" smooth="yes"/>
			<point x="333" y="509"/>
			<point x="278" y="482"/>
			<point x="233" y="441" type="curve"/>
			<point x="231" y="441" type="line"/>
			<point x="229" y="497" type="line"/>
			<point x="112" y="497" type="line"/>
		</contour>
		<contour>
			<point x="248" y="105" type="curve" smooth="yes"/>
			<point x="225" y="105"/>
			<point x="200" y="119"/>
			<point x="187" y="150" type="curve"/>
			<point x="223" y="331" type="line"/>
			<point x="252" y="376"/>
			<point x="290" y="392"/>
			<point x="320" y="392" type="curve" smooth="yes"/>
			<point x="353" y="392"/>
			<point x="374" y="366"/>
			<point x="374" y="308" type="curve" smooth="yes"/>
			<point x="374" y="192"/>
			<point x="313" y="105"/>
		</contour>
	</outline>
	<anchor name="aboveLC" x="339" y="520"/>
	<anchor name="belowLC" x="55" y="-200"/>
</glyph>
<glyph name="q" format="2">
	<unicode hex="0071"/>
	<advance width="553"/>
	<outline>
		<contour>
			<point x="261" y="-182" type="line"/>
			<point x="405" y="-182" type="line"/>
			<point x="541" y="497" type="line"/>
			<point x="426" y="497" type="line"/>
			<point x="404" y="445" type="line"/>
			<point x="402" y="445" type="line"/>
			<point x="383" y="484"/>
			<point x="339" y="509"/>
			<point x="295" y="509" type="curve" smooth="yes"/>
			<point x="158" y="509"/>
			<point x="30" y="360"/>
			<point x="30" y="171" type="curve" smooth="yes"/>
			<point x="30" y="53"/>
			<point x="83" y="-12"/>
			<point x="170" y="-12" type="curve" smooth="yes"/>
			<point x="221" y="-12"/>
			<point x="279" y="17"/>
			<point x="324" y="64" type="curve"/>
			<point x="326" y="64" type="line"/>
			<point x="288" y="-51" type="line"/>
		</contour>
		<contour>
			<point x="234" y="105" type="curve" smooth="yes"/>
			<point x="201" y="105"/>
			<point x="180" y="131"/>
			<point x="180" y="189" type="curve" smooth="yes"/>
			<point x="180" y="305"/>
			<point x="240" y="392"/>
			<point x="306" y="392" type="curve" smooth="yes"/>
			<point x="327" y="392"/>
			<point x="353" y="378"/>
			<point x="368" y="347" type="curve"/>
			<point x="334" y="177" type="line"/>
			<point x="302" y="121"/>
			<point x="265" y="105"/>
		</contour>
	</outline>
	<anchor name="aboveLC" x="329" y="520"/>
	<anchor name="belowLC" x="321" y="-200"/>
</glyph>
<glyph name="r" format="2">
	<unicode hex="0072"/>
	<advance width="389"/>
	<outline>
		<contour>
			<point x="12" y="0" type="line"/>
			<point x="156" y="0" type="line"/>
			<point x="212" y="285" type="line"/>
			<point x="250" y="354"/>
			<point x="290" y="383"/>
			<point x="333" y="383" type="curve" smooth="yes"/>
			<point x="349" y="383"/>
			<point x="370" y="383"/>
			<point x="383" y="375" type="curve"/>
			<point x="430" y="500" type="line"/>
			<point x="420" y="506"/>
			<point x="404" y="509"/>
			<point x="378" y="509" type="curve" smooth="yes"/>
			<point x="321" y="509"/>
			<point x="266" y="463"/>
			<point x="228" y="400" type="curve"/>
			<point x="224" y="400" type="line"/>
			<point x="229" y="497" type="line"/>
			<point x="112" y="497" type="line"/>
		</contour>
	</outline>
	<anchor name="aboveLC" x="284" y="520"/>
	<anchor name="belowLC" x="78" y="-22"/>
</glyph>
<glyph name="s" format="1">
	<unicode hex="0073"/>
	<advance width="424"/>
	<outline>
		<contour>
			<point x="170" y="-12" type="curve" smooth="yes"/>
			<point x="289" y="-12"/>
			<point x="376" y="54"/>
			<point x="376" y="151" type="curve" smooth="yes"/>
			<point x="376" y="221"/>
			<point x="330" y="259"/>
			<point x="272" y="290" type="curve" smooth="yes"/>
			<point x="233" y="313"/>
			<point x="190" y="328"/>
			<point x="190" y="359" type="curve" smooth="yes"/>
			<point x="190" y="385"/>
			<point x="216" y="406"/>
			<point x="253" y="406" type="curve" smooth="yes"/>
			<point x="288" y="406"/>
			<point x="317" y="386"/>
			<point x="342" y="362" type="curve"/>
			<point x="416" y="432" type="line"/>
			<point x="376" y="475"/>
			<point x="322" y="508"/>
			<point x="254" y="508" type="curve" smooth="yes"/>
			<point x="148" y="508"/>
			<point x="62" y="440"/>
			<point x="62" y="346" type="curve" smooth="yes"/>
			<point x="62" y="284"/>
			<point x="108" y="239"/>
			<point x="160" y="210" type="curve" smooth="yes"/>
			<point x="218" y="176"/>
			<point x="248" y="164"/>
			<point x="248" y="135" type="curve" smooth="yes"/>
			<point x="248" y="108"/>
			<point x="216" y="88"/>
			<point x="178" y="88" type="curve" smooth="yes"/>
			<point x="142" y="88"/>
			<point x="106" y="108"/>
			<point x="71" y="150" type="curve"/>
			<point x="-8" y="84" type="line"/>
			<point x="33" y="22"/>
			<point x="109" y="-12"/>
		</contour>
		<contour>
			<point name="aboveLC" x="266" y="518" type="move"/>
		</contour>
		<contour>
			<point name="baseLC" x="168" y="0" type="move"/>
		</contour>
		<contour>
			<point name="belowLC" x="160" y="-22" type="move"/>
		</contour>
	</outline>
</glyph>
<glyph name="t" format="2">
	<unicode hex="0074"/>
	<advance width="373"/>
	<outline>
		<contour>
			<point x="205" y="-12" type="curve" smooth="yes"/>
			<point x="255" y="-12"/>
			<point x="298" y="0"/>
			<point x="325" y="12" type="curve"/>
			<point x="299" y="109" type="line"/>
			<point x="286" y="104"/>
			<point x="271" y="100"/>
			<point x="256" y="100" type="curve" smooth="yes"/>
			<point x="227" y="100"/>
			<point x="209" y="115"/>
			<point x="209" y="147" type="curve" smooth="yes"/>
			<point x="209" y="158"/>
			<point x="210" y="168"/>
			<point x="212" y="180" type="curve" smooth="yes"/>
			<point x="253" y="385" type="line"/>
			<point x="368" y="385" type="line"/>
			<point x="389" y="497" type="line"/>
			<point x="279" y="497" type="line"/>
			<point x="307" y="648" type="line"/>
			<point x="186" y="648" type="line"/>
			<point x="140" y="497" type="line"/>
			<point x="67" y="492" type="line"/>
			<point x="45" y="385" type="line"/>
			<point x="111" y="385" type="line"/>
			<point x="69" y="186" type="line" smooth="yes"/>
			<point x="65" y="164"/>
			<point x="62" y="144"/>
			<point x="62" y="122" type="curve" smooth="yes"/>
			<point x="62" y="44"/>
			<point x="103" y="-12"/>
		</contour>
	</outline>
	<anchor name="aboveLC" x="253" y="660"/>
	<anchor name="baseLC" x="186" y="0"/>
	<anchor name="belowLC" x="176" y="-22"/>
</glyph>
<glyph name="u" format="1">
	<unicode hex="0075"/>
	<advance width="545"/>
	<outline>
		<contour>
			<point x="156" y="-12" type="curve" smooth="yes"/>
			<point x="216" y="-12"/>
			<point x="273" y="25"/>
			<point x="318" y="67" type="curve"/>
			<point x="322" y="67" type="line"/>
			<point x="320" y="0" type="line"/>
			<point x="431" y="0" type="line"/>
			<point x="529" y="496" type="line"/>
			<point x="392" y="496" type="line"/>
			<point x="328" y="169" type="line"/>
			<point x="289" y="125"/>
			<point x="258" y="105"/>
			<point x="229" y="105" type="curve" smooth="yes"/>
			<point x="197" y="105"/>
			<point x="179" y="122"/>
			<point x="179" y="156" type="curve" smooth="yes"/>
			<point x="179" y="169"/>
			<point x="182" y="183"/>
			<point x="187" y="203" type="curve" smooth="yes"/>
			<point x="245" y="496" type="line"/>
			<point x="109" y="496" type="line"/>
			<point x="47" y="186" type="line" smooth="yes"/>
			<point x="42" y="161"/>
			<point x="39" y="138"/>
			<point x="39" y="116" type="curve" smooth="yes"/>
			<point x="39" y="33"/>
			<point x="74" y="-12"/>
		</contour>
		<contour>
			<point name="aboveLC" x="318" y="518" type="move"/>
		</contour>
		<contour>
			<point name="baseLC" x="206" y="0" type="move"/>
		</contour>
		<contour>
			<point name="belowLC" x="236" y="-29" type="move"/>
		</contour>
		<contour>
			<point name="hornLC" x="470" y="506" type="move"/>
		</contour>
		<contour>
			<point name="ogonekLC" x="346" y="0" type="move"/>
		</contour>
	</outline>
</glyph>
<glyph name="v" format="2">
	<unicode hex="0076"/>
	<advance width="505"/>
	<outline>
		<contour>
			<point x="122" y="0" type="line"/>
			<point x="288" y="0" type="line"/>
			<point x="540" y="497" type="line"/>
			<point x="399" y="497" type="line"/>
			<point x="293" y="259" type="line" smooth="yes"/>
			<point x="270" y="208"/>
			<point x="249" y="158"/>
			<point x="227" y="107" type="curve"/>
			<point x="223" y="107" type="line"/>
			<point x="222" y="159"/>
			<point x="221" y="210"/>
			<point x="219" y="259" type="curve" smooth="yes"/>
			<point x="204" y="497" type="line"/>
			<point x="60" y="497" type="line"/>
		</contour>
	</outline>
	<anchor name="aboveLC" x="303" y="520"/>
	<anchor name="belowLC" x="204" y="-22"/>
</glyph>
<glyph name="w" format="1">
	<unicode hex="0077"/>
	<advance width="748"/>
	<outline>
		<contour>
			<point x="96" y="0" type="line"/>
			<point x="251" y="0" type="line"/>
			<point x="336" y="208" type="line" smooth="yes"/>
			<point x="354" y="254"/>
			<point x="369" y="301"/>
			<point x="388" y="353" type="curve"/>
			<point x="392" y="353" type="line"/>
			<point x="391" y="301"/>
			<point x="391" y="254"/>
			<point x="390" y="208" type="curve" smooth="yes"/>
			<point x="394" y="0" type="line"/>
			<point x="555" y="0" type="line"/>
			<point x="767" y="496" type="line"/>
			<point x="640" y="496" type="line"/>
			<point x="547" y="256" type="line" smooth="yes"/>
			<point x="528" y="208"/>
			<point x="513" y="159"/>
			<point x="495" y="110" type="curve"/>
			<point x="491" y="110" type="line"/>
			<point x="491" y="159"/>
			<point x="492" y="208"/>
			<point x="491" y="256" type="curve" smooth="yes"/>
			<point x="483" y="496" type="line"/>
			<point x="364" y="496" type="line"/>
			<point x="262" y="256" type="line" smooth="yes"/>
			<point x="241" y="209"/>
			<point x="224" y="159"/>
			<point x="206" y="110" type="curve"/>
			<point x="202" y="110" type="line"/>
			<point x="204" y="159"/>
			<point x="207" y="208"/>
			<point x="208" y="256" type="curve" smooth="yes"/>
			<point x="207" y="496" type="line"/>
			<point x="72" y="496" type="line"/>
		</contour>
		<contour>
			<point name="aboveLC" x="432" y="518" type="move"/>
		</contour>
		<contour>
			<point name="belowLC" x="325" y="-22" type="move"/>
		</contour>
	</outline>
</glyph>
<glyph name="x" format="2">
	<unicode hex="0078"/>
	<advance width="490"/>
	<outline>
		<contour>
			<point x="-40" y="0" type="line"/>
			<point x="107" y="0" type="line"/>
			<point x="167" y="87" type="line" smooth="yes"/>
			<point x="186" y="116"/>
			<point x="205" y="145"/>
			<point x="223" y="174" type="curve"/>
			<point x="227" y="174" type="line"/>
			<point x="236" y="145"/>
			<point x="246" y="115"/>
			<point x="255" y="87" type="curve" smooth="yes"/>
			<point x="286" y="0" type="line"/>
			<point x="426" y="0" type="line"/>
			<point x="334" y="234" type="line"/>
			<point x="528" y="496" type="line"/>
			<point x="382" y="496" type="line"/>
			<point x="331" y="410" type="line" smooth="yes"/>
			<point x="316" y="382"/>
			<point x="297" y="354"/>
			<point x="280" y="326" type="curve"/>
			<point x="276" y="326" type="line"/>
			<point x="268" y="354"/>
			<point x="260" y="381"/>
			<point x="252" y="410" type="curve" smooth="yes"/>
			<point x="222" y="496" type="line"/>
			<point x="84" y="496" type="line"/>
			<point x="170" y="265" type="line"/>
		</contour>
	</outline>
	<anchor name="aboveLC" x="299" y="518"/>
	<anchor name="belowLC" x="199" y="-22"/>
</glyph>
<glyph name="y" format="2">
	<unicode hex="0079"/>
	<advance width="505"/>
	<outline>
		<contour>
			<point x="51" y="-192" type="curve" smooth="yes"/>
			<point x="153" y="-192"/>
			<point x="222" y="-137"/>
			<point x="296" y="8" type="curve" smooth="yes"/>
			<point x="549" y="497" type="line"/>
			<point x="403" y="497" type="line"/>
			<point x="305" y="280" type="line"/>
			<point x="286" y="239"/>
			<point x="264" y="183"/>
			<point x="245" y="140" type="curve"/>
			<point x="241" y="140" type="line"/>
			<point x="240" y="183"/>
			<point x="237" y="240"/>
			<point x="233" y="280" type="curve" smooth="yes"/>
			<point x="209" y="497" type="line"/>
			<point x="62" y="497" type="line"/>
			<point x="150" y="2" type="line"/>
			<point x="142" y="-14" type="line" smooth="yes"/>
			<point x="121" y="-54"/>
			<point x="84" y="-75"/>
			<point x="50" y="-75" type="curve" smooth="yes"/>
			<point x="35" y="-75"/>
			<point x="23" y="-73"/>
			<point x="10" y="-67" type="curve"/>
			<point x="-31" y="-172" type="line"/>
			<point x="-12" y="-185"/>
			<point x="18" y="-192"/>
		</contour>
	</outline>
	<anchor name="aboveLC" x="303" y="520"/>
	<anchor name="belowLC" x="127" y="-203"/>
</glyph>
<glyph name="z" format="2">
	<unicode hex="007A"/>
	<advance width="447"/>
	<outline>
		<contour>
			<point x="-10" y="0" type="line"/>
			<point x="373" y="0" type="line"/>
			<point x="394" y="112" type="line"/>
			<point x="192" y="112" type="line"/>
			<point x="448" y="414" type="line"/>
			<point x="464" y="497" type="line"/>
			<point x="109" y="497" type="line"/>
			<point x="87" y="385" type="line"/>
			<point x="262" y="385" type="line"/>
			<point x="6" y="81" type="line"/>
		</contour>
	</outline>
	<anchor name="aboveLC" x="295" y="520"/>
	<anchor name="belowLC" x="187" y="-22"/>
</glyph>
<glyph name="braceleft" format="2">
	<unicode hex="007B"/>
	<advance width="332"/>
	<outline>
		<contour>
			<point x="142" y="-152" type="curve" smooth="yes"/>
			<point x="206" y="-152" type="line"/>
			<point x="221" y="-75" type="line"/>
			<point x="205" y="-75" type="line" smooth="yes"/>
			<point x="172" y="-75"/>
			<point x="163" y="-65"/>
			<point x="163" y="-38" type="curve" smooth="yes"/>
			<point x="163" y="17"/>
			<point x="209" y="134"/>
			<point x="209" y="201" type="curve" smooth="yes"/>
			<point x="209" y="244"/>
			<point x="190" y="263"/>
			<point x="151" y="272" type="curve"/>
			<point x="152" y="276" type="line"/>
			<point x="206" y="288"/>
			<point x="237" y="321"/>
			<point x="252" y="398" type="curve" smooth="yes"/>
			<point x="263" y="457"/>
			<point x="270" y="507"/>
			<point x="280" y="559" type="curve" smooth="yes"/>
			<point x="290" y="613"/>
			<point x="304" y="631"/>
			<point x="344" y="631" type="curve" smooth="yes"/>
			<point x="362" y="631" type="line"/>
			<point x="379" y="708" type="line"/>
			<point x="313" y="708" type="line" smooth="yes"/>
			<point x="224" y="708"/>
			<point x="187" y="673"/>
			<point x="165" y="564" type="curve" smooth="yes"/>
			<point x="151" y="495"/>
			<point x="154" y="459"/>
			<point x="142" y="397" type="curve" smooth="yes"/>
			<point x="135" y="362"/>
			<point x="110" y="322"/>
			<point x="44" y="320" type="curve"/>
			<point x="25" y="236" type="line"/>
			<point x="80" y="234"/>
			<point x="95" y="206"/>
			<point x="95" y="177" type="curve" smooth="yes"/>
			<point x="95" y="130"/>
			<point x="44" y="15"/>
			<point x="44" y="-64" type="curve" smooth="yes"/>
			<point x="44" y="-121"/>
			<point x="70" y="-152"/>
		</contour>
	</outline>
</glyph>
<glyph name="braceright" format="2">
	<unicode hex="007D"/>
	<advance width="336"/>
	<outline>
		<contour>
			<point x="-36" y="-152" type="line"/>
			<point x="30" y="-152" type="line" smooth="yes"/>
			<point x="119" y="-152"/>
			<point x="156" y="-117"/>
			<point x="178" y="-8" type="curve" smooth="yes"/>
			<point x="192" y="61"/>
			<point x="189" y="97"/>
			<point x="201" y="159" type="curve" smooth="yes"/>
			<point x="208" y="194"/>
			<point x="233" y="234"/>
			<point x="299" y="236" type="curve"/>
			<point x="317" y="320" type="line"/>
			<point x="263" y="322"/>
			<point x="247" y="350"/>
			<point x="247" y="379" type="curve" smooth="yes"/>
			<point x="247" y="426"/>
			<point x="299" y="541"/>
			<point x="299" y="620" type="curve" smooth="yes"/>
			<point x="299" y="677"/>
			<point x="272" y="708"/>
			<point x="200" y="708" type="curve" smooth="yes"/>
			<point x="137" y="708" type="line"/>
			<point x="122" y="631" type="line"/>
			<point x="138" y="631" type="line" smooth="yes"/>
			<point x="171" y="631"/>
			<point x="179" y="621"/>
			<point x="179" y="594" type="curve" smooth="yes"/>
			<point x="179" y="539"/>
			<point x="134" y="422"/>
			<point x="134" y="355" type="curve" smooth="yes"/>
			<point x="134" y="312"/>
			<point x="153" y="293"/>
			<point x="192" y="284" type="curve"/>
			<point x="191" y="280" type="line"/>
			<point x="137" y="268"/>
			<point x="106" y="235"/>
			<point x="91" y="158" type="curve" smooth="yes"/>
			<point x="79" y="99"/>
			<point x="73" y="49"/>
			<point x="63" y="-3" type="curve" smooth="yes"/>
			<point x="52" y="-57"/>
			<point x="38" y="-75"/>
			<point x="-2" y="-75" type="curve" smooth="yes"/>
			<point x="-20" y="-75" type="line"/>
		</contour>
	</outline>
</glyph>
<glyph name="asciitilde" format="2">
	<unicode hex="007E"/>
	<advance width="512"/>
	<outline>
		<contour>
			<point x="343" y="244" type="curve" smooth="yes"/>
			<point x="392" y="244"/>
			<point x="446" y="272"/>
			<point x="489" y="348" type="curve"/>
			<point x="416" y="397" type="line"/>
			<point x="397" y="360"/>
			<point x="375" y="342"/>
			<point x="349" y="342" type="curve" smooth="yes"/>
			<point x="296" y="342"/>
			<point x="259" y="418"/>
			<point x="183" y="418" type="curve" smooth="yes"/>
			<point x="135" y="418"/>
			<point x="81" y="390"/>
			<point x="38" y="314" type="curve"/>
			<point x="111" y="265" type="line"/>
			<point x="129" y="302"/>
			<point x="152" y="320"/>
			<point x="178" y="320" type="curve" smooth="yes"/>
			<point x="230" y="320"/>
			<point x="268" y="244"/>
		</contour>
	</outline>
</glyph>
<glyph name="exclamdown" format="2">
	<unicode hex="00A1"/>
	<advance width="337"/>
	<outline>
		<contour>
			<point x="17" y="-173" type="line"/>
			<point x="161" y="-173" type="line"/>
			<point x="224" y="267" type="line"/>
			<point x="129" y="267" type="line"/>
			<point x="47" y="-42" type="line"/>
		</contour>
		<contour>
			<point x="193" y="328" type="curve" smooth="yes"/>
			<point x="254" y="328"/>
			<point x="295" y="382"/>
			<point x="295" y="432" type="curve" smooth="yes"/>
			<point x="295" y="478"/>
			<point x="265" y="509"/>
			<point x="221" y="509" type="curve" smooth="yes"/>
			<point x="160" y="509"/>
			<point x="119" y="457"/>
			<point x="119" y="406" type="curve" smooth="yes"/>
			<point x="119" y="361"/>
			<point x="149" y="328"/>
		</contour>
	</outline>
</glyph>
<glyph name="cent" format="2">
	<unicode hex="00A2"/>
	<advance width="512"/>
	<outline>
		<contour>
			<point x="272" y="74" type="curve" smooth="yes"/>
			<point x="339" y="74"/>
			<point x="399" y="95"/>
			<point x="454" y="131" type="curve"/>
			<point x="410" y="224" type="line"/>
			<point x="380" y="201"/>
			<point x="348" y="190"/>
			<point x="308" y="190" type="curve" smooth="yes"/>
			<point x="247" y="190"/>
			<point x="212" y="236"/>
			<point x="212" y="308" type="curve" smooth="yes"/>
			<point x="212" y="401"/>
			<point x="275" y="469"/>
			<point x="360" y="469" type="curve" smooth="yes"/>
			<point x="393" y="469"/>
			<point x="414" y="455"/>
			<point x="439" y="432" type="curve"/>
			<point x="522" y="510" type="line"/>
			<point x="485" y="551"/>
			<point x="443" y="584"/>
			<point x="374" y="584" type="curve" smooth="yes"/>
			<point x="229" y="584"/>
			<point x="71" y="474"/>
			<point x="71" y="286" type="curve" smooth="yes"/>
			<point x="71" y="152"/>
			<point x="153" y="74"/>
		</contour>
		<contour>
			<point x="214" y="-19" type="line"/>
			<point x="293" y="-19" type="line"/>
			<point x="430" y="677" type="line"/>
			<point x="351" y="677" type="line"/>
		</contour>
	</outline>
</glyph>
<glyph name="sterling" format="2">
	<unicode hex="00A3"/>
	<advance width="512"/>
	<outline>
		<contour>
			<point x="-3" y="0" type="line"/>
			<point x="431" y="0" type="line"/>
			<point x="453" y="121" type="line"/>
			<point x="221" y="121" type="line"/>
			<point x="221" y="125" type="line"/>
			<point x="265" y="175"/>
			<point x="283" y="223"/>
			<point x="283" y="293" type="curve" smooth="yes"/>
			<point x="283" y="324"/>
			<point x="275" y="362"/>
			<point x="275" y="392" type="curve" smooth="yes"/>
			<point x="275" y="489"/>
			<point x="319" y="531"/>
			<point x="372" y="531" type="curve" smooth="yes"/>
			<point x="405" y="531"/>
			<point x="432" y="515"/>
			<point x="453" y="486" type="curve"/>
			<point x="535" y="561" type="line"/>
			<point x="501" y="614"/>
			<point x="445" y="647"/>
			<point x="379" y="647" type="curve" smooth="yes"/>
			<point x="247" y="647"/>
			<point x="141" y="553"/>
			<point x="141" y="412" type="curve" smooth="yes"/>
			<point x="141" y="371"/>
			<point x="153" y="317"/>
			<point x="153" y="277" type="curve" smooth="yes"/>
			<point x="153" y="191"/>
			<point x="100" y="125"/>
			<point x="16" y="88" type="curve"/>
		</contour>
		<contour>
			<point x="57" y="266" type="line"/>
			<point x="402" y="266" type="line"/>
			<point x="422" y="370" type="line"/>
			<point x="151" y="370" type="line"/>
			<point x="75" y="364" type="line"/>
		</contour>
	</outline>
</glyph>
<glyph name="currency" format="2">
	<unicode hex="00A4"/>
	<advance width="509"/>
	<outline>
		<contour>
			<point x="66" y="94" type="line"/>
			<point x="138" y="156" type="line"/>
			<point x="165" y="139"/>
			<point x="198" y="131"/>
			<point x="235" y="131" type="curve" smooth="yes"/>
			<point x="273" y="131"/>
			<point x="311" y="140"/>
			<point x="346" y="159" type="curve"/>
			<point x="399" y="93" type="line"/>
			<point x="472" y="156" type="line"/>
			<point x="423" y="216" type="line"/>
			<point x="458" y="254"/>
			<point x="480" y="305"/>
			<point x="480" y="365" type="curve" smooth="yes"/>
			<point x="480" y="393"/>
			<point x="474" y="417"/>
			<point x="464" y="439" type="curve"/>
			<point x="530" y="496" type="line"/>
			<point x="471" y="566" type="line"/>
			<point x="400" y="504" type="line"/>
			<point x="373" y="520"/>
			<point x="339" y="530"/>
			<point x="301" y="530" type="curve" smooth="yes"/>
			<point x="263" y="530"/>
			<point x="226" y="520"/>
			<point x="192" y="502" type="curve"/>
			<point x="141" y="565" type="line"/>
			<point x="69" y="503" type="line"/>
			<point x="114" y="446" type="line"/>
			<point x="79" y="407"/>
			<point x="56" y="356"/>
			<point x="56" y="296" type="curve" smooth="yes"/>
			<point x="56" y="267"/>
			<point x="62" y="241"/>
			<point x="73" y="220" type="curve"/>
			<point x="7" y="164" type="line"/>
		</contour>
		<contour>
			<point x="250" y="228" type="curve" smooth="yes"/>
			<point x="208" y="228"/>
			<point x="181" y="257"/>
			<point x="181" y="307" type="curve" smooth="yes"/>
			<point x="181" y="380"/>
			<point x="233" y="433"/>
			<point x="286" y="433" type="curve" smooth="yes"/>
			<point x="328" y="433"/>
			<point x="355" y="405"/>
			<point x="355" y="354" type="curve" smooth="yes"/>
			<point x="355" y="281"/>
			<point x="303" y="228"/>
		</contour>
	</outline>
</glyph>
<glyph name="yen" format="2">
	<unicode hex="00A5"/>
	<advance width="509"/>
	<outline>
		<contour>
			<point x="136" y="0" type="line"/>
			<point x="271" y="0" type="line"/>
			<point x="300" y="145" type="line"/>
			<point x="448" y="145" type="line"/>
			<point x="462" y="214" type="line"/>
			<point x="314" y="214" type="line"/>
			<point x="326" y="272" type="line"/>
			<point x="474" y="272" type="line"/>
			<point x="488" y="342" type="line"/>
			<point x="371" y="342" type="line"/>
			<point x="570" y="636" type="line"/>
			<point x="431" y="636" type="line"/>
			<point x="354" y="496" type="line"/>
			<point x="329" y="452"/>
			<point x="304" y="407"/>
			<point x="279" y="362" type="curve"/>
			<point x="276" y="362" type="line"/>
			<point x="268" y="407"/>
			<point x="261" y="451"/>
			<point x="255" y="496" type="curve" smooth="yes"/>
			<point x="232" y="636" type="line"/>
			<point x="92" y="636" type="line"/>
			<point x="172" y="342" type="line"/>
			<point x="57" y="342" type="line"/>
			<point x="42" y="272" type="line"/>
			<point x="190" y="272" type="line"/>
			<point x="179" y="214" type="line"/>
			<point x="31" y="214" type="line"/>
			<point x="17" y="145" type="line"/>
			<point x="165" y="145" type="line"/>
		</contour>
	</outline>
</glyph>
<glyph name="brokenbar" format="2">
	<unicode hex="00A6"/>
	<advance width="255"/>
	<outline>
		<contour>
			<point x="88" y="309" type="line"/>
			<point x="174" y="309" type="line"/>
			<point x="174" y="750" type="line"/>
			<point x="88" y="750" type="line"/>
		</contour>
		<contour>
			<point x="88" y="-250" type="line"/>
			<point x="174" y="-250" type="line"/>
			<point x="174" y="205" type="line"/>
			<point x="88" y="205" type="line"/>
		</contour>
	</outline>
</glyph>
<glyph name="section" format="2">
	<unicode hex="00A7"/>
	<advance width="509"/>
	<outline>
		<contour>
			<point x="352" y="124" type="line"/>
			<point x="430" y="158"/>
			<point x="480" y="209"/>
			<point x="480" y="292" type="curve" smooth="yes"/>
			<point x="480" y="440"/>
			<point x="265" y="475"/>
			<point x="265" y="539" type="curve" smooth="yes"/>
			<point x="265" y="567"/>
			<point x="287" y="582"/>
			<point x="314" y="582" type="curve" smooth="yes"/>
			<point x="353" y="582"/>
			<point x="388" y="556"/>
			<point x="414" y="530" type="curve"/>
			<point x="487" y="610" type="line"/>
			<point x="439" y="660"/>
			<point x="377" y="691"/>
			<point x="314" y="691" type="curve" smooth="yes"/>
			<point x="207" y="691"/>
			<point x="135" y="620"/>
			<point x="135" y="524" type="curve" smooth="yes"/>
			<point x="135" y="383"/>
			<point x="355" y="360"/>
			<point x="355" y="275" type="curve" smooth="yes"/>
			<point x="355" y="228"/>
			<point x="326" y="206"/>
			<point x="280" y="194" type="curve"/>
		</contour>
		<contour>
			<point x="193" y="-83" type="curve" smooth="yes"/>
			<point x="309" y="-83"/>
			<point x="386" y="-15"/>
			<point x="386" y="87" type="curve" smooth="yes"/>
			<point x="386" y="229"/>
			<point x="171" y="246"/>
			<point x="171" y="333" type="curve" smooth="yes"/>
			<point x="171" y="379"/>
			<point x="208" y="403"/>
			<point x="248" y="413" type="curve"/>
			<point x="187" y="477" type="line"/>
			<point x="109" y="453"/>
			<point x="48" y="396"/>
			<point x="48" y="316" type="curve" smooth="yes"/>
			<point x="48" y="163"/>
			<point x="256" y="139"/>
			<point x="256" y="70" type="curve" smooth="yes"/>
			<point x="256" y="42"/>
			<point x="236" y="24"/>
			<point x="201" y="24" type="curve" smooth="yes"/>
			<point x="153" y="24"/>
			<point x="103" y="59"/>
			<point x="71" y="92" type="curve"/>
			<point x="0" y="3" type="line"/>
			<point x="54" y="-51"/>
			<point x="129" y="-83"/>
		</contour>
	</outline>
</glyph>
<glyph name="copyright" format="2">
	<unicode hex="00A9"/>
	<advance width="672"/>
	<outline>
		<contour>
			<point x="298" y="-8" type="curve" smooth="yes"/>
			<point x="518" y="-8"/>
			<point x="673" y="165"/>
			<point x="673" y="378" type="curve" smooth="yes"/>
			<point x="673" y="538"/>
			<point x="560" y="656"/>
			<point x="405" y="656" type="curve" smooth="yes"/>
			<point x="185" y="656"/>
			<point x="29" y="482"/>
			<point x="29" y="269" type="curve" smooth="yes"/>
			<point x="29" y="109"/>
			<point x="142" y="-8"/>
		</contour>
		<contour>
			<point x="304" y="54" type="curve" smooth="yes"/>
			<point x="167" y="54"/>
			<point x="96" y="156"/>
			<point x="96" y="275" type="curve" smooth="yes"/>
			<point x="96" y="448"/>
			<point x="227" y="593"/>
			<point x="399" y="593" type="curve" smooth="yes"/>
			<point x="536" y="593"/>
			<point x="607" y="491"/>
			<point x="607" y="372" type="curve" smooth="yes"/>
			<point x="607" y="199"/>
			<point x="475" y="54"/>
		</contour>
		<contour>
			<point x="331" y="128" type="curve" smooth="yes"/>
			<point x="377" y="128"/>
			<point x="423" y="142"/>
			<point x="465" y="176" type="curve"/>
			<point x="424" y="238" type="line"/>
			<point x="397" y="220"/>
			<point x="381" y="212"/>
			<point x="354" y="212" type="curve" smooth="yes"/>
			<point x="305" y="212"/>
			<point x="277" y="243"/>
			<point x="277" y="296" type="curve" smooth="yes"/>
			<point x="277" y="375"/>
			<point x="334" y="431"/>
			<point x="384" y="431" type="curve" smooth="yes"/>
			<point x="404" y="431"/>
			<point x="422" y="424"/>
			<point x="438" y="406" type="curve"/>
			<point x="499" y="464" type="line"/>
			<point x="479" y="488"/>
			<point x="442" y="515"/>
			<point x="396" y="515" type="curve" smooth="yes"/>
			<point x="292" y="515"/>
			<point x="173" y="425"/>
			<point x="173" y="283" type="curve" smooth="yes"/>
			<point x="173" y="186"/>
			<point x="237" y="128"/>
		</contour>
	</outline>
</glyph>
<glyph name="logicalnot" format="1">
	<unicode hex="00AC"/>
	<advance width="509"/>
	<outline>
		<contour>
			<point x="387" y="95" type="line"/>
			<point x="485" y="95" type="line"/>
			<point x="485" y="379" type="line"/>
			<point x="48" y="379" type="line"/>
			<point x="48" y="282" type="line"/>
			<point x="387" y="282" type="line"/>
		</contour>
	</outline>
</glyph>
<glyph name="registered" format="2">
	<unicode hex="00AE"/>
	<advance width="448"/>
	<outline>
		<contour>
			<point x="257" y="311" type="curve" smooth="yes"/>
			<point x="381" y="311"/>
			<point x="467" y="422"/>
			<point x="467" y="537" type="curve" smooth="yes"/>
			<point x="465" y="640"/>
			<point x="384" y="715"/>
			<point x="291" y="715" type="curve" smooth="yes"/>
			<point x="166" y="715"/>
			<point x="82" y="604"/>
			<point x="82" y="489" type="curve" smooth="yes"/>
			<point x="82" y="385"/>
			<point x="162" y="311"/>
		</contour>
		<contour>
			<point x="261" y="360" type="curve" smooth="yes"/>
			<point x="184" y="360"/>
			<point x="134" y="418"/>
			<point x="134" y="493" type="curve" smooth="yes"/>
			<point x="134" y="585"/>
			<point x="198" y="666"/>
			<point x="288" y="666" type="curve" smooth="yes"/>
			<point x="364" y="666"/>
			<point x="414" y="608"/>
			<point x="414" y="533" type="curve" smooth="yes"/>
			<point x="414" y="440"/>
			<point x="350" y="360"/>
		</contour>
		<contour>
			<point x="178" y="416" type="line"/>
			<point x="234" y="416" type="line"/>
			<point x="246" y="476" type="line"/>
			<point x="272" y="476" type="line"/>
			<point x="289" y="416" type="line"/>
			<point x="346" y="416" type="line"/>
			<point x="321" y="489" type="line"/>
			<point x="352" y="501"/>
			<point x="369" y="527"/>
			<point x="369" y="554" type="curve" smooth="yes"/>
			<point x="369" y="590"/>
			<point x="342" y="612"/>
			<point x="302" y="612" type="curve" smooth="yes"/>
			<point x="218" y="612" type="line"/>
		</contour>
		<contour>
			<point x="254" y="516" type="line"/>
			<point x="264" y="570" type="line"/>
			<point x="282" y="570" type="line" smooth="yes"/>
			<point x="301" y="570"/>
			<point x="308" y="561"/>
			<point x="308" y="548" type="curve" smooth="yes"/>
			<point x="308" y="530"/>
			<point x="295" y="516"/>
			<point x="269" y="516" type="curve" smooth="yes"/>
		</contour>
	</outline>
</glyph>
<glyph name="degree" format="2">
	<unicode hex="00B0"/>
	<advance width="353"/>
	<outline>
		<contour>
			<point x="221" y="400" type="curve" smooth="yes"/>
			<point x="302" y="400"/>
			<point x="375" y="470"/>
			<point x="375" y="558" type="curve" smooth="yes"/>
			<point x="375" y="635"/>
			<point x="323" y="686"/>
			<point x="248" y="686" type="curve" smooth="yes"/>
			<point x="167" y="686"/>
			<point x="94" y="615"/>
			<point x="94" y="528" type="curve" smooth="yes"/>
			<point x="94" y="450"/>
			<point x="146" y="400"/>
		</contour>
		<contour>
			<point x="226" y="469" type="curve" smooth="yes"/>
			<point x="190" y="469"/>
			<point x="171" y="496"/>
			<point x="171" y="528" type="curve" smooth="yes"/>
			<point x="171" y="575"/>
			<point x="199" y="616"/>
			<point x="243" y="616" type="curve" smooth="yes"/>
			<point x="279" y="616"/>
			<point x="298" y="589"/>
			<point x="298" y="557" type="curve" smooth="yes"/>
			<point x="298" y="511"/>
			<point x="270" y="469"/>
		</contour>
	</outline>
</glyph>
<glyph name="plusminus" format="2">
	<unicode hex="00B1"/>
	<advance width="512"/>
	<outline>
		<contour>
			<point x="214" y="158" type="line"/>
			<point x="319" y="158" type="line"/>
			<point x="319" y="311" type="line"/>
			<point x="489" y="311" type="line"/>
			<point x="489" y="413" type="line"/>
			<point x="321" y="413" type="line"/>
			<point x="321" y="565" type="line"/>
			<point x="216" y="565" type="line"/>
			<point x="216" y="413" type="line"/>
			<point x="48" y="413" type="line"/>
			<point x="48" y="311" type="line"/>
			<point x="214" y="311" type="line"/>
		</contour>
		<contour>
			<point x="48" y="0" type="line"/>
			<point x="489" y="0" type="line"/>
			<point x="489" y="102" type="line"/>
			<point x="48" y="102" type="line"/>
		</contour>
	</outline>
</glyph>
<glyph name="mu" format="2">
	<unicode hex="00B5"/>
	<unicode hex="03BC"/>
	<advance width="554"/>
	<outline>
		<contour>
			<point x="-22" y="-177" type="line"/>
			<point x="116" y="-177" type="line"/>
			<point x="122" y="-109"/>
			<point x="130" y="-53"/>
			<point x="146" y="24" type="curve"/>
			<point x="160" y="-2"/>
			<point x="187" y="-10"/>
			<point x="213" y="-10" type="curve" smooth="yes"/>
			<point x="252" y="-10"/>
			<point x="300" y="10"/>
			<point x="331" y="70" type="curve"/>
			<point x="335" y="70" type="line"/>
			<point x="334" y="64"/>
			<point x="334" y="63"/>
			<point x="334" y="60" type="curve" smooth="yes"/>
			<point x="335" y="16"/>
			<point x="364" y="-11"/>
			<point x="432" y="-11" type="curve" smooth="yes"/>
			<point x="460" y="-11"/>
			<point x="481" y="-6"/>
			<point x="496" y="0" type="curve"/>
			<point x="500" y="101" type="line"/>
			<point x="493" y="99"/>
			<point x="483" y="99"/>
			<point x="477" y="99" type="curve" smooth="yes"/>
			<point x="463" y="99"/>
			<point x="452" y="104"/>
			<point x="452" y="125" type="curve" smooth="yes"/>
			<point x="452" y="151"/>
			<point x="485" y="295"/>
			<point x="536" y="496" type="curve"/>
			<point x="398" y="496" type="line"/>
			<point x="335" y="178" type="line"/>
			<point x="298" y="122"/>
			<point x="265" y="103"/>
			<point x="234" y="103" type="curve" smooth="yes"/>
			<point x="203" y="103"/>
			<point x="184" y="116"/>
			<point x="184" y="155" type="curve" smooth="yes"/>
			<point x="184" y="165"/>
			<point x="186" y="187"/>
			<point x="190" y="206" type="curve" smooth="yes"/>
			<point x="250" y="496" type="line"/>
			<point x="114" y="496" type="line"/>
		</contour>
	</outline>
	<anchor name="aboveLC" x="325" y="518"/>
	<anchor name="belowLC" x="241" y="-182"/>
</glyph>
<glyph name="paragraph" format="2">
	<unicode hex="00B6"/>
	<advance width="617"/>
	<outline>
		<contour>
			<point x="316" y="-80" type="line"/>
			<point x="460" y="-80" type="line"/>
			<point x="605" y="651" type="line"/>
			<point x="461" y="651" type="line"/>
		</contour>
		<contour>
			<point x="284" y="197" type="curve" smooth="yes"/>
			<point x="316" y="197" type="line"/>
			<point x="407" y="651" type="line"/>
			<point x="364" y="651" type="line" smooth="yes"/>
			<point x="209" y="651"/>
			<point x="69" y="571"/>
			<point x="69" y="381" type="curve" smooth="yes"/>
			<point x="69" y="262"/>
			<point x="169" y="197"/>
		</contour>
	</outline>
</glyph>
<glyph name="questiondown" format="2">
	<unicode hex="00BF"/>
	<advance width="449"/>
	<outline>
		<contour>
			<point x="184" y="-184" type="curve" smooth="yes"/>
			<point x="244" y="-184"/>
			<point x="300" y="-159"/>
			<point x="347" y="-113" type="curve"/>
			<point x="275" y="-31" type="line"/>
			<point x="250" y="-57"/>
			<point x="227" y="-69"/>
			<point x="201" y="-69" type="curve" smooth="yes"/>
			<point x="164" y="-69"/>
			<point x="140" y="-46"/>
			<point x="140" y="-10" type="curve" smooth="yes"/>
			<point x="140" y="82"/>
			<point x="299" y="103"/>
			<point x="315" y="262" type="curve"/>
			<point x="192" y="273" type="line"/>
			<point x="172" y="138"/>
			<point x="-1" y="124"/>
			<point x="-1" y="-32" type="curve" smooth="yes"/>
			<point x="-1" y="-128"/>
			<point x="74" y="-184"/>
		</contour>
		<contour>
			<point x="270" y="328" type="curve" smooth="yes"/>
			<point x="331" y="328"/>
			<point x="372" y="382"/>
			<point x="372" y="432" type="curve" smooth="yes"/>
			<point x="372" y="478"/>
			<point x="342" y="510"/>
			<point x="298" y="510" type="curve" smooth="yes"/>
			<point x="237" y="510"/>
			<point x="196" y="458"/>
			<point x="196" y="406" type="curve" smooth="yes"/>
			<point x="196" y="361"/>
			<point x="226" y="328"/>
		</contour>
	</outline>
</glyph>
<glyph name="AE" format="2">
	<unicode hex="00C6"/>
	<advance width="843"/>
	<outline>
		<contour>
			<point x="-36" y="0" type="line"/>
			<point x="127" y="0" type="line"/>
			<point x="343" y="364" type="line" smooth="yes"/>
			<point x="381" y="426"/>
			<point x="417" y="483"/>
			<point x="455" y="548" type="curve"/>
			<point x="459" y="548" type="line"/>
			<point x="349" y="0" type="line"/>
			<point x="740" y="0" type="line"/>
			<point x="763" y="121" type="line"/>
			<point x="517" y="121" type="line"/>
			<point x="549" y="276" type="line"/>
			<point x="750" y="276" type="line"/>
			<point x="773" y="397" type="line"/>
			<point x="573" y="397" type="line"/>
			<point x="599" y="530" type="line"/>
			<point x="837" y="530" type="line"/>
			<point x="860" y="651" type="line"/>
			<point x="382" y="651" type="line"/>
		</contour>
		<contour>
			<point x="140" y="150" type="line"/>
			<point x="454" y="150" type="line"/>
			<point x="476" y="263" type="line"/>
			<point x="164" y="263" type="line"/>
		</contour>
	</outline>
	<anchor name="aboveUC" x="620" y="673"/>
</glyph>
<glyph name="Eth" format="2">
	<unicode hex="00D0"/>
	<advance width="639"/>
	<outline>
		<contour>
			<point x="36" y="300" type="line"/>
			<point x="367" y="300" type="line"/>
			<point x="383" y="379" type="line"/>
			<point x="124" y="379" type="line"/>
			<point x="52" y="374" type="line"/>
		</contour>
		<component base="D" xOffset="18"/>
	</outline>
</glyph>
<glyph name="multiply" format="2">
	<unicode hex="00D7"/>
	<advance width="512"/>
	<outline>
		<contour>
			<point x="133" y="118" type="line"/>
			<point x="268" y="259" type="line"/>
			<point x="404" y="118" type="line"/>
			<point x="474" y="189" type="line"/>
			<point x="339" y="330" type="line"/>
			<point x="474" y="471" type="line"/>
			<point x="404" y="542" type="line"/>
			<point x="268" y="401" type="line"/>
			<point x="133" y="542" type="line"/>
			<point x="62" y="471" type="line"/>
			<point x="198" y="330" type="line"/>
			<point x="62" y="189" type="line"/>
		</contour>
	</outline>
</glyph>
<glyph name="Oslash" format="2">
	<unicode hex="00D8"/>
	<advance width="660"/>
	<outline>
		<contour>
			<point x="54" y="-42" type="line"/>
			<point x="714" y="640" type="line"/>
			<point x="648" y="700" type="line"/>
			<point x="-11" y="18" type="line"/>
		</contour>
		<component base="O"/>
	</outline>
	<anchor name="aboveUC" x="406" y="674"/>
</glyph>
<glyph name="Thorn" format="2">
	<unicode hex="00DE"/>
	<advance width="599"/>
	<outline>
		<contour>
			<point x="28" y="0" type="line"/>
			<point x="170" y="0" type="line"/>
			<point x="195" y="128" type="line"/>
			<point x="272" y="128" type="line" smooth="yes"/>
			<point x="435" y="128"/>
			<point x="576" y="198"/>
			<point x="576" y="382" type="curve" smooth="yes"/>
			<point x="576" y="509"/>
			<point x="485" y="557"/>
			<point x="367" y="557" type="curve" smooth="yes"/>
			<point x="282" y="557" type="line"/>
			<point x="302" y="660" type="line"/>
			<point x="158" y="660" type="line"/>
		</contour>
		<contour>
			<point x="219" y="242" type="line"/>
			<point x="258" y="443" type="line"/>
			<point x="336" y="443" type="line" smooth="yes"/>
			<point x="398" y="443"/>
			<point x="434" y="418"/>
			<point x="434" y="361" type="curve" smooth="yes"/>
			<point x="434" y="283"/>
			<point x="381" y="242"/>
			<point x="287" y="242" type="curve" smooth="yes"/>
		</contour>
	</outline>
</glyph>
<glyph name="germandbls" format="2">
	<unicode hex="00DF"/>
	<advance width="609"/>
	<outline>
		<contour>
			<point x="374" y="-12" type="curve" smooth="yes"/>
			<point x="479" y="-12"/>
			<point x="561" y="65"/>
			<point x="561" y="163" type="curve" smooth="yes"/>
			<point x="561" y="279"/>
			<point x="441" y="307"/>
			<point x="441" y="360" type="curve" smooth="yes"/>
			<point x="441" y="416"/>
			<point x="565" y="449"/>
			<point x="565" y="563" type="curve" smooth="yes"/>
			<point x="565" y="667"/>
			<point x="469" y="713"/>
			<point x="369" y="713" type="curve" smooth="yes"/>
			<point x="228" y="713"/>
			<point x="139" y="623"/>
			<point x="116" y="505" type="curve" smooth="yes"/>
			<point x="14" y="0" type="line"/>
			<point x="151" y="0" type="line"/>
			<point x="247" y="479" type="line" smooth="yes"/>
			<point x="261" y="549"/>
			<point x="305" y="604"/>
			<point x="364" y="604" type="curve" smooth="yes"/>
			<point x="413" y="604"/>
			<point x="433" y="581"/>
			<point x="433" y="543" type="curve" smooth="yes"/>
			<point x="433" y="456"/>
			<point x="308" y="432"/>
			<point x="308" y="341" type="curve" smooth="yes"/>
			<point x="308" y="239"/>
			<point x="434" y="216"/>
			<point x="434" y="149" type="curve" smooth="yes"/>
			<point x="434" y="114"/>
			<point x="409" y="90"/>
			<point x="373" y="90" type="curve" smooth="yes"/>
			<point x="337" y="90"/>
			<point x="307" y="101"/>
			<point x="281" y="119" type="curve"/>
			<point x="234" y="34" type="line"/>
			<point x="275" y="-1"/>
			<point x="325" y="-12"/>
		</contour>
	</outline>
</glyph>
<glyph name="ae" format="2">
	<unicode hex="00E6"/>
	<advance width="754"/>
	<outline>
		<contour>
			<point x="155" y="-12" type="curve" smooth="yes"/>
			<point x="227" y="-12"/>
			<point x="284" y="18"/>
			<point x="343" y="69" type="curve"/>
			<point x="370" y="24"/>
			<point x="430" y="-12"/>
			<point x="500" y="-12" type="curve" smooth="yes"/>
			<point x="569" y="-12"/>
			<point x="628" y="10"/>
			<point x="669" y="43" type="curve"/>
			<point x="623" y="124" type="line"/>
			<point x="599" y="106"/>
			<point x="561" y="93"/>
			<point x="529" y="93" type="curve" smooth="yes"/>
			<point x="466" y="93"/>
			<point x="422" y="129"/>
			<point x="428" y="209" type="curve"/>
			<point x="702" y="209" type="line"/>
			<point x="709" y="224"/>
			<point x="725" y="275"/>
			<point x="725" y="322" type="curve" smooth="yes"/>
			<point x="725" y="425"/>
			<point x="682" y="508"/>
			<point x="563" y="508" type="curve" smooth="yes"/>
			<point x="512" y="508"/>
			<point x="459" y="484"/>
			<point x="416" y="441" type="curve"/>
			<point x="394" y="488"/>
			<point x="343" y="508"/>
			<point x="277" y="508" type="curve" smooth="yes"/>
			<point x="225" y="508"/>
			<point x="153" y="486"/>
			<point x="99" y="458" type="curve"/>
			<point x="141" y="364" type="line"/>
			<point x="187" y="388"/>
			<point x="226" y="401"/>
			<point x="260" y="401" type="curve" smooth="yes"/>
			<point x="305" y="401"/>
			<point x="329" y="380"/>
			<point x="329" y="331" type="curve" smooth="yes"/>
			<point x="329" y="324"/>
			<point x="327" y="318"/>
			<point x="326" y="310" type="curve"/>
			<point x="157" y="306"/>
			<point x="22" y="257"/>
			<point x="22" y="112" type="curve" smooth="yes"/>
			<point x="22" y="36"/>
			<point x="80" y="-12"/>
		</contour>
		<contour>
			<point x="210" y="93" type="curve" smooth="yes"/>
			<point x="178" y="93"/>
			<point x="155" y="110"/>
			<point x="155" y="139" type="curve" smooth="yes"/>
			<point x="155" y="189"/>
			<point x="204" y="224"/>
			<point x="308" y="227" type="curve"/>
			<point x="305" y="198"/>
			<point x="306" y="176"/>
			<point x="309" y="152" type="curve"/>
			<point x="275" y="112"/>
			<point x="239" y="93"/>
		</contour>
		<contour>
			<point x="439" y="299" type="line"/>
			<point x="462" y="367"/>
			<point x="505" y="403"/>
			<point x="546" y="403" type="curve" smooth="yes"/>
			<point x="596" y="403"/>
			<point x="613" y="370"/>
			<point x="613" y="330" type="curve" smooth="yes"/>
			<point x="613" y="318"/>
			<point x="611" y="310"/>
			<point x="609" y="299" type="curve"/>
		</contour>
	</outline>
	<anchor name="aboveLC" x="440" y="522"/>
	<anchor name="belowLC" x="340" y="-22"/>
</glyph>
<glyph name="eth" format="2">
	<unicode hex="00F0"/>
	<advance width="549"/>
	<outline>
		<contour>
			<point x="225" y="-12" type="curve" smooth="yes"/>
			<point x="388" y="-12"/>
			<point x="506" y="139"/>
			<point x="506" y="370" type="curve" smooth="yes"/>
			<point x="506" y="542"/>
			<point x="402" y="664"/>
			<point x="238" y="740" type="curve"/>
			<point x="171" y="661" type="line"/>
			<point x="320" y="584"/>
			<point x="371" y="496"/>
			<point x="371" y="356" type="curve" smooth="yes"/>
			<point x="371" y="194"/>
			<point x="314" y="98"/>
			<point x="242" y="98" type="curve" smooth="yes"/>
			<point x="195" y="98"/>
			<point x="167" y="141"/>
			<point x="167" y="193" type="curve" smooth="yes"/>
			<point x="167" y="269"/>
			<point x="208" y="351"/>
			<point x="280" y="351" type="curve" smooth="yes"/>
			<point x="322" y="351"/>
			<point x="352" y="322"/>
			<point x="369" y="290" type="curve"/>
			<point x="389" y="363" type="line"/>
			<point x="371" y="424"/>
			<point x="324" y="455"/>
			<point x="269" y="455" type="curve" smooth="yes"/>
			<point x="124" y="455"/>
			<point x="32" y="314"/>
			<point x="32" y="182" type="curve" smooth="yes"/>
			<point x="32" y="63"/>
			<point x="111" y="-12"/>
		</contour>
		<contour>
			<point x="166" y="479" type="line"/>
			<point x="547" y="631" type="line"/>
			<point x="517" y="705" type="line"/>
			<point x="136" y="553" type="line"/>
		</contour>
	</outline>
	<anchor name="aboveUC" x="383" y="724"/>
	<anchor name="belowLC" x="218" y="-22"/>
</glyph>
<glyph name="divide" format="2">
	<unicode hex="00F7"/>
	<advance width="512"/>
	<outline>
		<contour>
			<point x="48" y="279" type="line"/>
			<point x="489" y="279" type="line"/>
			<point x="489" y="381" type="line"/>
			<point x="48" y="381" type="line"/>
		</contour>
		<contour>
			<point x="268" y="74" type="curve" smooth="yes"/>
			<point x="313" y="74"/>
			<point x="348" y="104"/>
			<point x="348" y="148" type="curve" smooth="yes"/>
			<point x="348" y="191"/>
			<point x="313" y="224"/>
			<point x="268" y="224" type="curve" smooth="yes"/>
			<point x="224" y="224"/>
			<point x="189" y="191"/>
			<point x="189" y="148" type="curve" smooth="yes"/>
			<point x="189" y="104"/>
			<point x="224" y="74"/>
		</contour>
		<contour>
			<point x="268" y="436" type="curve" smooth="yes"/>
			<point x="313" y="436"/>
			<point x="348" y="468"/>
			<point x="348" y="512" type="curve" smooth="yes"/>
			<point x="348" y="555"/>
			<point x="313" y="586"/>
			<point x="268" y="586" type="curve" smooth="yes"/>
			<point x="224" y="586"/>
			<point x="189" y="555"/>
			<point x="189" y="512" type="curve" smooth="yes"/>
			<point x="189" y="468"/>
			<point x="224" y="436"/>
		</contour>
	</outline>
</glyph>
<glyph name="oslash" format="2">
	<unicode hex="00F8"/>
	<advance width="532"/>
	<outline>
		<contour>
			<point x="222" y="-12" type="curve" smooth="yes"/>
			<point x="359" y="-12"/>
			<point x="500" y="111"/>
			<point x="500" y="304" type="curve" smooth="yes"/>
			<point x="500" y="433"/>
			<point x="417" y="508"/>
			<point x="307" y="508" type="curve" smooth="yes"/>
			<point x="171" y="508"/>
			<point x="30" y="384"/>
			<point x="30" y="192" type="curve" smooth="yes"/>
			<point x="30" y="63"/>
			<point x="113" y="-12"/>
		</contour>
		<contour>
			<point x="232" y="95" type="curve" smooth="yes"/>
			<point x="181" y="95"/>
			<point x="158" y="136"/>
			<point x="158" y="195" type="curve" smooth="yes"/>
			<point x="158" y="290"/>
			<point x="208" y="401"/>
			<point x="297" y="401" type="curve" smooth="yes"/>
			<point x="345" y="401"/>
			<point x="371" y="360"/>
			<point x="371" y="299" type="curve" smooth="yes"/>
			<point x="371" y="205"/>
			<point x="324" y="95"/>
		</contour>
		<contour>
			<point x="46" y="-29" type="line"/>
			<point x="537" y="476" type="line"/>
			<point x="486" y="523" type="line"/>
			<point x="-4" y="19" type="line"/>
		</contour>
	</outline>
	<anchor name="aboveLC" x="320" y="518"/>
	<anchor name="belowLC" x="198" y="-22"/>
</glyph>
<glyph name="thorn" format="2">
	<unicode hex="00FE"/>
	<advance width="555"/>
	<outline>
		<contour>
			<point x="-25" y="-182" type="line"/>
			<point x="119" y="-182" type="line"/>
			<point x="145" y="-51" type="line"/>
			<point x="158" y="45" type="line"/>
			<point x="160" y="45" type="line"/>
			<point x="181" y="10"/>
			<point x="218" y="-12"/>
			<point x="258" y="-12" type="curve" smooth="yes"/>
			<point x="396" y="-12"/>
			<point x="524" y="138"/>
			<point x="524" y="327" type="curve" smooth="yes"/>
			<point x="524" y="444"/>
			<point x="471" y="509"/>
			<point x="384" y="509" type="curve" smooth="yes"/>
			<point x="335" y="509"/>
			<point x="285" y="487"/>
			<point x="242" y="452" type="curve"/>
			<point x="240" y="452" type="line"/>
			<point x="265" y="545" type="line"/>
			<point x="297" y="699" type="line"/>
			<point x="153" y="699" type="line"/>
		</contour>
		<contour>
			<point x="248" y="105" type="curve" smooth="yes"/>
			<point x="225" y="105"/>
			<point x="200" y="119"/>
			<point x="187" y="150" type="curve"/>
			<point x="223" y="332" type="line"/>
			<point x="252" y="376"/>
			<point x="290" y="392"/>
			<point x="320" y="392" type="curve" smooth="yes"/>
			<point x="353" y="392"/>
			<point x="374" y="366"/>
			<point x="374" y="308" type="curve" smooth="yes"/>
			<point x="374" y="192"/>
			<point x="313" y="105"/>
		</contour>
	</outline>
	<anchor name="aboveUC" x="398" y="721"/>
	<anchor name="belowLC" x="54" y="-200"/>
</glyph>
<glyph name="Aogonek" format="2">
	<unicode hex="0104"/>
	<advance width="552"/>
	<outline>
		<contour>
			<point x="392" y="-223" type="curve" smooth="yes"/>
			<point x="426" y="-223"/>
			<point x="470" y="-210"/>
			<point x="499" y="-191" type="curve"/>
			<point x="471" y="-122" type="line"/>
			<point x="461" y="-128"/>
			<point x="453" y="-130"/>
			<point x="445" y="-130" type="curve" smooth="yes"/>
			<point x="427" y="-130"/>
			<point x="411" y="-120"/>
			<point x="411" y="-99" type="curve" smooth="yes"/>
			<point x="411" y="-69"/>
			<point x="437" y="-29"/>
			<point x="517" y="0" type="curve"/>
			<point x="452" y="651" type="line"/>
			<point x="280" y="651" type="line"/>
			<point x="-64" y="0" type="line"/>
			<point x="95" y="0" type="line"/>
			<point x="259" y="350" type="line" smooth="yes"/>
			<point x="288" y="414"/>
			<point x="312" y="475"/>
			<point x="340" y="542" type="curve"/>
			<point x="344" y="542" type="line"/>
			<point x="345" y="474"/>
			<point x="348" y="414"/>
			<point x="351" y="350" type="curve" smooth="yes"/>
			<point x="365" y="0" type="line"/>
			<point x="394" y="0" type="line"/>
			<point x="358" y="-25"/>
			<point x="298" y="-79"/>
			<point x="298" y="-145" type="curve" smooth="yes"/>
			<point x="298" y="-194"/>
			<point x="336" y="-223"/>
		</contour>
		<contour>
			<point x="109" y="159" type="line"/>
			<point x="409" y="159" type="line"/>
			<point x="434" y="268" type="line"/>
			<point x="135" y="268" type="line"/>
		</contour>
	</outline>
	<anchor name="aboveUC" x="374" y="673"/>
</glyph>
<glyph name="aogonek" format="2">
	<unicode hex="0105"/>
	<advance width="554"/>
	<outline>
		<contour>
			<point x="332" y="-219" type="curve" smooth="yes"/>
			<point x="379" y="-219"/>
			<point x="418" y="-204"/>
			<point x="449" y="-182" type="curve"/>
			<point x="421" y="-116" type="line"/>
			<point x="412" y="-122"/>
			<point x="403" y="-126"/>
			<point x="388" y="-126" type="curve" smooth="yes"/>
			<point x="369" y="-126"/>
			<point x="355" y="-115"/>
			<point x="355" y="-96" type="curve" smooth="yes"/>
			<point x="355" y="-54"/>
			<point x="388" y="-15"/>
			<point x="442" y="0" type="curve"/>
			<point x="541" y="497" type="line"/>
			<point x="426" y="497" type="line"/>
			<point x="404" y="445" type="line"/>
			<point x="402" y="445" type="line"/>
			<point x="383" y="484"/>
			<point x="339" y="509"/>
			<point x="295" y="509" type="curve" smooth="yes"/>
			<point x="158" y="509"/>
			<point x="30" y="360"/>
			<point x="30" y="171" type="curve" smooth="yes"/>
			<point x="30" y="53"/>
			<point x="83" y="-12"/>
			<point x="170" y="-12" type="curve" smooth="yes"/>
			<point x="221" y="-12"/>
			<point x="279" y="17"/>
			<point x="324" y="64" type="curve"/>
			<point x="326" y="64" type="line"/>
			<point x="325" y="1" type="line"/>
			<point x="284" y="-26"/>
			<point x="239" y="-80"/>
			<point x="239" y="-137" type="curve" smooth="yes"/>
			<point x="239" y="-190"/>
			<point x="277" y="-219"/>
		</contour>
		<contour>
			<point x="234" y="105" type="curve" smooth="yes"/>
			<point x="201" y="105"/>
			<point x="180" y="131"/>
			<point x="180" y="189" type="curve" smooth="yes"/>
			<point x="180" y="305"/>
			<point x="240" y="392"/>
			<point x="306" y="392" type="curve" smooth="yes"/>
			<point x="327" y="392"/>
			<point x="353" y="378"/>
			<point x="368" y="347" type="curve"/>
			<point x="334" y="177" type="line"/>
			<point x="304" y="121"/>
			<point x="265" y="105"/>
		</contour>
	</outline>
	<anchor name="aboveLC" x="319" y="520"/>
</glyph>
<glyph name="dcroat" format="2">
	<unicode hex="0111"/>
	<advance width="552"/>
	<outline>
		<contour>
			<point x="170" y="-12" type="curve" smooth="yes"/>
			<point x="221" y="-12"/>
			<point x="279" y="17"/>
			<point x="324" y="64" type="curve"/>
			<point x="326" y="64" type="line"/>
			<point x="325" y="0" type="line"/>
			<point x="441" y="0" type="line"/>
			<point x="582" y="699" type="line"/>
			<point x="439" y="699" type="line"/>
			<point x="405" y="524" type="line"/>
			<point x="394" y="430" type="line"/>
			<point x="391" y="430" type="line"/>
			<point x="374" y="466"/>
			<point x="339" y="489"/>
			<point x="295" y="489" type="curve" smooth="yes"/>
			<point x="158" y="489"/>
			<point x="30" y="338"/>
			<point x="30" y="170" type="curve" smooth="yes"/>
			<point x="30" y="53"/>
			<point x="83" y="-12"/>
		</contour>
		<contour>
			<point x="233" y="105" type="curve" smooth="yes"/>
			<point x="200" y="105"/>
			<point x="179" y="130"/>
			<point x="179" y="189" type="curve" smooth="yes"/>
			<point x="179" y="284"/>
			<point x="240" y="372"/>
			<point x="305" y="372" type="curve" smooth="yes"/>
			<point x="327" y="372"/>
			<point x="352" y="359"/>
			<point x="365" y="327" type="curve"/>
			<point x="334" y="176" type="line"/>
			<point x="302" y="120"/>
			<point x="264" y="105"/>
		</contour>
		<contour>
			<point x="269" y="553" type="line"/>
			<point x="547" y="553" type="line"/>
			<point x="620" y="559" type="line"/>
			<point x="635" y="630" type="line"/>
			<point x="284" y="630" type="line"/>
		</contour>
	</outline>
</glyph>
<glyph name="Eogonek" format="2">
	<unicode hex="0118"/>
	<advance width="528"/>
	<outline>
		<contour>
			<point x="310" y="-226" type="curve" smooth="yes"/>
			<point x="354" y="-226"/>
			<point x="400" y="-213"/>
			<point x="431" y="-191" type="curve"/>
			<point x="403" y="-115" type="line"/>
			<point x="394" y="-120"/>
			<point x="383" y="-123"/>
			<point x="372" y="-123" type="curve" smooth="yes"/>
			<point x="353" y="-123"/>
			<point x="336" y="-112"/>
			<point x="336" y="-91" type="curve" smooth="yes"/>
			<point x="336" y="-59"/>
			<point x="377" y="-9"/>
			<point x="427" y="0" type="curve"/>
			<point x="451" y="121" type="line"/>
			<point x="195" y="121" type="line"/>
			<point x="228" y="276" type="line"/>
			<point x="437" y="276" type="line"/>
			<point x="461" y="397" type="line"/>
			<point x="251" y="397" type="line"/>
			<point x="277" y="530" type="line"/>
			<point x="524" y="530" type="line"/>
			<point x="547" y="651" type="line"/>
			<point x="158" y="651" type="line"/>
			<point x="28" y="0" type="line"/>
			<point x="312" y="0" type="line"/>
			<point x="260" y="-32"/>
			<point x="206" y="-88"/>
			<point x="206" y="-143" type="curve" smooth="yes"/>
			<point x="206" y="-196"/>
			<point x="250" y="-226"/>
		</contour>
	</outline>
	<anchor name="aboveUC" x="360" y="673"/>
</glyph>
<glyph name="eogonek" format="2">
	<unicode hex="0119"/>
	<advance width="498"/>
	<outline>
		<contour>
			<point x="256" y="-219" type="curve" smooth="yes"/>
			<point x="303" y="-219"/>
			<point x="343" y="-204"/>
			<point x="374" y="-182" type="curve"/>
			<point x="346" y="-116" type="line"/>
			<point x="336" y="-122"/>
			<point x="328" y="-126"/>
			<point x="313" y="-126" type="curve" smooth="yes"/>
			<point x="294" y="-126"/>
			<point x="279" y="-115"/>
			<point x="279" y="-96" type="curve" smooth="yes"/>
			<point x="279" y="-54"/>
			<point x="312" y="-14"/>
			<point x="413" y="43" type="curve"/>
			<point x="365" y="128" type="line"/>
			<point x="342" y="111"/>
			<point x="304" y="99"/>
			<point x="274" y="99" type="curve" smooth="yes"/>
			<point x="211" y="99"/>
			<point x="161" y="130"/>
			<point x="165" y="206" type="curve"/>
			<point x="445" y="206" type="line"/>
			<point x="453" y="220"/>
			<point x="469" y="274"/>
			<point x="469" y="322" type="curve" smooth="yes"/>
			<point x="469" y="425"/>
			<point x="426" y="509"/>
			<point x="306" y="509" type="curve" smooth="yes"/>
			<point x="173" y="509"/>
			<point x="28" y="385"/>
			<point x="28" y="201" type="curve" smooth="yes"/>
			<point x="28" y="68"/>
			<point x="113" y="-12"/>
			<point x="237" y="-12" type="curve" smooth="yes"/>
			<point x="249" y="-12"/>
			<point x="262" y="-11"/>
			<point x="271" y="-9" type="curve"/>
			<point x="257" y="1" type="line"/>
			<point x="205" y="-37"/>
			<point x="163" y="-85"/>
			<point x="163" y="-137" type="curve" smooth="yes"/>
			<point x="163" y="-190"/>
			<point x="202" y="-219"/>
		</contour>
		<contour>
			<point x="176" y="302" type="line"/>
			<point x="198" y="368"/>
			<point x="244" y="399"/>
			<point x="288" y="399" type="curve" smooth="yes"/>
			<point x="335" y="399"/>
			<point x="351" y="368"/>
			<point x="351" y="330" type="curve" smooth="yes"/>
			<point x="351" y="319"/>
			<point x="349" y="310"/>
			<point x="347" y="302" type="curve"/>
		</contour>
	</outline>
	<anchor name="aboveLC" x="317" y="519"/>
</glyph>
<glyph name="Hbar" format="2">
	<unicode hex="0126"/>
	<advance width="684"/>
	<outline>
		<contour>
			<point x="68" y="478" type="line"/>
			<point x="705" y="478" type="line"/>
			<point x="722" y="566" type="line"/>
			<point x="175" y="566" type="line"/>
			<point x="86" y="561" type="line"/>
		</contour>
		<component base="H" xOffset="16"/>
	</outline>
</glyph>
<glyph name="hbar" format="1">
	<unicode hex="0127"/>
	<advance width="547"/>
	<outline>
		<contour>
			<point x="14" y="0" type="line"/>
			<point x="151" y="0" type="line"/>
			<point x="211" y="307" type="line"/>
			<point x="254" y="351"/>
			<point x="284" y="371"/>
			<point x="315" y="371" type="curve" smooth="yes"/>
			<point x="348" y="371"/>
			<point x="366" y="354"/>
			<point x="366" y="320" type="curve" smooth="yes"/>
			<point x="366" y="307"/>
			<point x="362" y="293"/>
			<point x="358" y="273" type="curve" smooth="yes"/>
			<point x="303" y="0" type="line"/>
			<point x="440" y="0" type="line"/>
			<point x="498" y="290" type="line" smooth="yes"/>
			<point x="504" y="315"/>
			<point x="506" y="338"/>
			<point x="506" y="361" type="curve" smooth="yes"/>
			<point x="506" y="443"/>
			<point x="470" y="488"/>
			<point x="388" y="488" type="curve" smooth="yes"/>
			<point x="329" y="488"/>
			<point x="276" y="457"/>
			<point x="232" y="418" type="curve"/>
			<point x="228" y="418" type="line"/>
			<point x="250" y="498" type="line"/>
			<point x="292" y="701" type="line"/>
			<point x="155" y="701" type="line"/>
		</contour>
		<contour>
			<point x="57" y="549" type="line"/>
			<point x="422" y="549" type="line"/>
			<point x="439" y="633" type="line"/>
			<point x="146" y="633" type="line"/>
			<point x="72" y="627" type="line"/>
		</contour>
	</outline>
</glyph>
<glyph name="Iogonek" format="2">
	<unicode hex="012E"/>
	<advance width="300"/>
	<outline>
		<contour>
			<point x="59" y="-226" type="curve" smooth="yes"/>
			<point x="103" y="-226"/>
			<point x="149" y="-213"/>
			<point x="180" y="-191" type="curve"/>
			<point x="152" y="-115" type="line"/>
			<point x="143" y="-120"/>
			<point x="132" y="-123"/>
			<point x="121" y="-123" type="curve" smooth="yes"/>
			<point x="102" y="-123"/>
			<point x="85" y="-112"/>
			<point x="85" y="-91" type="curve" smooth="yes"/>
			<point x="85" y="-62"/>
			<point x="112" y="-22"/>
			<point x="172" y="0" type="curve"/>
			<point x="302" y="651" type="line"/>
			<point x="158" y="651" type="line"/>
			<point x="28" y="0" type="line"/>
			<point x="61" y="0" type="line"/>
			<point x="9" y="-32"/>
			<point x="-45" y="-88"/>
			<point x="-45" y="-143" type="curve" smooth="yes"/>
			<point x="-45" y="-196"/>
			<point x="-1" y="-226"/>
		</contour>
	</outline>
	<anchor name="aboveUC" x="234" y="673"/>
</glyph>
<glyph name="iogonek" format="1">
	<unicode hex="012F"/>
	<advance width="265"/>
	<outline>
		<contour>
			<point x="47" y="-210" type="curve" smooth="yes"/>
			<point x="79" y="-210"/>
			<point x="122" y="-194"/>
			<point x="150" y="-174" type="curve"/>
			<point x="127" y="-118" type="line"/>
			<point x="116" y="-124"/>
			<point x="106" y="-128"/>
			<point x="95" y="-128" type="curve" smooth="yes"/>
			<point x="76" y="-128"/>
			<point x="60" y="-117"/>
			<point x="60" y="-98" type="curve" smooth="yes"/>
			<point x="60" y="-62"/>
			<point x="86" y="-26"/>
			<point x="151" y="0" type="curve"/>
			<point x="250" y="496" type="line"/>
			<point x="114" y="496" type="line"/>
			<point x="14" y="0" type="line"/>
			<point x="53" y="0" type="line"/>
			<point x="22" y="-20"/>
			<point x="-39" y="-73"/>
			<point x="-39" y="-137" type="curve" smooth="yes"/>
			<point x="-39" y="-185"/>
			<point x="-3" y="-210"/>
		</contour>
		<contour>
			<point x="208" y="570" type="curve" smooth="yes"/>
			<point x="256" y="570"/>
			<point x="293" y="604"/>
			<point x="293" y="651" type="curve" smooth="yes"/>
			<point x="293" y="694"/>
			<point x="257" y="717"/>
			<point x="219" y="717" type="curve" smooth="yes"/>
			<point x="172" y="717"/>
			<point x="134" y="680"/>
			<point x="134" y="636" type="curve" smooth="yes"/>
			<point x="134" y="592"/>
			<point x="171" y="570"/>
		</contour>
	</outline>
</glyph>
<glyph name="dotlessi" format="2">
	<unicode hex="0131"/>
	<advance width="265"/>
	<outline>
		<contour>
			<point x="14" y="0" type="line"/>
			<point x="151" y="0" type="line"/>
			<point x="250" y="496" type="line"/>
			<point x="114" y="496" type="line"/>
		</contour>
	</outline>
	<anchor name="aboveLC" x="185" y="518"/>
	<anchor name="belowLC" x="76" y="-22"/>
	<anchor name="ogonekLC" x="76" y="0"/>
</glyph>
<glyph name="IJ" format="1">
	<unicode hex="0132"/>
	<advance width="589"/>
	<outline>
		<contour>
			<point x="276" y="-176" type="curve" smooth="yes"/>
			<point x="389" y="-176"/>
			<point x="440" y="-96"/>
			<point x="461" y="4" type="curve" smooth="yes"/>
			<point x="590" y="652" type="line"/>
			<point x="453" y="652" type="line"/>
			<point x="325" y="10" type="line" smooth="yes"/>
			<point x="313" y="-44"/>
			<point x="299" y="-68"/>
			<point x="265" y="-68" type="curve" smooth="yes"/>
			<point x="249" y="-68"/>
			<point x="236" y="-63"/>
			<point x="222" y="-55" type="curve"/>
			<point x="181" y="-154" type="line"/>
			<point x="213" y="-170"/>
			<point x="242" y="-176"/>
		</contour>
		<contour>
			<point x="28" y="0" type="line"/>
			<point x="166" y="0" type="line"/>
			<point x="296" y="652" type="line"/>
			<point x="159" y="652" type="line"/>
		</contour>
	</outline>
</glyph>
<glyph name="kgreenlandic" format="2">
	<unicode hex="0138"/>
	<advance width="531"/>
	<outline>
		<contour>
			<point x="12" y="0" type="line"/>
			<point x="156" y="0" type="line"/>
			<point x="181" y="119" type="line"/>
			<point x="257" y="196" type="line"/>
			<point x="330" y="0" type="line"/>
			<point x="474" y="0" type="line"/>
			<point x="357" y="279" type="line"/>
			<point x="560" y="497" type="line"/>
			<point x="401" y="497" type="line"/>
			<point x="221" y="303" type="line"/>
			<point x="217" y="303" type="line"/>
			<point x="254" y="497" type="line"/>
			<point x="110" y="497" type="line"/>
		</contour>
	</outline>
</glyph>
<glyph name="Lslash" format="2">
	<unicode hex="0141"/>
	<advance width="504"/>
	<outline>
		<contour>
			<point x="16" y="174" type="line"/>
			<point x="106" y="220" type="line"/>
			<point x="211" y="268" type="line"/>
			<point x="436" y="380" type="line"/>
			<point x="402" y="473" type="line"/>
			<point x="234" y="388" type="line"/>
			<point x="129" y="340" type="line"/>
			<point x="-19" y="267" type="line"/>
		</contour>
		<component base="L"/>
	</outline>
</glyph>
<glyph name="lslash" format="2">
	<unicode hex="0142"/>
	<advance width="343"/>
	<outline>
		<contour>
			<point x="31" y="265" type="line"/>
			<point x="119" y="301" type="line"/>
			<point x="258" y="361" type="line"/>
			<point x="414" y="424" type="line"/>
			<point x="381" y="513" type="line"/>
			<point x="280" y="473" type="line"/>
			<point x="141" y="412" type="line"/>
			<point x="-2" y="354" type="line"/>
		</contour>
		<component base="l" xOffset="37"/>
	</outline>
	<anchor name="aboveUC" x="255" y="730"/>
	<anchor name="belowLC" x="149" y="-22"/>
</glyph>
<glyph name="Eng" format="2">
	<unicode hex="014A"/>
	<advance width="651"/>
	<outline>
		<contour>
			<point x="365" y="-12" type="curve" smooth="yes"/>
			<point x="524" y="-12"/>
			<point x="630" y="190"/>
			<point x="630" y="421" type="curve" smooth="yes"/>
			<point x="630" y="595"/>
			<point x="556" y="663"/>
			<point x="449" y="663" type="curve" smooth="yes"/>
			<point x="392" y="663"/>
			<point x="337" y="637"/>
			<point x="283" y="591" type="curve"/>
			<point x="295" y="651" type="line"/>
			<point x="158" y="651" type="line"/>
			<point x="28" y="0" type="line"/>
			<point x="172" y="0" type="line"/>
			<point x="264" y="468" type="line"/>
			<point x="309" y="515"/>
			<point x="362" y="539"/>
			<point x="400" y="539" type="curve" smooth="yes"/>
			<point x="451" y="539"/>
			<point x="482" y="503"/>
			<point x="482" y="411" type="curve" smooth="yes"/>
			<point x="482" y="262"/>
			<point x="413" y="113"/>
			<point x="348" y="113" type="curve" smooth="yes"/>
			<point x="335" y="113"/>
			<point x="323" y="115"/>
			<point x="314" y="119" type="curve"/>
			<point x="272" y="10" type="line"/>
			<point x="292" y="-3"/>
			<point x="332" y="-12"/>
		</contour>
	</outline>
	<anchor name="aboveUC" x="444" y="673"/>
	<anchor name="belowLC" x="284" y="-22"/>
</glyph>
<glyph name="eng" format="2">
	<unicode hex="014B"/>
	<advance width="555"/>
	<outline>
		<contour>
			<point x="252" y="-194" type="curve" smooth="yes"/>
			<point x="369" y="-194"/>
			<point x="420" y="-112"/>
			<point x="442" y="-10" type="curve" smooth="yes"/>
			<point x="506" y="310" type="line" smooth="yes"/>
			<point x="511" y="334"/>
			<point x="514" y="359"/>
			<point x="514" y="381" type="curve" smooth="yes"/>
			<point x="514" y="465"/>
			<point x="479" y="509"/>
			<point x="397" y="509" type="curve" smooth="yes"/>
			<point x="333" y="509"/>
			<point x="279" y="473"/>
			<point x="232" y="432" type="curve"/>
			<point x="228" y="432" type="line"/>
			<point x="229" y="497" type="line"/>
			<point x="112" y="497" type="line"/>
			<point x="12" y="0" type="line"/>
			<point x="156" y="0" type="line"/>
			<point x="220" y="325" type="line"/>
			<point x="260" y="367"/>
			<point x="289" y="387"/>
			<point x="319" y="387" type="curve" smooth="yes"/>
			<point x="349" y="387"/>
			<point x="366" y="370"/>
			<point x="366" y="338" type="curve" smooth="yes"/>
			<point x="366" y="325"/>
			<point x="363" y="311"/>
			<point x="358" y="292" type="curve" smooth="yes"/>
			<point x="299" y="-4" type="line" smooth="yes"/>
			<point x="287" y="-57"/>
			<point x="273" y="-80"/>
			<point x="240" y="-80" type="curve" smooth="yes"/>
			<point x="224" y="-80"/>
			<point x="210" y="-76"/>
			<point x="196" y="-70" type="curve"/>
			<point x="157" y="-170" type="line"/>
			<point x="186" y="-188"/>
			<point x="220" y="-194"/>
		</contour>
	</outline>
	<anchor name="aboveLC" x="355" y="520"/>
	<anchor name="belowLC" x="204" y="-201"/>
</glyph>
<glyph name="OE" format="2">
	<unicode hex="0152"/>
	<advance width="835"/>
	<outline>
		<contour>
			<point x="346" y="0" type="curve" smooth="yes"/>
			<point x="733" y="0" type="line"/>
			<point x="756" y="121" type="line"/>
			<point x="513" y="121" type="line"/>
			<point x="545" y="276" type="line"/>
			<point x="743" y="276" type="line"/>
			<point x="766" y="397" type="line"/>
			<point x="568" y="397" type="line"/>
			<point x="594" y="530" type="line"/>
			<point x="830" y="530" type="line"/>
			<point x="853" y="651" type="line"/>
			<point x="416" y="651" type="line" smooth="yes"/>
			<point x="208" y="651"/>
			<point x="57" y="515"/>
			<point x="57" y="256" type="curve" smooth="yes"/>
			<point x="57" y="83"/>
			<point x="164" y="0"/>
		</contour>
		<contour>
			<point x="350" y="116" type="line" smooth="yes"/>
			<point x="263" y="116"/>
			<point x="205" y="159"/>
			<point x="205" y="265" type="curve" smooth="yes"/>
			<point x="205" y="454"/>
			<point x="299" y="535"/>
			<point x="419" y="535" type="curve" smooth="yes"/>
			<point x="452" y="535" type="line"/>
			<point x="369" y="116" type="line"/>
		</contour>
	</outline>
	<anchor name="aboveUC" x="580" y="673"/>
</glyph>
<glyph name="oe" format="2">
	<unicode hex="0153"/>
	<advance width="796"/>
	<outline>
		<contour>
			<point x="214" y="-12" type="curve" smooth="yes"/>
			<point x="278" y="-12"/>
			<point x="343" y="22"/>
			<point x="390" y="84" type="curve"/>
			<point x="418" y="19"/>
			<point x="478" y="-12"/>
			<point x="548" y="-12" type="curve" smooth="yes"/>
			<point x="618" y="-12"/>
			<point x="674" y="14"/>
			<point x="711" y="41" type="curve"/>
			<point x="661" y="130" type="line"/>
			<point x="637" y="113"/>
			<point x="601" y="97"/>
			<point x="572" y="97" type="curve" smooth="yes"/>
			<point x="515" y="97"/>
			<point x="472" y="126"/>
			<point x="473" y="209" type="curve"/>
			<point x="742" y="209" type="line"/>
			<point x="750" y="225"/>
			<point x="767" y="275"/>
			<point x="767" y="322" type="curve" smooth="yes"/>
			<point x="767" y="425"/>
			<point x="723" y="509"/>
			<point x="604" y="509" type="curve" smooth="yes"/>
			<point x="547" y="509"/>
			<point x="485" y="476"/>
			<point x="440" y="417" type="curve"/>
			<point x="412" y="476"/>
			<point x="372" y="509"/>
			<point x="299" y="509" type="curve" smooth="yes"/>
			<point x="169" y="509"/>
			<point x="29" y="386"/>
			<point x="29" y="193" type="curve" smooth="yes"/>
			<point x="29" y="70"/>
			<point x="103" y="-12"/>
		</contour>
		<contour>
			<point x="239" y="103" type="curve" smooth="yes"/>
			<point x="195" y="103"/>
			<point x="173" y="138"/>
			<point x="173" y="196" type="curve" smooth="yes"/>
			<point x="173" y="309"/>
			<point x="228" y="394"/>
			<point x="284" y="394" type="curve" smooth="yes"/>
			<point x="327" y="394"/>
			<point x="349" y="359"/>
			<point x="349" y="301" type="curve" smooth="yes"/>
			<point x="349" y="188"/>
			<point x="298" y="103"/>
		</contour>
		<contour>
			<point x="485" y="299" type="line"/>
			<point x="505" y="367"/>
			<point x="546" y="399"/>
			<point x="586" y="399" type="curve" smooth="yes"/>
			<point x="634" y="399"/>
			<point x="650" y="368"/>
			<point x="650" y="329" type="curve" smooth="yes"/>
			<point x="650" y="319"/>
			<point x="648" y="308"/>
			<point x="646" y="299" type="curve"/>
		</contour>
	</outline>
</glyph>
<glyph name="Tbar" format="2">
	<unicode hex="0166"/>
	<advance width="532"/>
	<outline>
		<contour>
			<point x="81" y="265" type="line"/>
			<point x="459" y="265" type="line"/>
			<point x="477" y="362" type="line"/>
			<point x="191" y="362" type="line"/>
			<point x="99" y="356" type="line"/>
		</contour>
		<component base="T"/>
	</outline>
	<anchor name="aboveUC" x="346" y="674"/>
	<anchor name="belowLC" x="215" y="-22"/>
</glyph>
<glyph name="tbar" format="1">
	<unicode hex="0167"/>
	<advance width="367"/>
	<outline>
		<contour>
			<point x="13" y="219" type="line"/>
			<point x="328" y="219" type="line"/>
			<point x="344" y="302" type="line"/>
			<point x="118" y="302" type="line"/>
			<point x="28" y="297" type="line"/>
		</contour>
		<component base="t"/>
		<contour>
			<point name="aboveLC" x="249" y="659" type="move"/>
		</contour>
		<contour>
			<point name="belowLC" x="175" y="-22" type="move"/>
		</contour>
	</outline>
</glyph>
<glyph name="Uogonek" format="2">
	<unicode hex="0172"/>
	<advance width="647"/>
	<outline>
		<contour>
			<point x="237" y="-226" type="curve" smooth="yes"/>
			<point x="280" y="-226"/>
			<point x="327" y="-212"/>
			<point x="358" y="-191" type="curve"/>
			<point x="330" y="-115" type="line"/>
			<point x="318" y="-122"/>
			<point x="308" y="-123"/>
			<point x="299" y="-123" type="curve" smooth="yes"/>
			<point x="279" y="-123"/>
			<point x="263" y="-112"/>
			<point x="263" y="-91" type="curve" smooth="yes"/>
			<point x="263" y="-62"/>
			<point x="293" y="-23"/>
			<point x="363" y="-8" type="curve" smooth="yes"/>
			<point x="484" y="17"/>
			<point x="542" y="104"/>
			<point x="577" y="279" type="curve" smooth="yes"/>
			<point x="653" y="651" type="line"/>
			<point x="512" y="651" type="line"/>
			<point x="437" y="277" type="line" smooth="yes"/>
			<point x="412" y="149"/>
			<point x="376" y="113"/>
			<point x="314" y="113" type="curve" smooth="yes"/>
			<point x="243" y="113"/>
			<point x="219" y="150"/>
			<point x="219" y="221" type="curve" smooth="yes"/>
			<point x="219" y="245"/>
			<point x="223" y="270"/>
			<point x="228" y="296" type="curve" smooth="yes"/>
			<point x="299" y="651" type="line"/>
			<point x="154" y="651" type="line"/>
			<point x="88" y="324" type="line" smooth="yes"/>
			<point x="82" y="290"/>
			<point x="75" y="246"/>
			<point x="75" y="217" type="curve" smooth="yes"/>
			<point x="75" y="62"/>
			<point x="154" y="-12"/>
			<point x="310" y="-12" type="curve"/>
			<point x="242" y="0" type="line"/>
			<point x="188" y="-31"/>
			<point x="133" y="-87"/>
			<point x="133" y="-143" type="curve" smooth="yes"/>
			<point x="133" y="-196"/>
			<point x="177" y="-226"/>
		</contour>
	</outline>
	<anchor name="aboveUC" x="415" y="673"/>
</glyph>
<glyph name="uogonek" format="2">
	<unicode hex="0173"/>
	<advance width="546"/>
	<outline>
		<contour>
			<point x="325" y="-219" type="curve" smooth="yes"/>
			<point x="372" y="-219"/>
			<point x="412" y="-204"/>
			<point x="443" y="-182" type="curve"/>
			<point x="415" y="-116" type="line"/>
			<point x="405" y="-122"/>
			<point x="397" y="-126"/>
			<point x="382" y="-126" type="curve" smooth="yes"/>
			<point x="363" y="-126"/>
			<point x="348" y="-115"/>
			<point x="348" y="-96" type="curve" smooth="yes"/>
			<point x="348" y="-54"/>
			<point x="382" y="-15"/>
			<point x="435" y="0" type="curve"/>
			<point x="533" y="497" type="line"/>
			<point x="389" y="497" type="line"/>
			<point x="326" y="173" type="line"/>
			<point x="288" y="130"/>
			<point x="260" y="111"/>
			<point x="232" y="111" type="curve" smooth="yes"/>
			<point x="201" y="111"/>
			<point x="184" y="127"/>
			<point x="184" y="159" type="curve" smooth="yes"/>
			<point x="184" y="172"/>
			<point x="188" y="186"/>
			<point x="192" y="205" type="curve" smooth="yes"/>
			<point x="251" y="497" type="line"/>
			<point x="107" y="497" type="line"/>
			<point x="45" y="187" type="line" smooth="yes"/>
			<point x="39" y="163"/>
			<point x="37" y="139"/>
			<point x="37" y="116" type="curve" smooth="yes"/>
			<point x="37" y="32"/>
			<point x="72" y="-12"/>
			<point x="154" y="-12" type="curve" smooth="yes"/>
			<point x="214" y="-12"/>
			<point x="271" y="24"/>
			<point x="316" y="66" type="curve"/>
			<point x="320" y="66" type="line"/>
			<point x="318" y="1" type="line"/>
			<point x="277" y="-26"/>
			<point x="232" y="-80"/>
			<point x="232" y="-137" type="curve" smooth="yes"/>
			<point x="232" y="-190"/>
			<point x="271" y="-219"/>
		</contour>
	</outline>
	<anchor name="aboveLC" x="319" y="520"/>
</glyph>
<glyph name="longs" format="1">
	<unicode hex="017F"/>
	<advance width="327"/>
	<outline>
		<contour>
			<point x="36" y="0" type="line"/>
			<point x="173" y="0" type="line"/>
			<point x="280" y="534" type="line" smooth="yes"/>
			<point x="290" y="588"/>
			<point x="313" y="604"/>
			<point x="349" y="604" type="curve" smooth="yes"/>
			<point x="367" y="604"/>
			<point x="386" y="596"/>
			<point x="397" y="589" type="curve"/>
			<point x="441" y="686" type="line"/>
			<point x="410" y="703"/>
			<point x="373" y="713"/>
			<point x="335" y="713" type="curve" smooth="yes"/>
			<point x="223" y="713"/>
			<point x="165" y="634"/>
			<point x="143" y="529" type="curve" smooth="yes"/>
		</contour>
		<contour>
			<point x="51" y="389" type="line"/>
			<point x="185" y="389" type="line"/>
			<point x="206" y="496" type="line"/>
			<point x="138" y="496" type="line"/>
			<point x="72" y="490" type="line"/>
		</contour>
		<contour>
			<point name="aboveUC" x="321" y="722" type="move"/>
		</contour>
		<contour>
			<point name="belowLC" x="109" y="-22" type="move"/>
		</contour>
	</outline>
</glyph>
<glyph name="bstroke" format="2">
	<unicode hex="0180"/>
	<advance width="546"/>
	<outline>
		<contour>
			<point x="256" y="-12" type="curve" smooth="yes"/>
			<point x="389" y="-12"/>
			<point x="513" y="118"/>
			<point x="513" y="282" type="curve" smooth="yes"/>
			<point x="513" y="397"/>
			<point x="460" y="462"/>
			<point x="373" y="462" type="curve" smooth="yes"/>
			<point x="323" y="462"/>
			<point x="273" y="438"/>
			<point x="229" y="403" type="curve"/>
			<point x="227" y="403" type="line"/>
			<point x="252" y="496" type="line"/>
			<point x="292" y="701" type="line"/>
			<point x="155" y="701" type="line"/>
			<point x="14" y="0" type="line"/>
			<point x="127" y="0" type="line"/>
			<point x="149" y="53" type="line"/>
			<point x="151" y="53" type="line"/>
			<point x="170" y="13"/>
			<point x="211" y="-12"/>
		</contour>
		<contour>
			<point x="246" y="100" type="curve" smooth="yes"/>
			<point x="221" y="100"/>
			<point x="196" y="114"/>
			<point x="181" y="147" type="curve"/>
			<point x="211" y="288" type="line"/>
			<point x="241" y="333"/>
			<point x="282" y="350"/>
			<point x="314" y="350" type="curve" smooth="yes"/>
			<point x="349" y="350"/>
			<point x="371" y="323"/>
			<point x="371" y="264" type="curve" smooth="yes"/>
			<point x="371" y="172"/>
			<point x="312" y="100"/>
		</contour>
		<contour>
			<point x="52" y="533" type="line"/>
			<point x="420" y="533" type="line"/>
			<point x="441" y="623" type="line"/>
			<point x="145" y="623" type="line"/>
			<point x="71" y="618" type="line"/>
		</contour>
	</outline>
</glyph>
<glyph name="Bhook" format="2">
	<unicode hex="0181"/>
	<advance width="751"/>
	<outline>
		<contour>
			<point x="205" y="0" type="line"/>
			<point x="423" y="0" type="line" smooth="yes"/>
			<point x="576" y="0"/>
			<point x="705" y="61"/>
			<point x="705" y="214" type="curve" smooth="yes"/>
			<point x="705" y="278"/>
			<point x="665" y="319"/>
			<point x="592" y="336" type="curve"/>
			<point x="592" y="340" type="line"/>
			<point x="679" y="365"/>
			<point x="736" y="428"/>
			<point x="736" y="503" type="curve" smooth="yes"/>
			<point x="736" y="604"/>
			<point x="656" y="664"/>
			<point x="449" y="664" type="curve" smooth="yes"/>
			<point x="157" y="664"/>
			<point x="46" y="525"/>
			<point x="46" y="368" type="curve" smooth="yes"/>
			<point x="46" y="307"/>
			<point x="81" y="252"/>
			<point x="137" y="221" type="curve"/>
			<point x="210" y="315" type="line"/>
			<point x="183" y="332"/>
			<point x="168" y="354"/>
			<point x="168" y="388" type="curve" smooth="yes"/>
			<point x="168" y="461"/>
			<point x="228" y="552"/>
			<point x="378" y="552" type="curve" smooth="yes"/>
			<point x="479" y="552" type="line" smooth="yes"/>
			<point x="555" y="552"/>
			<point x="595" y="524"/>
			<point x="595" y="480" type="curve" smooth="yes"/>
			<point x="595" y="423"/>
			<point x="557" y="385"/>
			<point x="466" y="385" type="curve" smooth="yes"/>
			<point x="419" y="385" type="line"/>
			<point x="460" y="586" type="line"/>
			<point x="323" y="586" type="line"/>
		</contour>
		<contour>
			<point x="363" y="105" type="line"/>
			<point x="401" y="292" type="line"/>
			<point x="468" y="292" type="line" smooth="yes"/>
			<point x="538" y="292"/>
			<point x="573" y="263"/>
			<point x="573" y="209" type="curve" smooth="yes"/>
			<point x="573" y="142"/>
			<point x="522" y="105"/>
			<point x="430" y="105" type="curve" smooth="yes"/>
		</contour>
	</outline>
	<anchor name="aboveUC" x="516" y="674"/>
	<anchor name="belowLC" x="429" y="-22"/>
</glyph>
<glyph name="Oopen" format="2">
	<unicode hex="0186"/>
	<advance width="557"/>
	<outline>
		<contour>
			<point x="206" y="-12" type="curve" smooth="yes"/>
			<point x="397" y="-12"/>
			<point x="541" y="149"/>
			<point x="541" y="388" type="curve" smooth="yes"/>
			<point x="541" y="566"/>
			<point x="439" y="664"/>
			<point x="303" y="664" type="curve" smooth="yes"/>
			<point x="229" y="664"/>
			<point x="153" y="636"/>
			<point x="107" y="594" type="curve"/>
			<point x="152" y="500" type="line"/>
			<point x="197" y="532"/>
			<point x="239" y="547"/>
			<point x="285" y="547" type="curve" smooth="yes"/>
			<point x="362" y="547"/>
			<point x="401" y="486"/>
			<point x="401" y="384" type="curve" smooth="yes"/>
			<point x="401" y="225"/>
			<point x="320" y="105"/>
			<point x="212" y="105" type="curve" smooth="yes"/>
			<point x="155" y="105"/>
			<point x="112" y="126"/>
			<point x="79" y="161" type="curve"/>
			<point x="13" y="75" type="line"/>
			<point x="54" y="17"/>
			<point x="130" y="-12"/>
		</contour>
	</outline>
	<anchor name="aboveUC" x="320" y="674"/>
	<anchor name="baseLC" x="218" y="0"/>
	<anchor name="belowLC" x="215" y="-22"/>
	<anchor name="ogonekUC" x="226" y="0"/>
</glyph>
<glyph name="Dhook" format="1">
	<unicode hex="018A"/>
	<advance width="790"/>
	<outline>
		<contour>
			<point x="205" y="0" type="line"/>
			<point x="396" y="0" type="line" smooth="yes"/>
			<point x="596" y="0"/>
			<point x="754" y="139"/>
			<point x="754" y="406" type="curve" smooth="yes"/>
			<point x="754" y="569"/>
			<point x="655" y="664"/>
			<point x="449" y="664" type="curve" smooth="yes"/>
			<point x="158" y="664"/>
			<point x="46" y="525"/>
			<point x="46" y="368" type="curve" smooth="yes"/>
			<point x="46" y="307"/>
			<point x="79" y="251"/>
			<point x="135" y="221" type="curve"/>
			<point x="211" y="315" type="line"/>
			<point x="183" y="333"/>
			<point x="168" y="356"/>
			<point x="168" y="388" type="curve" smooth="yes"/>
			<point x="168" y="465"/>
			<point x="228" y="552"/>
			<point x="378" y="552" type="curve" smooth="yes"/>
			<point x="450" y="552" type="line" smooth="yes"/>
			<point x="556" y="552"/>
			<point x="614" y="510"/>
			<point x="614" y="397" type="curve" smooth="yes"/>
			<point x="614" y="197"/>
			<point x="511" y="110"/>
			<point x="392" y="110" type="curve" smooth="yes"/>
			<point x="365" y="110" type="line"/>
			<point x="460" y="586" type="line"/>
			<point x="323" y="586" type="line"/>
		</contour>
		<contour>
			<point name="aboveUC" x="532" y="673" type="move"/>
		</contour>
		<contour>
			<point name="belowLC" x="413" y="-22" type="move"/>
		</contour>
	</outline>
</glyph>
<glyph name="Eturned" format="2">
	<unicode hex="018E"/>
	<advance width="525"/>
	<outline>
		<contour>
			<point x="0" y="0" type="line"/>
			<point x="396" y="0" type="line"/>
			<point x="527" y="652" type="line"/>
			<point x="140" y="652" type="line"/>
			<point x="116" y="537" type="line"/>
			<point x="367" y="537" type="line"/>
			<point x="338" y="395" type="line"/>
			<point x="125" y="395" type="line"/>
			<point x="103" y="280" type="line"/>
			<point x="316" y="280" type="line"/>
			<point x="283" y="115" type="line"/>
			<point x="24" y="115" type="line"/>
		</contour>
	</outline>
	<anchor name="aboveUC" x="341" y="674"/>
	<anchor name="belowLC" x="213" y="-22"/>
	<anchor name="ogonekUC" x="215" y="0"/>
</glyph>
<glyph name="Schwa" format="2">
	<unicode hex="018F"/>
	<advance width="672"/>
	<outline>
		<contour>
			<point x="302" y="-12" type="curve" smooth="yes"/>
			<point x="507" y="-12"/>
			<point x="649" y="157"/>
			<point x="649" y="387" type="curve" smooth="yes"/>
			<point x="649" y="564"/>
			<point x="551" y="663"/>
			<point x="405" y="663" type="curve" smooth="yes"/>
			<point x="315" y="663"/>
			<point x="249" y="631"/>
			<point x="194" y="585" type="curve"/>
			<point x="258" y="491" type="line"/>
			<point x="290" y="517"/>
			<point x="335" y="544"/>
			<point x="387" y="544" type="curve" smooth="yes"/>
			<point x="474" y="544"/>
			<point x="506" y="482"/>
			<point x="506" y="378" type="curve" smooth="yes"/>
			<point x="506" y="219"/>
			<point x="426" y="107"/>
			<point x="313" y="107" type="curve" smooth="yes"/>
			<point x="237" y="107"/>
			<point x="188" y="166"/>
			<point x="201" y="264" type="curve"/>
			<point x="517" y="264" type="line"/>
			<point x="539" y="370" type="line"/>
			<point x="88" y="370" type="line"/>
			<point x="71" y="323"/>
			<point x="66" y="289"/>
			<point x="66" y="238" type="curve" smooth="yes"/>
			<point x="66" y="86"/>
			<point x="158" y="-12"/>
		</contour>
	</outline>
	<anchor name="aboveUC" x="471" y="673"/>
	<anchor name="belowLC" x="325" y="-22"/>
</glyph>
<glyph name="florin" format="2">
	<unicode hex="0192"/>
	<advance width="332"/>
	<outline>
		<contour>
			<point x="-12" y="-194" type="curve" smooth="yes"/>
			<point x="103" y="-194"/>
			<point x="157" y="-112"/>
			<point x="177" y="-10" type="curve" smooth="yes"/>
			<point x="256" y="385" type="line"/>
			<point x="343" y="385" type="line"/>
			<point x="364" y="497" type="line"/>
			<point x="279" y="497" type="line"/>
			<point x="286" y="529" type="line" smooth="yes"/>
			<point x="296" y="584"/>
			<point x="317" y="597"/>
			<point x="352" y="597" type="curve" smooth="yes"/>
			<point x="369" y="597"/>
			<point x="390" y="591"/>
			<point x="401" y="585" type="curve"/>
			<point x="446" y="684" type="line"/>
			<point x="415" y="701"/>
			<point x="377" y="711"/>
			<point x="338" y="711" type="curve" smooth="yes"/>
			<point x="220" y="711"/>
			<point x="162" y="627"/>
			<point x="142" y="524" type="curve" smooth="yes"/>
			<point x="137" y="497" type="line"/>
			<point x="71" y="492" type="line"/>
			<point x="50" y="385" type="line"/>
			<point x="113" y="385" type="line"/>
			<point x="35" y="-4" type="line" smooth="yes"/>
			<point x="23" y="-57"/>
			<point x="9" y="-80"/>
			<point x="-24" y="-80" type="curve" smooth="yes"/>
			<point x="-41" y="-80"/>
			<point x="-55" y="-76"/>
			<point x="-69" y="-70" type="curve"/>
			<point x="-107" y="-171" type="line"/>
			<point x="-79" y="-188"/>
			<point x="-46" y="-194"/>
		</contour>
	</outline>
	<anchor name="aboveUC" x="324" y="721"/>
	<anchor name="belowLC" x="4" y="-188"/>
</glyph>
<glyph name="Ghook" format="1">
	<unicode hex="0193"/>
	<advance width="611"/>
	<outline>
		<contour>
			<point x="314" y="-12" type="curve" smooth="yes"/>
			<point x="396" y="-12"/>
			<point x="468" y="17"/>
			<point x="518" y="56" type="curve"/>
			<point x="578" y="367" type="line"/>
			<point x="351" y="367" type="line"/>
			<point x="330" y="255" type="line"/>
			<point x="437" y="255" type="line"/>
			<point x="409" y="127" type="line"/>
			<point x="391" y="114"/>
			<point x="365" y="105"/>
			<point x="338" y="105" type="curve" smooth="yes"/>
			<point x="236" y="105"/>
			<point x="197" y="170"/>
			<point x="197" y="270" type="curve" smooth="yes"/>
			<point x="197" y="415"/>
			<point x="285" y="545"/>
			<point x="406" y="545" type="curve" smooth="yes"/>
			<point x="448" y="545"/>
			<point x="477" y="530"/>
			<point x="502" y="500" type="curve"/>
			<point x="595" y="572" type="line"/>
			<point x="558" y="631"/>
			<point x="497" y="664"/>
			<point x="413" y="664" type="curve" smooth="yes"/>
			<point x="208" y="664"/>
			<point x="56" y="486"/>
			<point x="56" y="261" type="curve" smooth="yes"/>
			<point x="56" y="89"/>
			<point x="153" y="-12"/>
		</contour>
		<contour>
			<point x="476" y="579" type="curve"/>
			<point x="595" y="572" type="line"/>
			<point x="585" y="598"/>
			<point x="574" y="626"/>
			<point x="576" y="656" type="curve" smooth="yes"/>
			<point x="579" y="692"/>
			<point x="603" y="709"/>
			<point x="635" y="707" type="curve" smooth="yes"/>
			<point x="646" y="706"/>
			<point x="652" y="702"/>
			<point x="661" y="697" type="curve"/>
			<point x="704" y="791" type="line"/>
			<point x="685" y="802"/>
			<point x="664" y="811"/>
			<point x="626" y="815" type="curve" smooth="yes"/>
			<point x="536" y="823"/>
			<point x="472" y="760"/>
			<point x="465" y="684" type="curve" smooth="yes"/>
			<point x="463" y="652"/>
			<point x="470" y="614"/>
		</contour>
		<contour>
			<point name="aboveUC" x="317" y="674" type="move"/>
		</contour>
		<contour>
			<point name="belowLC" x="295" y="-22" type="move"/>
		</contour>
	</outline>
</glyph>
<glyph name="Iotalatin" format="2">
	<unicode hex="0196"/>
	<advance width="294"/>
	<outline>
		<contour>
			<point x="160" y="-11" type="curve" smooth="yes"/>
			<point x="187" y="-11"/>
			<point x="212" y="-4"/>
			<point x="232" y="3" type="curve"/>
			<point x="226" y="109" type="line"/>
			<point x="218" y="107"/>
			<point x="215" y="107"/>
			<point x="211" y="107" type="curve" smooth="yes"/>
			<point x="201" y="107"/>
			<point x="193" y="113"/>
			<point x="193" y="126" type="curve" smooth="yes"/>
			<point x="193" y="133"/>
			<point x="193" y="138"/>
			<point x="195" y="149" type="curve" smooth="yes"/>
			<point x="296" y="652" type="line"/>
			<point x="159" y="652" type="line"/>
			<point x="58" y="146" type="line" smooth="yes"/>
			<point x="53" y="121"/>
			<point x="51" y="103"/>
			<point x="51" y="86" type="curve" smooth="yes"/>
			<point x="51" y="25"/>
			<point x="80" y="-11"/>
		</contour>
	</outline>
	<anchor name="aboveUC" x="231" y="674"/>
	<anchor name="belowLC" x="128" y="-22"/>
</glyph>
<glyph name="Istroke" format="2">
	<unicode hex="0197"/>
	<advance width="326"/>
	<outline>
		<contour>
			<point x="33" y="294" type="line"/>
			<point x="311" y="294" type="line"/>
			<point x="329" y="382" type="line"/>
			<point x="140" y="382" type="line"/>
			<point x="51" y="377" type="line"/>
		</contour>
		<component base="I" xOffset="16"/>
	</outline>
	<anchor name="aboveUC" x="250" y="674"/>
	<anchor name="belowLC" x="118" y="-22"/>
</glyph>
<glyph name="lbar" format="2">
	<unicode hex="019A"/>
	<advance width="348"/>
	<outline>
		<contour>
			<point x="29" y="329" type="line"/>
			<point x="341" y="329" type="line"/>
			<point x="359" y="422" type="line"/>
			<point x="139" y="422" type="line"/>
			<point x="46" y="416" type="line"/>
		</contour>
		<component base="l" xOffset="36"/>
	</outline>
	<anchor name="aboveUC" x="263" y="724"/>
	<anchor name="belowLC" x="149" y="-22"/>
</glyph>
<glyph name="lambdastroke" format="2">
	<unicode hex="019B"/>
	<advance width="499"/>
	<outline>
		<contour>
			<point x="118" y="432" type="line"/>
			<point x="498" y="584" type="line"/>
			<point x="472" y="649" type="line"/>
			<point x="92" y="497" type="line"/>
		</contour>
		<component base="lambda.latin"/>
	</outline>
</glyph>
<glyph name="nlong" format="2">
	<unicode hex="019E"/>
	<advance width="552"/>
	<outline>
		<contour>
			<point x="265" y="-184" type="line"/>
			<point x="402" y="-184" type="line"/>
			<point x="502" y="310" type="line" smooth="yes"/>
			<point x="507" y="335"/>
			<point x="510" y="358"/>
			<point x="510" y="381" type="curve" smooth="yes"/>
			<point x="510" y="463"/>
			<point x="474" y="508"/>
			<point x="392" y="508" type="curve" smooth="yes"/>
			<point x="329" y="508"/>
			<point x="275" y="472"/>
			<point x="227" y="430" type="curve"/>
			<point x="223" y="430" type="line"/>
			<point x="225" y="496" type="line"/>
			<point x="114" y="496" type="line"/>
			<point x="14" y="0" type="line"/>
			<point x="151" y="0" type="line"/>
			<point x="215" y="327" type="line"/>
			<point x="258" y="371"/>
			<point x="288" y="391"/>
			<point x="319" y="391" type="curve" smooth="yes"/>
			<point x="352" y="391"/>
			<point x="370" y="374"/>
			<point x="370" y="340" type="curve" smooth="yes"/>
			<point x="370" y="327"/>
			<point x="366" y="313"/>
			<point x="362" y="293" type="curve" smooth="yes"/>
		</contour>
	</outline>
	<anchor name="aboveLC" x="336" y="518"/>
	<anchor name="belowLC" x="178" y="-189"/>
</glyph>
<glyph name="Ohorn" format="1">
	<unicode hex="01A0"/>
	<advance width="660"/>
	<outline>
		<contour>
			<point x="565" y="586" type="line"/>
			<point x="650" y="602"/>
			<point x="699" y="658"/>
			<point x="699" y="733" type="curve" smooth="yes"/>
			<point x="699" y="757"/>
			<point x="693" y="780"/>
			<point x="682" y="805" type="curve"/>
			<point x="580" y="773" type="line"/>
			<point x="587" y="757"/>
			<point x="591" y="741"/>
			<point x="591" y="726" type="curve" smooth="yes"/>
			<point x="591" y="681"/>
			<point x="563" y="640"/>
			<point x="504" y="635" type="curve"/>
		</contour>
		<component base="O"/>
		<contour>
			<point name="aboveUC" x="409" y="674" type="move"/>
		</contour>
		<contour>
			<point name="belowLC" x="286" y="-22" type="move"/>
		</contour>
	</outline>
</glyph>
<glyph name="ohorn" format="2">
	<unicode hex="01A1"/>
	<advance width="540"/>
	<outline>
		<contour>
			<point x="458" y="436" type="line"/>
			<point x="546" y="456"/>
			<point x="591" y="523"/>
			<point x="591" y="603" type="curve" smooth="yes"/>
			<point x="591" y="624"/>
			<point x="586" y="655"/>
			<point x="576" y="676" type="curve"/>
			<point x="469" y="643" type="line"/>
			<point x="474" y="631"/>
			<point x="479" y="608"/>
			<point x="478" y="596" type="curve" smooth="yes"/>
			<point x="478" y="542"/>
			<point x="448" y="495"/>
			<point x="400" y="487" type="curve"/>
		</contour>
		<component base="o"/>
	</outline>
	<anchor name="aboveLC" x="311" y="520"/>
	<anchor name="belowLC" x="199" y="-22"/>
</glyph>
<glyph name="Uhorn" format="1">
	<unicode hex="01AF"/>
	<advance width="666"/>
	<outline>
		<contour>
			<point x="631" y="600" type="line"/>
			<point x="730" y="617"/>
			<point x="782" y="660"/>
			<point x="782" y="736" type="curve" smooth="yes"/>
			<point x="782" y="760"/>
			<point x="777" y="783"/>
			<point x="766" y="808" type="curve"/>
			<point x="663" y="776" type="line"/>
			<point x="670" y="760"/>
			<point x="674" y="743"/>
			<point x="674" y="728" type="curve" smooth="yes"/>
			<point x="674" y="684"/>
			<point x="644" y="656"/>
			<point x="585" y="651" type="curve"/>
		</contour>
		<component base="U"/>
		<contour>
			<point name="aboveUC" x="422" y="682" type="move"/>
		</contour>
		<contour>
			<point name="belowLC" x="289" y="-22" type="move"/>
		</contour>
	</outline>
</glyph>
<glyph name="uhorn" format="2">
	<unicode hex="01B0"/>
	<advance width="570"/>
	<outline>
		<contour>
			<point x="511" y="445" type="line"/>
			<point x="597" y="464"/>
			<point x="643" y="525"/>
			<point x="643" y="605" type="curve" smooth="yes"/>
			<point x="643" y="626"/>
			<point x="637" y="657"/>
			<point x="628" y="678" type="curve"/>
			<point x="520" y="645" type="line"/>
			<point x="525" y="633"/>
			<point x="530" y="610"/>
			<point x="530" y="598" type="curve" smooth="yes"/>
			<point x="529" y="544"/>
			<point x="499" y="503"/>
			<point x="454" y="497" type="curve"/>
		</contour>
		<component base="u"/>
	</outline>
	<anchor name="aboveLC" x="319" y="520"/>
	<anchor name="belowLC" x="238" y="-29"/>
</glyph>
<glyph name="Ezh" format="2">
	<unicode hex="01B7"/>
	<advance width="540"/>
	<outline>
		<contour>
			<point x="225" y="-12" type="curve" smooth="yes"/>
			<point x="396" y="-12"/>
			<point x="504" y="80"/>
			<point x="504" y="227" type="curve" smooth="yes"/>
			<point x="504" y="315"/>
			<point x="454" y="369"/>
			<point x="362" y="384" type="curve"/>
			<point x="547" y="569" type="line"/>
			<point x="564" y="652" type="line"/>
			<point x="143" y="652" type="line"/>
			<point x="121" y="537" type="line"/>
			<point x="364" y="537" type="line"/>
			<point x="167" y="358" type="line"/>
			<point x="206" y="282" type="line"/>
			<point x="234" y="291"/>
			<point x="247" y="293"/>
			<point x="280" y="293" type="curve" smooth="yes"/>
			<point x="326" y="293"/>
			<point x="363" y="267"/>
			<point x="363" y="210" type="curve" smooth="yes"/>
			<point x="363" y="147"/>
			<point x="308" y="105"/>
			<point x="232" y="105" type="curve" smooth="yes"/>
			<point x="172" y="105"/>
			<point x="119" y="125"/>
			<point x="78" y="165" type="curve"/>
			<point x="15" y="76" type="line"/>
			<point x="64" y="14"/>
			<point x="147" y="-12"/>
		</contour>
	</outline>
	<anchor name="aboveUC" x="340" y="674"/>
	<anchor name="belowLC" x="245" y="-22"/>
</glyph>
<glyph name="wynn" format="2">
	<unicode hex="01BF"/>
	<advance width="551"/>
	<outline>
		<contour>
			<point x="-23" y="-184" type="line"/>
			<point x="114" y="-184" type="line"/>
			<point x="132" y="-86" type="line"/>
			<point x="144" y="-12" type="line"/>
			<point x="389" y="52"/>
			<point x="523" y="206"/>
			<point x="523" y="367" type="curve" smooth="yes"/>
			<point x="523" y="454"/>
			<point x="471" y="508"/>
			<point x="386" y="508" type="curve" smooth="yes"/>
			<point x="330" y="508"/>
			<point x="280" y="479"/>
			<point x="225" y="420" type="curve"/>
			<point x="221" y="420" type="line"/>
			<point x="225" y="496" type="line"/>
			<point x="114" y="496" type="line"/>
		</contour>
		<contour>
			<point x="171" y="100" type="curve"/>
			<point x="213" y="314" type="line"/>
			<point x="250" y="371"/>
			<point x="292" y="396"/>
			<point x="330" y="396" type="curve" smooth="yes"/>
			<point x="363" y="396"/>
			<point x="382" y="374"/>
			<point x="382" y="333" type="curve" smooth="yes"/>
			<point x="382" y="246"/>
			<point x="302" y="145"/>
		</contour>
	</outline>
	<anchor name="aboveLC" x="345" y="518"/>
	<anchor name="belowLC" x="53" y="-189"/>
</glyph>
<glyph name="clickalveolar" format="2">
	<unicode hex="01C2"/>
	<advance width="419"/>
	<outline>
		<contour>
			<point x="4" y="216" type="line"/>
			<point x="394" y="216" type="line"/>
			<point x="411" y="303" type="line"/>
			<point x="94" y="303" type="line"/>
			<point x="19" y="297" type="line"/>
		</contour>
		<contour>
			<point x="39" y="396" type="line"/>
			<point x="430" y="396" type="line"/>
			<point x="447" y="483" type="line"/>
			<point x="131" y="483" type="line"/>
			<point x="55" y="477" type="line"/>
		</contour>
		<component base="l.a" xOffset="76"/>
	</outline>
	<anchor name="aboveUC" x="299" y="722"/>
	<anchor name="belowLC" x="153" y="-22"/>
</glyph>
<glyph name="clickretroflex" format="2">
	<unicode hex="01C3"/>
	<advance width="330"/>
	<outline>
		<contour>
			<point x="114" y="230" type="line"/>
			<point x="209" y="230" type="line"/>
			<point x="291" y="539" type="line"/>
			<point x="327" y="699" type="line"/>
			<point x="182" y="699" type="line"/>
			<point x="158" y="539" type="line"/>
		</contour>
		<contour>
			<point x="117" y="-12" type="curve" smooth="yes"/>
			<point x="178" y="-12"/>
			<point x="218" y="40"/>
			<point x="218" y="92" type="curve" smooth="yes"/>
			<point x="218" y="136"/>
			<point x="189" y="170"/>
			<point x="145" y="170" type="curve" smooth="yes"/>
			<point x="84" y="170"/>
			<point x="43" y="116"/>
			<point x="43" y="66" type="curve" smooth="yes"/>
			<point x="43" y="20"/>
			<point x="72" y="-12"/>
		</contour>
	</outline>
	<anchor name="aboveUC" x="262" y="721"/>
	<anchor name="belowLC" x="119" y="-22"/>
</glyph>
<glyph name="gstroke" format="2">
	<unicode hex="01E5"/>
	<advance width="577"/>
	<outline>
		<contour>
			<point x="244" y="221" type="line"/>
			<point x="560" y="221" type="line"/>
			<point x="579" y="314" type="line"/>
			<point x="364" y="314" type="line"/>
			<point x="263" y="308" type="line"/>
		</contour>
		<component base="g"/>
	</outline>
	<anchor name="aboveLC" x="310" y="518"/>
	<anchor name="belowLC" x="195" y="-189"/>
</glyph>
<glyph name="Oogonek" format="2">
	<unicode hex="01EA"/>
	<advance width="663"/>
	<outline>
		<contour>
			<point x="264" y="-223" type="curve" smooth="yes"/>
			<point x="297" y="-223"/>
			<point x="342" y="-210"/>
			<point x="370" y="-191" type="curve"/>
			<point x="343" y="-122" type="line"/>
			<point x="332" y="-128"/>
			<point x="325" y="-130"/>
			<point x="317" y="-130" type="curve" smooth="yes"/>
			<point x="298" y="-130"/>
			<point x="282" y="-120"/>
			<point x="282" y="-99" type="curve" smooth="yes"/>
			<point x="282" y="-68"/>
			<point x="309" y="-23"/>
			<point x="378" y="-2" type="curve" smooth="yes"/>
			<point x="536" y="45"/>
			<point x="637" y="199"/>
			<point x="637" y="387" type="curve" smooth="yes"/>
			<point x="637" y="562"/>
			<point x="539" y="663"/>
			<point x="390" y="663" type="curve" smooth="yes"/>
			<point x="214" y="663"/>
			<point x="57" y="498"/>
			<point x="57" y="264" type="curve" smooth="yes"/>
			<point x="57" y="90"/>
			<point x="155" y="-12"/>
			<point x="304" y="-12" type="curve"/>
			<point x="270" y="2" type="line"/>
			<point x="235" y="-19"/>
			<point x="169" y="-77"/>
			<point x="169" y="-145" type="curve" smooth="yes"/>
			<point x="169" y="-194"/>
			<point x="208" y="-223"/>
		</contour>
		<contour>
			<point x="311" y="113" type="curve" smooth="yes"/>
			<point x="243" y="113"/>
			<point x="205" y="173"/>
			<point x="205" y="273" type="curve" smooth="yes"/>
			<point x="205" y="424"/>
			<point x="296" y="539"/>
			<point x="382" y="539" type="curve" smooth="yes"/>
			<point x="451" y="539"/>
			<point x="489" y="479"/>
			<point x="489" y="378" type="curve" smooth="yes"/>
			<point x="489" y="227"/>
			<point x="398" y="113"/>
		</contour>
	</outline>
	<anchor name="aboveUC" x="408" y="673"/>
</glyph>
<glyph name="oogonek" format="1">
	<unicode hex="01EB"/>
	<advance width="533"/>
	<outline>
		<contour>
			<point x="179" y="-210" type="curve" smooth="yes"/>
			<point x="211" y="-210"/>
			<point x="254" y="-194"/>
			<point x="282" y="-174" type="curve"/>
			<point x="259" y="-118" type="line"/>
			<point x="248" y="-124"/>
			<point x="238" y="-128"/>
			<point x="227" y="-128" type="curve" smooth="yes"/>
			<point x="208" y="-128"/>
			<point x="192" y="-117"/>
			<point x="192" y="-98" type="curve" smooth="yes"/>
			<point x="192" y="-66"/>
			<point x="217" y="-24"/>
			<point x="277" y="-6" type="curve" smooth="yes"/>
			<point x="418" y="34"/>
			<point x="500" y="157"/>
			<point x="500" y="304" type="curve" smooth="yes"/>
			<point x="500" y="434"/>
			<point x="417" y="508"/>
			<point x="308" y="508" type="curve" smooth="yes"/>
			<point x="171" y="508"/>
			<point x="30" y="384"/>
			<point x="30" y="192" type="curve" smooth="yes"/>
			<point x="30" y="69"/>
			<point x="106" y="-12"/>
			<point x="222" y="-12" type="curve"/>
			<point x="192" y="2" type="line"/>
			<point x="154" y="-19"/>
			<point x="93" y="-73"/>
			<point x="93" y="-137" type="curve" smooth="yes"/>
			<point x="93" y="-185"/>
			<point x="129" y="-210"/>
		</contour>
		<contour>
			<point x="237" y="98" type="curve" smooth="yes"/>
			<point x="191" y="98"/>
			<point x="168" y="135"/>
			<point x="168" y="195" type="curve" smooth="yes"/>
			<point x="168" y="311"/>
			<point x="226" y="398"/>
			<point x="292" y="398" type="curve" smooth="yes"/>
			<point x="338" y="398"/>
			<point x="362" y="362"/>
			<point x="362" y="301" type="curve" smooth="yes"/>
			<point x="362" y="185"/>
			<point x="304" y="98"/>
		</contour>
		<contour>
			<point name="aboveLC" x="320" y="518" type="move"/>
		</contour>
	</outline>
</glyph>
<glyph name="Wynn" format="2">
	<unicode hex="01F7"/>
	<advance width="583"/>
	<outline>
		<contour>
			<point x="-4" y="-170" type="line"/>
			<point x="131" y="-170" type="line"/>
			<point x="166" y="-2" type="line"/>
			<point x="472" y="127"/>
			<point x="588" y="336"/>
			<point x="588" y="509" type="curve" smooth="yes"/>
			<point x="588" y="618"/>
			<point x="540" y="664"/>
			<point x="455" y="664" type="curve" smooth="yes"/>
			<point x="393" y="664"/>
			<point x="335" y="634"/>
			<point x="276" y="582" type="curve"/>
			<point x="288" y="652" type="line"/>
			<point x="159" y="652" type="line"/>
		</contour>
		<contour>
			<point x="190" y="126" type="curve"/>
			<point x="257" y="455" type="line"/>
			<point x="308" y="517"/>
			<point x="357" y="545"/>
			<point x="397" y="545" type="curve" smooth="yes"/>
			<point x="431" y="545"/>
			<point x="453" y="522"/>
			<point x="453" y="464" type="curve" smooth="yes"/>
			<point x="453" y="365"/>
			<point x="375" y="223"/>
		</contour>
	</outline>
	<anchor name="aboveUC" x="403" y="674"/>
	<anchor name="belowLC" x="73" y="-175"/>
</glyph>
<glyph name="Yogh" format="2">
	<unicode hex="021C"/>
	<advance width="492"/>
	<outline>
		<contour>
			<point x="19" y="-181" type="line"/>
			<point x="318" y="-84"/>
			<point x="443" y="23"/>
			<point x="443" y="189" type="curve" smooth="yes"/>
			<point x="443" y="260"/>
			<point x="399" y="307"/>
			<point x="322" y="308" type="curve"/>
			<point x="422" y="369"/>
			<point x="474" y="454"/>
			<point x="474" y="538" type="curve" smooth="yes"/>
			<point x="474" y="607"/>
			<point x="424" y="664"/>
			<point x="334" y="664" type="curve" smooth="yes"/>
			<point x="241" y="664"/>
			<point x="176" y="635"/>
			<point x="80" y="559" type="curve"/>
			<point x="136" y="481" type="line"/>
			<point x="196" y="527"/>
			<point x="235" y="545"/>
			<point x="284" y="545" type="curve" smooth="yes"/>
			<point x="315" y="545"/>
			<point x="336" y="518"/>
			<point x="336" y="485" type="curve" smooth="yes"/>
			<point x="336" y="426"/>
			<point x="302" y="381"/>
			<point x="104" y="279" type="curve"/>
			<point x="143" y="197" type="line"/>
			<point x="192" y="222"/>
			<point x="215" y="230"/>
			<point x="246" y="230" type="curve" smooth="yes"/>
			<point x="282" y="230"/>
			<point x="306" y="208"/>
			<point x="306" y="170" type="curve" smooth="yes"/>
			<point x="306" y="98"/>
			<point x="238" y="9"/>
			<point x="-14" y="-85" type="curve"/>
		</contour>
	</outline>
	<anchor name="aboveUC" x="325" y="674"/>
	<anchor name="belowLC" x="203" y="-175"/>
</glyph>
<glyph name="yogh" format="2">
	<unicode hex="021D"/>
	<advance width="442"/>
	<outline>
		<contour>
			<point x="5" y="-196" type="line"/>
			<point x="264" y="-109"/>
			<point x="376" y="-15"/>
			<point x="376" y="115" type="curve" smooth="yes"/>
			<point x="376" y="182"/>
			<point x="333" y="216"/>
			<point x="270" y="219" type="curve"/>
			<point x="354" y="271"/>
			<point x="394" y="334"/>
			<point x="394" y="394" type="curve" smooth="yes"/>
			<point x="394" y="461"/>
			<point x="344" y="508"/>
			<point x="264" y="508" type="curve" smooth="yes"/>
			<point x="188" y="508"/>
			<point x="128" y="485"/>
			<point x="45" y="421" type="curve"/>
			<point x="92" y="342" type="line"/>
			<point x="144" y="380"/>
			<point x="180" y="398"/>
			<point x="215" y="398" type="curve" smooth="yes"/>
			<point x="241" y="398"/>
			<point x="259" y="382"/>
			<point x="259" y="355" type="curve" smooth="yes"/>
			<point x="259" y="306"/>
			<point x="226" y="266"/>
			<point x="73" y="193" type="curve"/>
			<point x="109" y="116" type="line"/>
			<point x="147" y="135"/>
			<point x="169" y="144"/>
			<point x="192" y="144" type="curve" smooth="yes"/>
			<point x="221" y="144"/>
			<point x="241" y="127"/>
			<point x="241" y="97" type="curve" smooth="yes"/>
			<point x="241" y="38"/>
			<point x="175" y="-26"/>
			<point x="-24" y="-98" type="curve"/>
		</contour>
	</outline>
	<anchor name="aboveLC" x="255" y="518"/>
	<anchor name="belowLC" x="163" y="-189"/>
</glyph>
<glyph name="Nlong" format="2">
	<unicode hex="0220"/>
	<advance width="662"/>
	<outline>
		<contour>
			<point x="362" y="-178" type="line"/>
			<point x="499" y="-178" type="line"/>
			<point x="610" y="365" type="line" smooth="yes"/>
			<point x="619" y="412"/>
			<point x="622" y="451"/>
			<point x="622" y="488" type="curve" smooth="yes"/>
			<point x="622" y="608"/>
			<point x="563" y="664"/>
			<point x="463" y="664" type="curve" smooth="yes"/>
			<point x="401" y="664"/>
			<point x="336" y="637"/>
			<point x="276" y="582" type="curve"/>
			<point x="287" y="652" type="line"/>
			<point x="159" y="652" type="line"/>
			<point x="28" y="0" type="line"/>
			<point x="166" y="0" type="line"/>
			<point x="257" y="455" type="line"/>
			<point x="306" y="517"/>
			<point x="359" y="545"/>
			<point x="401" y="545" type="curve" smooth="yes"/>
			<point x="450" y="545"/>
			<point x="482" y="516"/>
			<point x="482" y="449" type="curve" smooth="yes"/>
			<point x="482" y="416"/>
			<point x="474" y="382"/>
			<point x="468" y="348" type="curve" smooth="yes"/>
		</contour>
	</outline>
	<anchor name="aboveUC" x="439" y="674"/>
	<anchor name="belowLC" x="235" y="-189"/>
</glyph>
<glyph name="ou" format="2">
	<unicode hex="0223"/>
	<advance width="535"/>
	<outline>
		<contour>
			<point x="227" y="106" type="curve" smooth="yes"/>
			<point x="181" y="106"/>
			<point x="146" y="134"/>
			<point x="146" y="193" type="curve" smooth="yes"/>
			<point x="146" y="246"/>
			<point x="184" y="310"/>
			<point x="237" y="347" type="curve"/>
			<point x="304" y="316"/>
			<point x="333" y="272"/>
			<point x="333" y="218" type="curve" smooth="yes"/>
			<point x="333" y="153"/>
			<point x="285" y="106"/>
		</contour>
		<contour>
			<point x="207" y="-12" type="curve" smooth="yes"/>
			<point x="367" y="-12"/>
			<point x="481" y="105"/>
			<point x="481" y="250" type="curve" smooth="yes"/>
			<point x="481" y="330"/>
			<point x="445" y="384"/>
			<point x="393" y="417" type="curve"/>
			<point x="394" y="421" type="line"/>
			<point x="475" y="461"/>
			<point x="535" y="567"/>
			<point x="535" y="646" type="curve" smooth="yes"/>
			<point x="535" y="664"/>
			<point x="533" y="681"/>
			<point x="526" y="704" type="curve"/>
			<point x="404" y="669" type="line"/>
			<point x="407" y="658"/>
			<point x="409" y="645"/>
			<point x="409" y="632" type="curve" smooth="yes"/>
			<point x="409" y="577"/>
			<point x="380" y="505"/>
			<point x="322" y="459" type="curve"/>
			<point x="262" y="487"/>
			<point x="239" y="521"/>
			<point x="239" y="569" type="curve" smooth="yes"/>
			<point x="239" y="608"/>
			<point x="250" y="641"/>
			<point x="276" y="679" type="curve"/>
			<point x="159" y="713" type="line"/>
			<point x="125" y="668"/>
			<point x="100" y="611"/>
			<point x="100" y="545" type="curve" smooth="yes"/>
			<point x="100" y="482"/>
			<point x="128" y="432"/>
			<point x="171" y="393" type="curve"/>
			<point x="170" y="389" type="line"/>
			<point x="83" y="348"/>
			<point x="6" y="271"/>
			<point x="6" y="164" type="curve" smooth="yes"/>
			<point x="6" y="56"/>
			<point x="88" y="-12"/>
		</contour>
	</outline>
	<anchor name="aboveUC" x="344" y="724"/>
	<anchor name="belowLC" x="204" y="-22"/>
</glyph>
<glyph name="dotlessj" format="1">
	<unicode hex="0237"/>
	<advance width="267"/>
	<outline>
		<contour>
			<point x="-35" y="-196" type="curve" smooth="yes"/>
			<point x="77" y="-196"/>
			<point x="128" y="-116"/>
			<point x="149" y="-16" type="curve" smooth="yes"/>
			<point x="252" y="496" type="line"/>
			<point x="115" y="496" type="line"/>
			<point x="14" y="-10" type="line" smooth="yes"/>
			<point x="1" y="-64"/>
			<point x="-13" y="-88"/>
			<point x="-46" y="-88" type="curve" smooth="yes"/>
			<point x="-63" y="-88"/>
			<point x="-76" y="-83"/>
			<point x="-90" y="-75" type="curve"/>
			<point x="-131" y="-174" type="line"/>
			<point x="-99" y="-190"/>
			<point x="-70" y="-196"/>
		</contour>
		<contour>
			<point name="aboveLC" x="191" y="518" type="move"/>
		</contour>
	</outline>
</glyph>
<glyph name="Astroke" format="2">
	<unicode hex="023A"/>
	<advance width="547"/>
	<outline>
		<contour>
			<point x="149" y="-62" type="line"/>
			<point x="488" y="701" type="line"/>
			<point x="448" y="713" type="line"/>
			<point x="109" y="-49" type="line"/>
		</contour>
		<component base="A"/>
	</outline>
	<anchor name="aboveUC" x="363" y="674"/>
	<anchor name="belowLC" x="226" y="-22"/>
</glyph>
<glyph name="Cstroke" format="2">
	<unicode hex="023B"/>
	<advance width="567"/>
	<outline>
		<contour>
			<point x="199" y="-42" type="line"/>
			<point x="511" y="682" type="line"/>
			<point x="470" y="693" type="line"/>
			<point x="158" y="-30" type="line"/>
		</contour>
		<component base="C"/>
	</outline>
	<anchor name="aboveUC" x="405" y="674"/>
	<anchor name="belowLC" x="268" y="-22"/>
</glyph>
<glyph name="cstroke" format="2">
	<unicode hex="023C"/>
	<advance width="443"/>
	<outline>
		<contour>
			<point x="162" y="-64" type="line"/>
			<point x="426" y="555" type="line"/>
			<point x="385" y="569" type="line"/>
			<point x="121" y="-49" type="line"/>
		</contour>
		<component base="c"/>
	</outline>
	<anchor name="aboveLC" x="300" y="518"/>
	<anchor name="belowLC" x="200" y="-22"/>
</glyph>
<glyph name="Lbar" format="2">
	<unicode hex="023D"/>
	<advance width="519"/>
	<outline>
		<contour>
			<point x="38" y="317" type="line"/>
			<point x="397" y="317" type="line"/>
			<point x="414" y="407" type="line"/>
			<point x="132" y="407" type="line"/>
			<point x="55" y="401" type="line"/>
		</contour>
		<component base="L" xOffset="20"/>
	</outline>
	<anchor name="aboveUC" x="253" y="674"/>
	<anchor name="belowLC" x="248" y="-22"/>
</glyph>
<glyph name="Glottalstop" format="2">
	<unicode hex="0241"/>
	<advance width="520"/>
	<outline>
		<contour>
			<point x="118" y="0" type="line"/>
			<point x="262" y="0" type="line"/>
			<point x="302" y="200" type="line"/>
			<point x="419" y="246"/>
			<point x="523" y="355"/>
			<point x="523" y="474" type="curve" smooth="yes"/>
			<point x="523" y="599"/>
			<point x="432" y="663"/>
			<point x="322" y="663" type="curve" smooth="yes"/>
			<point x="230" y="663"/>
			<point x="141" y="623"/>
			<point x="72" y="565" type="curve"/>
			<point x="131" y="469" type="line"/>
			<point x="180" y="508"/>
			<point x="239" y="539"/>
			<point x="292" y="539" type="curve" smooth="yes"/>
			<point x="339" y="539"/>
			<point x="375" y="508"/>
			<point x="375" y="449" type="curve" smooth="yes"/>
			<point x="375" y="380"/>
			<point x="314" y="316"/>
			<point x="172" y="267" type="curve"/>
		</contour>
	</outline>
	<anchor name="aboveUC" x="336" y="673"/>
	<anchor name="belowLC" x="186" y="-22"/>
</glyph>
<glyph name="Bstroke" format="2">
	<unicode hex="0243"/>
	<advance width="614"/>
	<outline>
		<contour>
			<point x="46" y="0" type="line"/>
			<point x="285" y="0" type="line" smooth="yes"/>
			<point x="438" y="0"/>
			<point x="568" y="63"/>
			<point x="568" y="223" type="curve" smooth="yes"/>
			<point x="568" y="291"/>
			<point x="529" y="333"/>
			<point x="456" y="352" type="curve"/>
			<point x="457" y="356" type="line"/>
			<point x="543" y="380"/>
			<point x="599" y="440"/>
			<point x="599" y="511" type="curve" smooth="yes"/>
			<point x="599" y="609"/>
			<point x="508" y="651"/>
			<point x="378" y="651" type="curve" smooth="yes"/>
			<point x="176" y="651" type="line"/>
		</contour>
		<contour>
			<point x="-7" y="164" type="line"/>
			<point x="346" y="164" type="line"/>
			<point x="365" y="258" type="line"/>
			<point x="100" y="258" type="line"/>
			<point x="11" y="252" type="line"/>
		</contour>
		<contour>
			<point x="209" y="103" type="line"/>
			<point x="250" y="307" type="line"/>
			<point x="332" y="307" type="line" smooth="yes"/>
			<point x="397" y="307"/>
			<point x="430" y="277"/>
			<point x="430" y="227" type="curve" smooth="yes"/>
			<point x="430" y="148"/>
			<point x="377" y="103"/>
			<point x="292" y="103" type="curve" smooth="yes"/>
		</contour>
		<contour>
			<point x="270" y="401" type="line"/>
			<point x="299" y="547" type="line"/>
			<point x="353" y="547" type="line" smooth="yes"/>
			<point x="419" y="547"/>
			<point x="452" y="526"/>
			<point x="452" y="486" type="curve" smooth="yes"/>
			<point x="452" y="433"/>
			<point x="413" y="401"/>
			<point x="329" y="401" type="curve" smooth="yes"/>
		</contour>
	</outline>
</glyph>
<glyph name="Ubar" format="2">
	<unicode hex="0244"/>
	<advance width="683"/>
	<outline>
		<contour>
			<point x="37" y="316" type="line"/>
			<point x="673" y="316" type="line"/>
			<point x="690" y="409" type="line"/>
			<point x="144" y="409" type="line"/>
			<point x="55" y="403" type="line"/>
		</contour>
		<component base="U" xOffset="19"/>
	</outline>
	<anchor name="aboveUC" x="432" y="674"/>
	<anchor name="belowLC" x="300" y="-22"/>
</glyph>
<glyph name="Jstroke" format="2">
	<unicode hex="0248"/>
	<advance width="511"/>
	<outline>
		<contour>
			<point x="182" y="316" type="line"/>
			<point x="502" y="316" type="line"/>
			<point x="520" y="409" type="line"/>
			<point x="300" y="409" type="line"/>
			<point x="200" y="403" type="line"/>
		</contour>
		<component base="J"/>
	</outline>
	<anchor name="aboveUC" x="435" y="674"/>
	<anchor name="belowLC" x="179" y="-22"/>
</glyph>
<glyph name="aturned" format="2">
	<unicode hex="0250"/>
	<advance width="511"/>
	<outline>
		<contour>
			<point x="223" y="-12" type="curve" smooth="yes"/>
			<point x="291" y="-12"/>
			<point x="362" y="12"/>
			<point x="432" y="52" type="curve"/>
			<point x="393" y="143" type="line"/>
			<point x="337" y="115"/>
			<point x="299" y="100"/>
			<point x="257" y="100" type="curve" smooth="yes"/>
			<point x="214" y="100"/>
			<point x="192" y="123"/>
			<point x="192" y="163" type="curve" smooth="yes"/>
			<point x="192" y="167"/>
			<point x="194" y="175"/>
			<point x="195" y="180" type="curve"/>
			<point x="412" y="204"/>
			<point x="498" y="290"/>
			<point x="498" y="405" type="curve" smooth="yes"/>
			<point x="498" y="466"/>
			<point x="461" y="509"/>
			<point x="391" y="509" type="curve" smooth="yes"/>
			<point x="327" y="509"/>
			<point x="275" y="475"/>
			<point x="232" y="433" type="curve"/>
			<point x="228" y="433" type="line"/>
			<point x="229" y="497" type="line"/>
			<point x="112" y="497" type="line"/>
			<point x="56" y="221" type="line" smooth="yes"/>
			<point x="51" y="194"/>
			<point x="49" y="175"/>
			<point x="49" y="154" type="curve" smooth="yes"/>
			<point x="49" y="43"/>
			<point x="113" y="-12"/>
		</contour>
		<contour>
			<point x="209" y="269" type="curve"/>
			<point x="226" y="350" type="line"/>
			<point x="255" y="379"/>
			<point x="285" y="399"/>
			<point x="317" y="399" type="curve" smooth="yes"/>
			<point x="340" y="399"/>
			<point x="357" y="384"/>
			<point x="357" y="356" type="curve" smooth="yes"/>
			<point x="357" y="308"/>
			<point x="315" y="284"/>
		</contour>
	</outline>
	<anchor name="aboveLC" x="319" y="518"/>
	<anchor name="belowLC" x="229" y="-22"/>
	<anchor name="ogonekLC" x="271" y="0"/>
</glyph>
<glyph name="alphalatin" format="2">
	<unicode hex="0251"/>
	<advance width="561"/>
	<outline>
		<contour>
			<point x="170" y="-12" type="curve" smooth="yes"/>
			<point x="221" y="-12"/>
			<point x="279" y="17"/>
			<point x="324" y="64" type="curve"/>
			<point x="326" y="64" type="line"/>
			<point x="325" y="60"/>
			<point x="325" y="59"/>
			<point x="325" y="57" type="curve" smooth="yes"/>
			<point x="337" y="4"/>
			<point x="373" y="-12"/>
			<point x="424" y="-12" type="curve" smooth="yes"/>
			<point x="448" y="-12"/>
			<point x="475" y="-6"/>
			<point x="500" y="3" type="curve"/>
			<point x="494" y="106" type="line"/>
			<point x="488" y="104"/>
			<point x="486" y="104"/>
			<point x="481" y="104" type="curve" smooth="yes"/>
			<point x="473" y="104"/>
			<point x="467" y="110"/>
			<point x="467" y="121" type="curve" smooth="yes"/>
			<point x="467" y="125"/>
			<point x="467" y="128"/>
			<point x="469" y="138" type="curve" smooth="yes"/>
			<point x="541" y="497" type="line"/>
			<point x="426" y="497" type="line"/>
			<point x="404" y="445" type="line"/>
			<point x="402" y="445" type="line"/>
			<point x="383" y="484"/>
			<point x="339" y="509"/>
			<point x="295" y="509" type="curve" smooth="yes"/>
			<point x="158" y="509"/>
			<point x="30" y="360"/>
			<point x="30" y="171" type="curve" smooth="yes"/>
			<point x="30" y="53"/>
			<point x="83" y="-12"/>
		</contour>
		<contour>
			<point x="234" y="105" type="curve" smooth="yes"/>
			<point x="201" y="105"/>
			<point x="180" y="131"/>
			<point x="180" y="189" type="curve" smooth="yes"/>
			<point x="180" y="305"/>
			<point x="240" y="392"/>
			<point x="306" y="392" type="curve" smooth="yes"/>
			<point x="327" y="392"/>
			<point x="353" y="378"/>
			<point x="368" y="347" type="curve"/>
			<point x="334" y="177" type="line"/>
			<point x="304" y="121"/>
			<point x="265" y="105"/>
		</contour>
	</outline>
	<anchor name="aboveLC" x="328" y="520"/>
	<anchor name="belowLC" x="246" y="-22"/>
</glyph>
<glyph name="alphalatinturned" format="2">
	<unicode hex="0252"/>
	<advance width="561"/>
	<outline>
		<contour>
			<point x="264" y="-12" type="curve" smooth="yes"/>
			<point x="401" y="-12"/>
			<point x="529" y="138"/>
			<point x="529" y="327" type="curve" smooth="yes"/>
			<point x="529" y="444"/>
			<point x="477" y="509"/>
			<point x="389" y="509" type="curve" smooth="yes"/>
			<point x="339" y="509"/>
			<point x="281" y="480"/>
			<point x="236" y="434" type="curve"/>
			<point x="233" y="434" type="line"/>
			<point x="234" y="438"/>
			<point x="234" y="439"/>
			<point x="234" y="440" type="curve" smooth="yes"/>
			<point x="222" y="494"/>
			<point x="187" y="509"/>
			<point x="142" y="509" type="curve" smooth="yes"/>
			<point x="114" y="509"/>
			<point x="89" y="504"/>
			<point x="67" y="498" type="curve"/>
			<point x="62" y="391" type="line"/>
			<point x="70" y="394"/>
			<point x="75" y="394"/>
			<point x="77" y="394" type="curve" smooth="yes"/>
			<point x="86" y="394"/>
			<point x="92" y="388"/>
			<point x="92" y="376" type="curve" smooth="yes"/>
			<point x="92" y="372"/>
			<point x="92" y="368"/>
			<point x="90" y="360" type="curve"/>
			<point x="18" y="0" type="line"/>
			<point x="137" y="0" type="line"/>
			<point x="159" y="52" type="line"/>
			<point x="161" y="52" type="line"/>
			<point x="180" y="13"/>
			<point x="220" y="-12"/>
		</contour>
		<contour>
			<point x="254" y="105" type="curve" smooth="yes"/>
			<point x="230" y="105"/>
			<point x="206" y="119"/>
			<point x="193" y="150" type="curve"/>
			<point x="229" y="331" type="line"/>
			<point x="257" y="376"/>
			<point x="296" y="392"/>
			<point x="326" y="392" type="curve" smooth="yes"/>
			<point x="359" y="392"/>
			<point x="380" y="366"/>
			<point x="380" y="308" type="curve" smooth="yes"/>
			<point x="380" y="192"/>
			<point x="319" y="105"/>
		</contour>
	</outline>
	<anchor name="aboveLC" x="347" y="518"/>
	<anchor name="belowLC" x="247" y="-22"/>
</glyph>
